<svg xmlns="http://www.w3.org/2000/svg" viewBox="0 0 90 261.231" xmlns:v="https://vecta.io/nano"><path d="M45.602 216.001h2v25.174h-2z" fill="#6b4b2c"/><g fill="#d7ba8c"><path d="M15.942 244.646l-6.847 5.403h22.495l-6.847-5.403c-2.58-2.036-6.22-2.036-8.8 0z"/><use href="#B"/><use href="#B" x="13.13"/><path d="M52.691 245.323l-4.207 4.726h22.495l-4.207-4.726a9.43 9.43 0 0 0-14.08 0z"/><use href="#B" x="39.389"/></g><path d="M59.907 212.708c-4.827 4.827-13.279 4.201-13.279 4.201s-.626-8.452 4.201-13.279c.201-.201.408-.393.621-.575 5.81-4.986 14.017 3.221 9.031 9.031a11.07 11.07 0 0 1-.575.621z" fill="#84ba4d"/><path d="M59.907 212.708l.575-.621c2.493-2.905 1.688-6.41-.467-8.564L46.628 216.91s8.452.626 13.279-4.201z" style="mix-blend-mode:multiply" fill="#e6e7e8"/><path d="M33.35 212.708c4.827 4.827 13.279 4.201 13.279 4.201s.626-8.452-4.201-13.279a11.11 11.11 0 0 0-.621-.575c-5.81-4.986-14.017 3.221-9.032 9.031a11.11 11.11 0 0 0 .575.621z" fill="#84ba4d"/><path d="M33.35 212.708l-.575-.621c-2.493-2.905-1.688-6.41.467-8.564l13.387 13.387s-8.452.626-13.279-4.201z" style="mix-blend-mode:multiply" fill="#e6e7e8"/><path d="M9.094 250.049h75.014v3.24H9.094z" fill="#a48250"/><defs ><path id="B" d="M25.792 245.036l-3.567 5.013h22.495l-3.567-5.013c-3.758-5.281-11.602-5.281-15.36 0z"/></defs></svg>