<svg xmlns="http://www.w3.org/2000/svg" viewBox="0 0 90 261.231" xmlns:v="https://vecta.io/nano"><style><![CDATA[.B{fill:#84ba4d}.C{fill:#e6e7e8}.D{fill:#6b4b2c}]]></style><g fill="#d7ba8c"><path d="M16.024 244.646l-6.847 5.403h22.495l-6.847-5.403c-2.58-2.036-6.22-2.036-8.8 0z"/><use href="#B"/><use href="#B" x="13.13"/><path d="M52.774 245.323l-4.207 4.726h22.495l-4.207-4.726a9.43 9.43 0 0 0-14.08 0z"/><use href="#B" x="39.39"/></g><path d="M9.389 250.049h75.014v3.24H9.389z" fill="#a48250"/><path d="M45.475 47.773h2v193.402h-2z" class="D"/><path d="M59.78 212.708c-4.827 4.827-13.279 4.201-13.279 4.201s-.626-8.452 4.201-13.279c.201-.201.408-.393.621-.575 5.81-4.986 14.017 3.221 9.032 9.031a11.15 11.15 0 0 1-.575.621z" class="B"/><path d="M59.78 212.708l.575-.621c2.493-2.905 1.688-6.41-.467-8.564L46.502 216.91s8.452.626 13.279-4.201z" style="mix-blend-mode:multiply" class="C"/><path d="M33.223 212.708c4.827 4.827 13.279 4.201 13.279 4.201s.626-8.452-4.201-13.279c-.201-.201-.408-.393-.621-.575-5.81-4.986-14.017 3.221-9.032 9.031a11.15 11.15 0 0 0 .575.621z" class="B"/><path d="M33.223 212.708l-.575-.621c-2.493-2.905-1.687-6.41.467-8.564l13.387 13.387s-8.452.626-13.279-4.201z" style="mix-blend-mode:multiply" class="C"/><path d="M45.821 193.057l14.297-14.297 1.414 1.414-14.297 14.297z" class="D"/><path d="M72.827 176.404c-4.827 4.827-13.279 4.201-13.279 4.201s-.626-8.452 4.201-13.279c.201-.201.409-.393.621-.575 5.81-4.986 14.017 3.221 9.031 9.031-.183.213-.374.42-.575.621z" class="B"/><path d="M72.827 176.404l.575-.621c2.493-2.905 1.688-6.41-.467-8.564l-13.387 13.387s8.452.626 13.279-4.201z" style="mix-blend-mode:multiply" class="C"/><use href="#C" class="D"/><path d="M27.461 171.578c4.827 4.827 4.201 13.279 4.201 13.279s-8.452.626-13.279-4.201a11.15 11.15 0 0 1-.575-.621c-4.986-5.81 3.221-14.017 9.032-9.031.213.183.42.374.621.575z" class="B"/><path d="M27.461 171.578l-.621-.575c-2.905-2.493-6.409-1.688-8.564.467l13.387 13.387s.626-8.452-4.201-13.279z" style="mix-blend-mode:multiply" class="C"/><g class="D"><path d="M23.513 144.961l1.414-1.414 22.281 22.282-1.414 1.414z"/><path d="M20.452 151.825h12.339v2H20.452z"/></g><path d="M20.754 131.721C25.581 136.548 24.955 145 24.955 145s-8.452.626-13.279-4.201a11.11 11.11 0 0 1-.575-.621c-4.986-5.81 3.221-14.017 9.032-9.031a11.11 11.11 0 0 1 .621.575z" class="B"/><use href="#D" style="mix-blend-mode:multiply" class="C"/><path d="M10.767 146.407c6.826 0 12.36 6.419 12.36 6.419s-5.534 6.419-12.36 6.419a11.14 11.14 0 0 1-.846-.032c-7.634-.583-7.634-12.189 0-12.773a11.14 11.14 0 0 1 .846-.032z" class="B"/><path d="M10.767 146.407l-.846.032c-3.817.292-5.725 3.339-5.725 6.386h18.932s-5.534-6.419-12.36-6.419z" style="mix-blend-mode:multiply" class="C"/><path d="M28.762 59.988l1.414-1.414 17.032 17.032-1.414 1.414z" class="D"/><path d="M28.465 49.527c4.827 4.827 4.201 13.279 4.201 13.279s-8.452.626-13.279-4.201a11.11 11.11 0 0 1-.575-.621c-4.986-5.81 3.221-14.017 9.032-9.032.213.183.42.374.621.575z" class="B"/><use href="#D" x="7.711" y="-82.194" style="mix-blend-mode:multiply" class="C"/><use href="#E" class="D"/><use href="#F" class="B"/><use href="#G" style="mix-blend-mode:multiply" class="C"/><use href="#C" y="-86.039" class="D"/><path d="M27.461 85.539c4.827 4.827 4.201 13.278 4.201 13.278s-8.452.626-13.279-4.201c-.201-.201-.393-.409-.575-.621-4.986-5.81 3.221-14.017 9.032-9.031a11.04 11.04 0 0 1 .621.575z" class="B"/><path d="M27.461 85.539l-.621-.575c-2.905-2.493-6.409-1.687-8.564.467l13.387 13.387s.626-8.452-4.201-13.279z" style="mix-blend-mode:multiply" class="C"/><use href="#E" y="-86.038" class="D"/><use href="#H" class="B"/><use href="#G" y="-86.039" style="mix-blend-mode:multiply" class="C"/><use href="#I" class="D"/><path d="M72.706 152.073c-2.812 2.812-7.735 2.447-7.735 2.447s-.365-4.923 2.447-7.735l.362-.335c3.385-2.904 8.165 1.876 5.261 5.261l-.335.362z" class="B"/><path d="M72.706 152.073l.335-.362c1.452-1.692.983-3.733-.272-4.989l-7.798 7.798s4.923.364 7.735-2.447z" style="mix-blend-mode:multiply" class="C"/><path d="M56.908 147.912h2v13.629h-2z" class="D"/><use href="#J" class="B"/><use href="#K" style="mix-blend-mode:multiply" class="C"/><g class="D"><use href="#I" y="-55.168"/><path d="M53.677 185.615h14.729v2H53.677z"/></g><use href="#L" class="B"/><use href="#M" style="mix-blend-mode:multiply" class="C"/><path d="M45.821 82.591l14.298-14.298 1.414 1.414-14.298 14.298z" class="D"/><path d="M72.827 65.938C68 70.765 59.548 70.139 59.548 70.139s-.626-8.452 4.201-13.279c.201-.201.409-.393.621-.575 5.81-4.986 14.017 3.221 9.031 9.031a11.15 11.15 0 0 1-.575.621z" class="B"/><path d="M72.827 65.938l.575-.621c2.493-2.905 1.688-6.409-.467-8.564L59.548 70.139s8.452.626 13.279-4.201z" style="mix-blend-mode:multiply" class="C"/><path d="M53.677 75.15h14.729v2H53.677z" class="D"/><use href="#L" y="-110.467" class="B"/><use href="#M" y="-110.467" style="mix-blend-mode:multiply" class="C"/><path d="M45.82 147.205l21.006-21.004 1.414 1.414-21.006 21.004z" class="D"/><path d="M77.759 125.384c-4.827 4.827-13.279 4.201-13.279 4.201s-.626-8.452 4.201-13.279a11.11 11.11 0 0 1 .621-.575c5.81-4.986 14.017 3.221 9.031 9.031a11.11 11.11 0 0 1-.575.621z" class="B"/><path d="M77.759 125.384l.575-.621c2.493-2.905 1.688-6.409-.467-8.564L64.48 129.585s8.452.626 13.278-4.201z" style="mix-blend-mode:multiply" class="C"/><path d="M77.759 95.331c-4.827 4.827-13.279 4.201-13.279 4.201s-.626-8.452 4.201-13.279c.201-.201.409-.393.621-.575 5.81-4.986 14.017 3.221 9.031 9.031a11.11 11.11 0 0 1-.575.621z" class="B"/><path d="M77.759 95.331l.575-.621c2.493-2.905 1.688-6.409-.467-8.564L64.48 99.532s8.452.626 13.279-4.201z" style="mix-blend-mode:multiply" class="C"/><path d="M34.713 142.452l1.414-1.414 11.081 11.081-1.414 1.414z" class="D"/><use href="#F" x="-0.281" y="-27.004" class="B"/><path d="M34.539 135.771l-.362-.335c-1.692-1.452-3.733-.983-4.989.272l7.798 7.798s.364-4.923-2.447-7.735z" style="mix-blend-mode:multiply" class="C"/><path d="M25.268 114.2l1.414-1.414 20.553 20.553-1.414 1.414z" class="D"/><use href="#H" x="-8.814" y="31.365" class="B"/><use href="#G" x="-8.814" y="-54.674" style="mix-blend-mode:multiply" class="C"/><path d="M17.271 122.77h18.98v2h-18.98zm40.788-2.589h2v15.2h-2z" class="D"/><use href="#J" x="1.152" y="-26.655" class="B"/><use href="#K" x="1.152" y="-26.655" style="mix-blend-mode:multiply" class="C"/><path d="M45.821 99.589l10.122-10.121 1.414 1.414-10.122 10.121z" class="D"/><path d="M63 89.134c-2.812 2.812-7.735 2.447-7.735 2.447s-.364-4.923 2.447-7.735l.362-.335c3.385-2.904 8.165 1.876 5.261 5.261l-.335.362z" class="B"/><path d="M63 89.134l.335-.362c1.452-1.692.983-3.734-.272-4.989l-7.798 7.798s4.923.365 7.735-2.447z" style="mix-blend-mode:multiply" class="C"/><path d="M46.783 47.356c9.645-3.637 8.974 4.503-.035.428 9.009 4.075 3.339 9.954-.298.309 3.637 9.645-4.503 8.974-.428-.035-4.075 9.009-9.954 3.339-.309-.298-9.644 3.637-8.974-4.503.035-.428-9.009-4.075-3.339-9.954.298-.309-3.637-9.645 4.503-8.974.428.035 4.075-9.009 9.954-3.339.309.298z" fill="#d84774"/><path d="M47.37 47.558c20.206 0 13.345 14.468-.361.761 13.706 13.706-.761 20.567-.761.361 0 20.206-14.468 13.345-.761-.361-13.706 13.706-20.567-.761-.361-.761-20.206 0-13.345-14.468.361-.761-13.706-13.706.761-20.567.761-.361 0-20.206 14.468-13.345.761.361 13.706-13.706 20.567.761.361.761z" fill="#ff7d6c"/><path d="M46.597 47.558c6.304 0 4.163 4.514-.113.238 4.276 4.276-.238 6.417-.238.113 0 6.304-4.514 4.163-.237-.113-4.276 4.276-6.417-.238-.113-.238-6.304 0-4.163-4.514.113-.238-4.276-4.276.237-6.417.237-.113 0-6.304 4.514-4.163.238.113 4.276-4.276 6.417.238.113.238z" fill="#f1645b"/><path d="M49.17 47.558c-.718 0-1.427 1.496-.94 1.983-.487-.487-1.983.222-1.983.94 0-.718-1.496-1.427-1.983-.94.487-.487-.222-1.983-.94-1.983.718 0 1.427-1.496.94-1.983.487.487 1.983-.222 1.983-.94 0 .718 1.496 1.427 1.983.94-.487.487.222 1.983.94 1.983z" fill="#d84774"/><g fill="#ff7d6c"><circle cx="45.782" cy="47.19" r=".279"/><circle cx="44.886" cy="48.875" r=".279"/><circle cx="46.452" cy="46.433" r=".279"/><circle cx="45.756" cy="48.665" r=".279"/><circle cx="44.788" cy="46.572" r=".279"/><circle cx="47.509" cy="48.943" r=".279"/><path d="M47.959 46.765c0 .154-.125.279-.279.279s-.279-.125-.279-.279.125-.278.279-.278.279.125.279.278z"/><circle cx="47.111" cy="47.419" r=".279"/><circle cx="46.313" cy="49.543" r=".279"/><circle cx="47.788" cy="48.258" r=".279"/><circle cx="45.252" cy="47.915" r=".279"/><use href="#N"/><use href="#N" x="-0.386" y="0.364"/><path d="M44.886 47.19a.14.14 0 0 1-.139.139c-.077 0-.139-.062-.139-.139s.062-.139.139-.139.139.062.139.139z"/><use href="#N" x="-1.536" y="1.264"/><use href="#O"/><use href="#P"/><use href="#O" x="0.483" y="-1.05"/><use href="#Q"/><use href="#O" x="1.776" y="-1.982"/><use href="#Q" x="-0.591" y="0.199"/><use href="#O" x="-0.716" y="-0.689"/><use href="#N" x="2.129" y="1.174"/><use href="#O" x="2.44" y="-0.446"/><use href="#O" x="1.246" y="0.279"/><use href="#Q" x="0.194" y="1.935"/><use href="#N" x="1.04" y="-0.418"/><use href="#O" x="-0.465" y="1.1"/><use href="#P" x="-2.286" y="-0.686"/><use href="#O" x="0.762"/><use href="#Q" x="0.278" y="2.913"/><use href="#N" x="-0.763" y="-0.193"/><use href="#P" x="0.242" y="-2.371"/></g><defs ><path id="B" d="M25.874 245.036l-3.567 5.013h22.495l-3.567-5.013c-3.758-5.281-11.602-5.281-15.36 0z"/><path id="C" d="M29.375 183.903l1.414-1.414 16.393 16.393-1.414 1.414z"/><path id="D" d="M20.754 131.721l-.621-.575c-2.905-2.493-6.41-1.688-8.564.467l13.387 13.387s.626-8.452-4.201-13.279z"/><path id="E" d="M35.143 169.549l1.414-1.414 10.625 10.625-1.414 1.414z"/><path id="F" d="M34.82 162.775c2.812 2.812 2.447 7.735 2.447 7.735s-4.923.364-7.735-2.447l-.335-.362c-2.904-3.385 1.876-8.165 5.261-5.261l.362.335z"/><path id="G" d="M34.82 162.775l-.362-.335c-1.692-1.452-3.733-.983-4.989.272l7.798 7.798s.365-4.923-2.447-7.735z"/><path id="H" d="M34.82 76.736c2.812 2.812 2.447 7.735 2.447 7.735s-4.923.365-7.735-2.447l-.335-.362c-2.904-3.385 1.876-8.165 5.261-5.261l.362.335z"/><path id="I" d="M45.82 172.214l19.693-19.692 1.414 1.414-19.693 19.692z"/><path id="J" d="M61.646 141.835c0 3.976-3.739 7.2-3.739 7.2s-3.739-3.223-3.739-7.2l.019-.493c.34-4.447 7.1-4.447 7.44 0l.019.493z"/><path id="K" d="M61.646 141.835l-.019-.493c-.17-2.223-1.945-3.335-3.72-3.335v11.028s3.739-3.223 3.739-7.2z"/><path id="L" d="M73.85 190.355c-3.976 0-7.2-3.739-7.2-3.739s3.223-3.739 7.2-3.739l.493.019c4.447.34 4.447 7.1 0 7.44l-.493.019z"/><path id="M" d="M73.85 190.355l.493-.019c2.223-.17 3.335-1.945 3.335-3.72H66.651s3.223 3.739 7.2 3.739z"/><path id="N" d="M45.969 46.294c0 .077-.062.139-.139.139a.14.14 0 0 1-.139-.139c0-.077.062-.139.139-.139s.139.062.139.139z"/><path id="O" d="M46.108 48.054c0 .077-.062.139-.139.139s-.139-.062-.139-.139.062-.139.139-.139a.14.14 0 0 1 .139.139z"/><path id="P" d="M46.972 48.804c0 .077-.062.139-.139.139s-.139-.062-.139-.139a.14.14 0 0 1 .139-.139c.077 0 .139.062.139.139z"/><path id="Q" d="M46.313 45.623c0 .077-.062.139-.139.139s-.139-.062-.139-.139.062-.139.139-.139.139.062.139.139z"/></defs></svg>