<svg xmlns="http://www.w3.org/2000/svg" viewBox="0 0 90 261.231" xmlns:v="https://vecta.io/nano"><style><![CDATA[.B{fill:#84ba4d}.C{fill:#e6e7e8}.D{fill:#6b4b2c}.E{fill:#d84774}.F{fill:#ff7d6c}.G{fill:#f1645b}]]></style><g fill="#d7ba8c"><path d="M15.957 244.646l-6.847 5.403h22.495l-6.847-5.403c-2.58-2.036-6.22-2.036-8.8 0z"/><use href="#B"/><use href="#B" x="13.13"/><path d="M52.707 245.323l-4.207 4.726h22.495l-4.207-4.726a9.43 9.43 0 0 0-14.08 0z"/><use href="#B" x="39.39"/></g><path d="M9.322 250.049h75.014v3.24H9.322z" fill="#a48250"/><path d="M45.408 33.758h2v207.417h-2z" class="D"/><path d="M59.713 202.586c-4.827 4.827-13.279 4.201-13.279 4.201s-.626-8.452 4.201-13.279c.201-.201.408-.393.621-.575 5.81-4.986 14.017 3.221 9.032 9.031a11.15 11.15 0 0 1-.575.621z" class="B"/><use href="#C" style="mix-blend-mode:multiply" class="C"/><path d="M33.156 209.345c4.827 4.827 13.279 4.201 13.279 4.201s.626-8.452-4.201-13.279c-.201-.201-.408-.393-.621-.575-5.81-4.986-14.017 3.221-9.032 9.031a11.15 11.15 0 0 0 .575.621z" class="B"/><path d="M33.156 209.345l-.575-.621c-2.493-2.905-1.687-6.41.467-8.564l13.387 13.387s-8.452.626-13.279-4.201z" style="mix-blend-mode:multiply" class="C"/><use href="#D" class="D"/><path d="M72.76 176.404c-4.827 4.827-13.279 4.201-13.279 4.201s-.626-8.452 4.201-13.279c.201-.201.409-.393.621-.575 5.81-4.986 14.017 3.221 9.031 9.031-.183.213-.374.42-.575.621z" class="B"/><use href="#C" x="13.047" y="-26.182" style="mix-blend-mode:multiply" class="C"/><use href="#E" class="D"/><path d="M27.394 171.578c4.827 4.827 4.201 13.279 4.201 13.279s-8.452.626-13.279-4.201a11.15 11.15 0 0 1-.575-.621c-4.986-5.81 3.221-14.017 9.032-9.031.213.183.42.374.621.575z" class="B"/><path d="M27.394 171.578l-.621-.575c-2.905-2.493-6.409-1.688-8.564.467l13.387 13.387s.626-8.452-4.201-13.279z" style="mix-blend-mode:multiply" class="C"/><g class="D"><path d="M23.446 144.961l1.414-1.414 22.281 22.282-1.414 1.414z"/><path d="M20.385 151.825h12.339v2H20.385z"/></g><path d="M20.687 131.721C25.514 136.548 24.888 145 24.888 145s-8.452.626-13.279-4.201a11.11 11.11 0 0 1-.575-.621c-4.986-5.81 3.221-14.017 9.032-9.031a11.11 11.11 0 0 1 .621.575z" class="B"/><use href="#F" style="mix-blend-mode:multiply" class="C"/><path d="M10.7 146.407c6.826 0 12.36 6.419 12.36 6.419s-5.534 6.419-12.36 6.419a11.14 11.14 0 0 1-.846-.032c-7.634-.583-7.634-12.189 0-12.773a11.14 11.14 0 0 1 .846-.032z" class="B"/><path d="M10.7 146.407l-.846.032c-3.817.292-5.725 3.339-5.725 6.386H23.06s-5.534-6.419-12.36-6.419z" style="mix-blend-mode:multiply" class="C"/><path d="M28.695 59.988l1.414-1.414 17.032 17.032-1.414 1.414z" class="D"/><path d="M28.398 49.527c4.827 4.827 4.201 13.279 4.201 13.279s-8.452.626-13.279-4.201a11.11 11.11 0 0 1-.575-.621c-4.986-5.81 3.221-14.017 9.032-9.032.213.183.42.374.621.575z" class="B"/><use href="#F" x="7.711" y="-82.194" style="mix-blend-mode:multiply" class="C"/><use href="#G" class="D"/><use href="#H" class="B"/><use href="#I" style="mix-blend-mode:multiply" class="C"/><use href="#E" y="-86.039" class="D"/><path d="M27.394 85.539c4.827 4.827 4.201 13.278 4.201 13.278s-8.452.626-13.279-4.201c-.201-.201-.393-.409-.575-.621-4.986-5.81 3.221-14.017 9.032-9.031a11.04 11.04 0 0 1 .621.575z" class="B"/><path d="M27.394 85.539l-.621-.575c-2.905-2.493-6.409-1.687-8.564.467l13.387 13.387s.626-8.452-4.201-13.279z" style="mix-blend-mode:multiply" class="C"/><use href="#G" y="-86.038" class="D"/><use href="#J" class="B"/><path d="M34.753 76.736l-.362-.335c-1.692-1.452-3.733-.983-4.989.272L37.2 84.47s.365-4.923-2.447-7.735z" style="mix-blend-mode:multiply" class="C"/><use href="#K" class="D"/><path d="M72.639 152.073c-2.812 2.812-7.735 2.447-7.735 2.447s-.365-4.923 2.447-7.735l.362-.335c3.385-2.904 8.165 1.876 5.261 5.261l-.335.362z" class="B"/><path d="M72.639 152.073l.335-.362c1.452-1.692.983-3.733-.272-4.989l-7.798 7.798s4.923.364 7.735-2.447z" style="mix-blend-mode:multiply" class="C"/><path d="M56.841 147.912h2v13.629h-2z" class="D"/><use href="#L" class="B"/><use href="#M" style="mix-blend-mode:multiply" class="C"/><g class="D"><use href="#K" y="-55.168"/><path d="M53.61 185.615H68.34v2H53.61z"/></g><use href="#N" class="B"/><use href="#O" style="mix-blend-mode:multiply" class="C"/><path d="M26.032 189.429h10.802v1.467H26.032z" class="D"/><path d="M22.041 187.42c2.916 0 5.28 2.742 5.28 2.742s-2.364 2.742-5.28 2.742c-.122 0-.242-.005-.361-.014-3.261-.249-3.261-5.207 0-5.456l.361-.014z" class="B"/><path d="M22.041 187.42l-.361.014c-1.631.125-2.446 1.426-2.446 2.728h8.087s-2.364-2.742-5.28-2.742z" style="mix-blend-mode:multiply" class="C"/><use href="#D" y="-131.369" class="D"/><path d="M72.76 45.036c-4.827 4.827-13.279 4.201-13.279 4.201s-.626-8.452 4.201-13.279c.201-.201.409-.393.621-.575 5.81-4.986 14.017 3.221 9.031 9.032-.183.213-.374.42-.575.621z" class="B"/><path d="M72.76 45.036l.575-.621c2.493-2.905 1.688-6.41-.467-8.564L59.481 49.237s8.452.626 13.279-4.201z" style="mix-blend-mode:multiply" class="C"/><g class="D"><use href="#G" y="-122.926"/><path d="M45.754 82.591l14.298-14.298 1.414 1.414-14.298 14.298z"/></g><path d="M72.76 65.938c-4.827 4.827-13.279 4.201-13.279 4.201s-.626-8.452 4.201-13.279c.201-.201.409-.393.621-.575 5.81-4.986 14.017 3.221 9.031 9.031a11.15 11.15 0 0 1-.575.621z" class="B"/><path d="M72.76 65.938l.575-.621c2.493-2.905 1.688-6.409-.467-8.564L59.481 70.139s8.452.626 13.279-4.201z" style="mix-blend-mode:multiply" class="C"/><path d="M53.61 75.15h14.73v2H53.61zm5.885 83.094h14.729v2H59.495z" class="D"/><use href="#N" y="-110.467" class="B"/><use href="#O" y="-110.467" style="mix-blend-mode:multiply" class="C"/><path d="M45.753 147.205l21.006-21.004 1.414 1.414-21.006 21.004z" class="D"/><path d="M77.692 125.384c-4.827 4.827-13.279 4.201-13.279 4.201s-.626-8.452 4.201-13.279a11.11 11.11 0 0 1 .621-.575c5.81-4.986 14.017 3.221 9.031 9.031a11.11 11.11 0 0 1-.575.621z" class="B"/><path d="M77.692 125.384l.575-.621c2.493-2.905 1.688-6.409-.467-8.564l-13.387 13.387s8.452.626 13.278-4.201z" style="mix-blend-mode:multiply" class="C"/><path d="M77.659 162.454c-3.413 0-6.18-3.209-6.18-3.209s2.767-3.209 6.18-3.209l.423.016c3.817.292 3.817 6.095 0 6.386l-.423.016z" class="B"/><path d="M77.659 162.454l.423-.016c1.909-.146 2.863-1.669 2.863-3.193h-9.466s2.767 3.209 6.18 3.209z" style="mix-blend-mode:multiply" class="C"/><path d="M34.646 142.452l1.414-1.414 11.081 11.081-1.414 1.414z" class="D"/><use href="#H" x="-0.281" y="-27.004" class="B"/><path d="M34.472 135.771l-.362-.335c-1.692-1.452-3.733-.983-4.989.272l7.798 7.798s.364-4.923-2.447-7.735z" style="mix-blend-mode:multiply" class="C"/><path d="M25.201 114.201l1.414-1.414 20.553 20.553-1.414 1.414z" class="D"/><use href="#J" x="-8.814" y="31.365" class="B"/><use href="#I" x="-8.814" y="-54.674" style="mix-blend-mode:multiply" class="C"/><path d="M17.204 122.77h18.98v2h-18.98zm40.788-2.589h2v15.2h-2z" class="D"/><use href="#L" x="1.152" y="-26.655" class="B"/><use href="#M" x="1.152" y="-26.655" style="mix-blend-mode:multiply" class="C"/><path d="M36.119 94.664h1.177v8.947h-1.177z" class="D"/><path d="M38.908 91.721c0 2.341-2.201 4.238-2.201 4.238s-2.201-1.897-2.201-4.238l.011-.29c.2-2.617 4.179-2.617 4.379 0l.011.29z" class="B"/><path d="M38.908 91.721l-.011-.29c-.1-1.309-1.145-1.963-2.19-1.963v6.491s2.201-1.897 2.201-4.238z" style="mix-blend-mode:multiply" class="C"/><path d="M45.754 99.589l10.122-10.121 1.414 1.414-10.122 10.121z" class="D"/><path d="M62.933 89.134c-2.812 2.812-7.735 2.447-7.735 2.447s-.364-4.923 2.447-7.735l.362-.335c3.385-2.904 8.165 1.876 5.261 5.261l-.335.362z" class="B"/><path d="M62.933 89.134l.335-.362c1.452-1.692.983-3.734-.272-4.989l-7.798 7.798s4.923.365 7.735-2.447z" style="mix-blend-mode:multiply" class="C"/><use href="#P" class="E"/><path d="M47.303 27.418c20.206 0 13.345 14.468-.361.762 13.706 13.706-.761 20.567-.761.361 0 20.206-14.468 13.345-.761-.361-13.706 13.706-20.567-.762-.361-.762-20.206 0-13.345-14.467.361-.761-13.706-13.706.761-20.567.761-.361 0-20.206 14.468-13.345.761.361 13.706-13.706 20.567.761.361.761z" class="F"/><use href="#Q" class="G"/><use href="#R" class="E"/><g class="F"><circle cx="45.715" cy="27.05" r=".279"/><circle cx="44.819" cy="28.735" r=".279"/><circle cx="46.385" cy="26.293" r=".279"/><circle cx="45.689" cy="28.524" r=".279"/><circle cx="44.721" cy="26.432" r=".279"/><circle cx="47.442" cy="28.803" r=".279"/><path d="M47.892 26.625c0 .154-.125.279-.279.279s-.279-.125-.279-.279.125-.278.279-.278.279.125.279.278z"/><circle cx="47.044" cy="27.279" r=".279"/><circle cx="46.246" cy="29.403" r=".279"/><circle cx="47.721" cy="28.117" r=".279"/><circle cx="45.185" cy="27.775" r=".279"/><use href="#S"/><use href="#S" x="-0.386" y="0.364"/><use href="#T"/><use href="#S" x="-1.536" y="1.264"/><use href="#U"/><use href="#V"/><use href="#U" x="0.483" y="-1.05"/><use href="#W"/><use href="#U" x="1.776" y="-1.982"/><use href="#W" x="-0.591" y="0.2"/><use href="#U" x="-0.716" y="-0.689"/><use href="#S" x="2.129" y="1.174"/><use href="#U" x="2.44" y="-0.446"/><use href="#U" x="1.246" y="0.278"/><use href="#W" x="0.194" y="1.936"/><use href="#S" x="1.04" y="-0.418"/><use href="#U" x="-0.465" y="1.1"/><use href="#V" x="-2.286" y="-0.686"/><use href="#U" x="0.762"/><use href="#W" x="0.278" y="2.914"/><use href="#S" x="-0.763" y="-0.193"/><use href="#V" x="0.242" y="-2.371"/></g><use href="#P" x="-28.976" y="98.782" class="E"/><path d="M18.327 126.2c20.206 0 13.345 14.468-.361.761 13.706 13.706-.762 20.567-.762.361 0 20.206-14.467 13.345-.761-.361-13.706 13.706-20.567-.761-.361-.761-20.206 0-13.345-14.468.361-.761-13.706-13.706.761-20.567.761-.361 0-20.206 14.468-13.345.762.361 13.706-13.706 20.567.761.361.761z" class="F"/><path d="M17.554 126.2c6.304 0 4.163 4.514-.113.238 4.276 4.276-.238 6.417-.238.113 0 6.304-4.514 4.163-.238-.113-4.276 4.276-6.417-.238-.113-.238-6.304 0-4.163-4.514.113-.238-4.276-4.276.238-6.417.238-.113 0-6.304 4.514-4.163.238.113 4.276-4.276 6.417.238.113.238z" class="G"/><use href="#R" x="-28.976" y="98.782" class="E"/><g class="F"><circle cx="16.739" cy="125.832" r=".279"/><circle cx="15.843" cy="127.517" r=".279"/><circle cx="17.409" cy="125.075" r=".279"/><circle cx="16.713" cy="127.307" r=".279"/><circle cx="15.745" cy="125.214" r=".279"/><circle cx="18.466" cy="127.585" r=".279"/><path d="M18.916 125.407c0 .154-.125.278-.279.278s-.279-.125-.279-.278.125-.278.279-.278.279.125.279.278z"/><circle cx="18.068" cy="126.061" r=".279"/><circle cx="17.27" cy="128.185" r=".279"/><circle cx="18.744" cy="126.9" r=".279"/><circle cx="16.209" cy="126.557" r=".279"/><use href="#S" x="-28.977" y="98.782"/><use href="#S" x="-29.363" y="99.146"/><use href="#T" x="-28.976" y="98.782"/><use href="#S" x="-30.512" y="100.046"/><use href="#U" x="-28.976" y="98.782"/><use href="#V" x="-28.976" y="98.782"/><use href="#U" x="-28.493" y="97.733"/><use href="#W" x="-28.976" y="98.783"/><use href="#U" x="-27.2" y="96.801"/><use href="#W" x="-29.567" y="98.983"/><use href="#U" x="-29.692" y="98.093"/><use href="#S" x="-26.847" y="99.957"/><use href="#U" x="-26.536" y="98.336"/><use href="#U" x="-27.731" y="99.061"/><use href="#W" x="-28.782" y="100.718"/><use href="#S" x="-27.936" y="98.364"/><use href="#U" x="-29.441" y="99.882"/><use href="#V" x="-31.262" y="98.097"/><use href="#U" x="-28.214" y="98.782"/><use href="#W" x="-28.698" y="101.696"/><use href="#S" x="-29.739" y="98.589"/><use href="#V" x="-28.734" y="96.411"/></g><use href="#P" x="24.814" y="69.031" class="E"/><path d="M72.117 96.45c20.206 0 13.345 14.468-.361.761 13.706 13.706-.761 20.567-.761.361 0 20.206-14.468 13.345-.761-.361-13.706 13.706-20.567-.761-.361-.761-20.206 0-13.345-14.468.361-.761-13.706-13.706.761-20.567.761-.361 0-20.206 14.468-13.345.761.361 13.706-13.706 20.567.761.361.761z" class="F"/><use href="#Q" x="24.814" y="69.032" class="G"/><use href="#R" x="24.814" y="69.032" class="E"/><g class="F"><circle cx="70.53" cy="96.081" r=".279"/><circle cx="69.634" cy="97.767" r=".279"/><circle cx="71.199" cy="95.324" r=".279"/><circle cx="70.503" cy="97.556" r=".279"/><circle cx="69.536" cy="95.464" r=".279"/><circle cx="72.256" cy="97.834" r=".279"/><path d="M72.706 95.656c0 .154-.125.278-.278.278s-.278-.125-.278-.278.125-.278.278-.278.278.125.278.278z"/><circle cx="71.858" cy="96.31" r=".279"/><circle cx="71.06" cy="98.434" r=".279"/><circle cx="72.535" cy="97.149" r=".279"/><circle cx="70" cy="96.806" r=".279"/><use href="#S" x="24.814" y="69.031"/><use href="#S" x="24.428" y="69.395"/><use href="#T" x="24.815" y="69.031"/><use href="#S" x="23.278" y="70.296"/><use href="#U" x="24.814" y="69.031"/><use href="#V" x="24.814" y="69.031"/><use href="#U" x="25.298" y="67.982"/><use href="#W" x="24.814" y="69.032"/><use href="#U" x="26.59" y="67.05"/><use href="#W" x="24.223" y="69.232"/><use href="#U" x="24.098" y="68.342"/><use href="#S" x="26.943" y="70.206"/><use href="#U" x="27.254" y="68.585"/><use href="#U" x="26.06" y="69.31"/><use href="#W" x="25.008" y="70.968"/><use href="#S" x="25.854" y="68.613"/><use href="#U" x="24.349" y="70.131"/><use href="#V" x="22.529" y="68.346"/><use href="#U" x="25.576" y="69.031"/><use href="#W" x="25.093" y="71.945"/><use href="#S" x="24.051" y="68.838"/><use href="#V" x="25.056" y="66.66"/><path d="M35.697 39.009c3.629 3.629 1.011 7.836 1.011 7.836s-4.207 2.619-7.836-1.011l-.433-.467c-1.875-2.184-1.797-8.588-1.797-8.588s6.403-.077 8.588 1.797l.467.433z"/></g><path d="M36.385 43.935c1.326 1.326.369 2.863.369 2.863s-1.537.957-2.863-.369l-.158-.171c-.685-.798-.657-3.138-.657-3.138s2.34-.028 3.138.657l.171.158z" fill="#7dad45"/><g class="B"><path d="M38.223 44.658c-.201 1.864-1.468 2.14-1.468 2.14s-1.179-.54-.978-2.404l.031-.23c.168-1.036 1.505-2.536 1.505-2.536s.986 1.75.93 2.798l-.019.232z"/><path d="M34.567 48.313c1.864-.201 2.141-1.468 2.141-1.468s-.54-1.179-2.404-.978l-.23.031c-1.036.168-2.536 1.505-2.536 1.505s1.75.986 2.798.93l.232-.019z"/></g><defs ><path id="B" d="M25.807 245.036l-3.567 5.013h22.495l-3.567-5.013c-3.758-5.281-11.602-5.281-15.36 0z"/><path id="C" d="M59.713 202.586l.575-.621c2.493-2.905 1.688-6.41-.467-8.564l-13.387 13.387s8.452.626 13.279-4.201z"/><path id="D" d="M45.754 193.057l14.297-14.297 1.414 1.414-14.297 14.297z"/><path id="E" d="M29.308 183.903l1.414-1.414 16.393 16.393-1.414 1.414z"/><path id="F" d="M20.687 131.721l-.621-.575c-2.905-2.493-6.41-1.688-8.564.467l13.387 13.387s.626-8.452-4.201-13.279z"/><path id="G" d="M35.076 169.549l1.414-1.414 10.625 10.625-1.414 1.414z"/><path id="H" d="M34.753 162.775c2.812 2.812 2.447 7.735 2.447 7.735s-4.923.364-7.735-2.447l-.335-.362c-2.904-3.385 1.876-8.165 5.261-5.261l.362.335z"/><path id="I" d="M34.753 162.775l-.362-.335c-1.692-1.452-3.733-.983-4.989.272l7.798 7.798s.365-4.923-2.447-7.735z"/><path id="J" d="M34.753 76.736c2.812 2.812 2.447 7.735 2.447 7.735s-4.923.365-7.735-2.447l-.335-.362c-2.904-3.385 1.876-8.165 5.261-5.261l.362.335z"/><path id="K" d="M45.753 172.214l19.693-19.692 1.414 1.414-19.693 19.692z"/><path id="L" d="M61.579 141.835c0 3.976-3.739 7.2-3.739 7.2s-3.739-3.223-3.739-7.2l.019-.493c.34-4.447 7.1-4.447 7.44 0l.019.493z"/><path id="M" d="M61.579 141.835l-.019-.493c-.17-2.223-1.945-3.335-3.72-3.335v11.028s3.739-3.223 3.739-7.2z"/><path id="N" d="M73.783 190.355c-3.976 0-7.2-3.739-7.2-3.739s3.223-3.739 7.2-3.739l.493.019c4.447.34 4.447 7.1 0 7.44l-.493.019z"/><path id="O" d="M73.783 190.355l.493-.019c2.223-.17 3.335-1.945 3.335-3.72H66.583s3.223 3.739 7.2 3.739z"/><path id="P" d="M46.716 27.216c9.645-3.637 8.974 4.503-.035.428 9.009 4.075 3.339 9.954-.298.309 3.637 9.645-4.503 8.974-.428-.035-4.075 9.009-9.954 3.339-.309-.298-9.644 3.637-8.974-4.503.035-.428-9.009-4.075-3.339-9.954.298-.309-3.637-9.645 4.503-8.974.428.035 4.075-9.009 9.954-3.339.309.298z"/><path id="Q" d="M46.53 27.418c6.304 0 4.163 4.514-.113.238 4.276 4.276-.238 6.417-.238.113 0 6.304-4.514 4.163-.237-.113-4.276 4.276-6.417-.238-.113-.238-6.304 0-4.163-4.514.113-.238-4.276-4.276.237-6.417.237-.113 0-6.304 4.514-4.163.238.113 4.276-4.276 6.417.238.113.238z"/><path id="R" d="M49.103 27.418c-.718 0-1.427 1.496-.94 1.983-.487-.487-1.983.222-1.983.94 0-.718-1.496-1.427-1.983-.94.487-.487-.222-1.983-.94-1.983.718 0 1.427-1.496.94-1.983.487.487 1.983-.222 1.983-.94 0 .718 1.496 1.427 1.983.94-.487.487.222 1.983.94 1.983z"/><path id="S" d="M45.902 26.154c0 .077-.062.139-.139.139a.14.14 0 0 1-.139-.139c0-.077.062-.139.139-.139s.139.062.139.139z"/><path id="T" d="M44.819 27.05a.14.14 0 0 1-.139.139c-.077 0-.139-.062-.139-.139s.062-.139.139-.139.139.062.139.139z"/><path id="U" d="M46.041 27.914c0 .077-.062.139-.139.139s-.139-.062-.139-.139.062-.139.139-.139a.14.14 0 0 1 .139.139z"/><path id="V" d="M46.905 28.664c0 .077-.062.139-.139.139s-.139-.062-.139-.139a.14.14 0 0 1 .139-.139c.077 0 .139.062.139.139z"/><path id="W" d="M46.246 25.482c0 .077-.062.139-.139.139s-.139-.062-.139-.139.062-.139.139-.139.139.062.139.139z"/></defs></svg>