<svg xmlns="http://www.w3.org/2000/svg" viewBox="0 0 149.43 82.407" xmlns:v="https://vecta.io/nano"><style><![CDATA[.B{fill:#4faa6b}.C{fill:#499b60}.D{fill:#7fd397}.E{fill:#eac4b0}.F{fill:#edd5c5}]]></style><use href="#B" class="B"/><path d="M90.804 41.018l-49.229-.052v4.723l49.229.052 14.269-9.394v-4.723l-14.269 9.394z" class="C"/><use href="#C" class="D"/><ellipse cx="73.324" cy="36.295" rx="6.625" ry="1.985" transform="matrix(.963477 -.267792 .267792 .963477 -7.0414 20.9612)" class="B"/><use href="#D" class="E"/><use href="#E" class="F"/><path d="M88.342 35.5l-49.229-.052 14.269-9.394 49.229.052L88.342 35.5z" class="B"/><path d="M88.342 35.5l-49.229-.052v4.723l49.229.052 14.269-9.393v-4.723L88.342 35.5z" class="C"/><use href="#C" x="-2.462" y="-5.518" class="D"/><ellipse cx="70.862" cy="30.777" rx="6.625" ry="1.985" transform="matrix(.963477 -.267792 .267792 .963477 -5.6537 20.1003)" class="B"/><use href="#D" x="-2.462" y="-5.517" class="E"/><use href="#E" x="-2.462" y="-5.517" class="F"/><use href="#B" x="-0.72" y="-11.088" class="B"/><path d="M90.084 29.93l-49.229-.052V34.6l49.229.052 14.269-9.394v-4.723L90.084 29.93z" class="C"/><use href="#C" x="-0.72" y="-11.088" class="D"/><ellipse cx="72.604" cy="25.207" rx="6.625" ry="1.985" transform="matrix(.963477 -.267792 .267792 .963477 -4.0985 20.3634)" class="B"/><use href="#D" x="-0.72" y="-11.088" class="E"/><use href="#E" x="-0.72" y="-11.088" class="F"/><use href="#F" class="B"/><path d="M91.867 24.149l-45.56-.048v4.371l45.56.048 13.206-8.693v-4.371l-13.206 8.694z" class="C"/><path d="M87.2 23.365l-33.863-.036c1.23-.81.57-1.468-1.474-1.47l6.388-4.205c2.044.002 4.698-.653 5.929-1.462l33.863.036c-1.23.81-.57 1.468 1.474 1.47l-6.388 4.205c-2.044-.002-4.698.653-5.928 1.462z" class="D"/><ellipse cx="75.69" cy="19.778" rx="6.132" ry="1.837" transform="matrix(.963477 -.267792 .267792 .963477 -2.532 20.9915)" class="B"/><path d="M57.768 28.472v-4.371l13.206-8.694 3.753.048-11.402 8.651v4.413l-5.556-.048z" class="E"/><use href="#G" class="F"/><path d="M89.588 19.042l-45.56-.048 13.206-8.693 45.56.048-13.206 8.694z" class="B"/><path d="M89.588 19.042l-45.56-.048v4.371l45.56.048 13.206-8.694v-4.371l-13.206 8.694z" class="C"/><path d="M84.922 18.258l-33.863-.036c1.23-.81.57-1.468-1.474-1.47l6.388-4.205c2.044.002 4.698-.653 5.929-1.463l33.863.036c-1.23.81-.57 1.468 1.474 1.47l-6.388 4.205c-2.044-.002-4.698.653-5.928 1.462z" class="D"/><ellipse cx="73.411" cy="14.671" rx="6.132" ry="1.837" transform="matrix(.963477 -.267792 .267792 .963477 -1.2477 20.1948)" class="B"/><path d="M55.489 23.365v-4.371l13.206-8.693 3.752.048L61.045 19v4.413l-5.557-.048z" class="E"/><path d="M56.039 23.365v-4.371l13.206-8.693 2.652.048L60.495 19v4.413l-4.456-.048z" class="F"/><use href="#F" x="-0.666" y="-10.262" class="B"/><path d="M91.201 13.887l-45.56-.048v4.371l45.56.048 13.206-8.694V5.194l-13.206 8.694z" class="C"/><path d="M86.534 13.103l-33.863-.036c1.23-.81.57-1.468-1.474-1.47l6.388-4.205c2.044.002 4.698-.653 5.929-1.463l33.863.036c-1.23.81-.57 1.468 1.474 1.47l-6.388 4.205c-2.044-.002-4.698.653-5.928 1.463z" class="D"/><ellipse cx="75.024" cy="9.516" rx="6.132" ry="1.837" transform="matrix(.963477 -.267792 .267792 .963477 .1917 20.4383)" class="B"/><path d="M57.101 18.21v-4.371l13.206-8.694 3.752.048-11.402 8.651v4.413l-5.557-.048z" class="E"/><use href="#G" x="-0.667" y="-10.262" class="F"/><use href="#H" class="B"/><path d="M133.476 57.632l-55.042-.058v5.28l55.042.058L149.43 52.41v-5.281l-15.954 10.503z" class="C"/><path d="M127.838 56.685l-40.911-.043c1.486-.978.689-1.774-1.78-1.776l7.717-5.08c2.469.003 5.676-.788 7.162-1.767l40.911.043c-1.486.978-.689 1.774 1.78 1.776L135 54.918c-2.47-.003-5.676.788-7.162 1.767z" class="D"/><ellipse cx="113.932" cy="52.351" rx="7.408" ry="2.219" transform="matrix(.963477 -.267792 .267792 .963477 -9.8581 32.422)" class="B"/><path d="M92.279 62.854v-5.28l15.954-10.503 4.534.058-13.775 10.452v5.332l-6.713-.058z" class="E"/><path d="M92.944 62.854v-5.28l15.954-10.503 3.204.058-13.775 10.452v5.332l-5.383-.058z" class="F"/><use href="#H" x="-2.753" y="-6.17" class="B"/><use href="#I" class="C"/><use href="#J" class="D"/><ellipse cx="111.179" cy="46.182" rx="7.408" ry="2.219" transform="matrix(.963477 -.267792 .267792 .963477 -8.3065 31.4595)" class="B"/><use href="#K" class="E"/><use href="#L" class="F"/><use href="#H" x="-0.805" y="-12.398" class="B"/><use href="#I" x="1.948" y="-6.228" class="C"/><use href="#J" x="1.947" y="-6.228" class="D"/><ellipse cx="113.127" cy="39.954" rx="7.408" ry="2.219" transform="matrix(.963477 -.267792 .267792 .963477 -6.5675 31.7536)" class="B"/><use href="#K" x="1.948" y="-6.228" class="E"/><use href="#L" x="1.948" y="-6.228" class="F"/><use href="#H" x="-9.899" y="-20.26" class="B"/><use href="#I" x="-7.146" y="-14.09" class="C"/><use href="#M" class="D"/><ellipse cx="104.032" cy="32.091" rx="7.408" ry="2.219" transform="matrix(.963477 -.267792 .267792 .963477 -4.7942 29.0311)" class="B"/><use href="#K" x="-7.146" y="-14.091" class="E"/><use href="#L" x="-7.146" y="-14.091" class="F"/><path d="M123.707 30.821l-55.042-.058L84.619 20.26l55.042.058-15.954 10.503z" class="B"/><use href="#I" x="-7.016" y="-20.641" class="C"/><use href="#M" x="0.131" y="-6.551" class="D"/><ellipse cx="104.163" cy="25.541" rx="7.408" ry="2.219" transform="matrix(.963477 -.267792 .267792 .963477 -3.0352 28.8268)" class="B"/><path d="M82.51 36.044v-5.281L98.464 20.26l4.534.058L89.223 30.77v5.332l-6.713-.058z" class="E"/><path d="M83.175 36.044v-5.281L99.129 20.26l3.204.058L88.558 30.77v5.332l-5.383-.058z" class="F"/><path d="M128.116 24.652l-55.042-.058L89.028 14.09l55.042.058-15.954 10.503z" class="B"/><use href="#I" x="-2.607" y="-26.81" class="C"/><use href="#M" x="4.539" y="-12.721" class="D"/><ellipse cx="108.572" cy="19.371" rx="7.408" ry="2.219" transform="matrix(.963477 -.267792 .267792 .963477 -1.222 29.7821)" class="B"/><path d="M86.919 29.874v-5.281l15.954-10.503 4.534.058L93.632 24.6v5.332l-6.713-.058z" class="E"/><path d="M87.584 29.874v-5.281l15.954-10.503 3.204.058L92.967 24.6v5.332l-5.383-.058z" class="F"/><path d="M122.902 18.424l-55.042-.058L83.813 7.863l55.042.058-15.954 10.503z" class="B"/><path d="M122.902 18.424l-55.042-.058v5.281l55.042.058 15.954-10.503V7.921l-15.954 10.503z" class="C"/><use href="#M" x="-0.675" y="-18.948" class="D"/><ellipse cx="103.358" cy="13.143" rx="7.408" ry="2.219" transform="matrix(.963477 -.267792 .267792 .963477 .2553 28.1583)" class="B"/><path d="M81.705 23.646v-5.281L97.659 7.863l4.534.058-13.775 10.452v5.332l-6.713-.058z" class="E"/><path d="M82.37 23.646v-5.281L98.324 7.863l3.204.058-13.775 10.452v5.332l-5.383-.058z" class="F"/><path d="M128.116 10.561l-55.042-.058L89.028 0l55.042.058-15.954 10.503z" class="B"/><path d="M128.116 10.561l-55.042-.058v5.281l55.042.058L144.07 5.339V.058l-15.954 10.503z" class="C"/><use href="#M" x="4.539" y="-26.811" class="D"/><ellipse cx="108.572" cy="5.281" rx="7.408" ry="2.219" transform="matrix(.963477 -.267792 .267792 .963477 2.5513 29.2675)" class="B"/><path d="M86.919 15.784v-5.281L102.873 0l4.534.058L93.632 10.51v5.332l-6.713-.058z" class="E"/><path d="M87.584 15.784v-5.281L103.538 0l3.204.058L92.967 10.51v5.332l-5.383-.058z" class="F"/><defs ><path id="B" d="M90.804 41.018l-49.229-.052 14.269-9.394 49.229.052-14.269 9.394z"/><path id="C" d="M85.761 40.171l-36.59-.039c1.329-.875.616-1.586-1.592-1.589l6.902-4.544c2.209.002 5.077-.705 6.406-1.58l36.59.039c-1.329.875-.616 1.586 1.592 1.589l-6.902 4.544c-2.209-.002-5.077.705-6.406 1.58z"/><path id="D" d="M53.958 45.688v-4.723l14.269-9.394 4.055.052-12.32 9.348v4.769l-6.004-.052z"/><path id="E" d="M54.553 45.688v-4.723l14.269-9.394 2.865.052-12.32 9.348v4.769l-4.815-.052z"/><path id="F" d="M91.867 24.149l-45.56-.048 13.206-8.694 45.56.048-13.206 8.694z"/><path id="G" d="M58.318 28.472v-4.371l13.206-8.694 2.652.048-11.402 8.651v4.413l-4.456-.048z"/><path id="H" d="M133.476 57.632l-55.042-.058 15.954-10.503 55.042.058-15.954 10.503z"/><path id="I" d="M130.723 51.462l-55.042-.058v5.281l55.042.058 15.954-10.503v-5.281l-15.954 10.503z"/><path id="J" d="M125.085 50.515l-40.911-.043c1.486-.978.689-1.774-1.78-1.776l7.717-5.08c2.469.003 5.676-.788 7.162-1.767l40.911.043c-1.486.978-.689 1.774 1.78 1.776l-7.717 5.08c-2.47-.003-5.676.788-7.162 1.767z"/><path id="K" d="M89.526 56.685v-5.281l15.954-10.503 4.534.058-13.775 10.452v5.332l-6.713-.058z"/><path id="L" d="M90.191 56.685v-5.281l15.954-10.503 3.204.058-13.775 10.452v5.332l-5.383-.058z"/><path id="M" d="M117.938 36.425l-40.911-.043c1.486-.978.689-1.774-1.78-1.776l7.717-5.08c2.469.003 5.676-.788 7.162-1.767l40.911.043c-1.486.978-.689 1.774 1.78 1.776l-7.717 5.08c-2.469-.003-5.676.788-7.162 1.767z"/></defs></svg>