<?xml version="1.0" encoding="UTF-8"?><svg xmlns="http://www.w3.org/2000/svg" viewBox="0 0 90 270.4615"><g style="isolation:isolate;"><g id="a"><g><g><path d="M15.9572,244.6463l-6.8472,5.4025H31.6045l-6.8471-5.4025c-2.5803-2.0358-6.2201-2.0358-8.8003,0Z" style="fill:#d7ba8c;"/><path d="M25.807,245.0358l-3.5672,5.013h22.4946l-3.5672-5.013c-3.7582-5.2813-11.602-5.2813-15.3602,0Z" style="fill:#d7ba8c;"/><path d="M38.9369,245.0358l-3.5672,5.013h22.4946l-3.5672-5.013c-3.7582-5.2813-11.602-5.2813-15.3602,0Z" style="fill:#d7ba8c;"/><path d="M52.7066,245.3233l-4.207,4.7255h22.4946l-4.2071-4.7255c-3.749-4.211-10.3315-4.211-14.0805,0Z" style="fill:#d7ba8c;"/><path d="M65.1967,245.0358l-3.5672,5.013h22.4946l-3.5672-5.013c-3.7582-5.2813-11.6021-5.2813-15.3602,0Z" style="fill:#d7ba8c;"/></g><rect x="9.3224" y="250.0488" width="75.0142" height="3.2402" style="fill:#a48250;"/><rect x="45.4081" y="33.758" width="2" height="207.4171" style="fill:#6b4b2c;"/><g><path d="M59.7131,202.5861c-4.8269,4.8269-13.2786,4.2012-13.2786,4.2012,0,0-.6258-8.4517,4.2011-13.2786,.2011-.2011,.4085-.3928,.6214-.5754,5.8103-4.9858,14.0172,3.2211,9.0315,9.0315-.1827,.2128-.3743,.4202-.5754,.6213Z" style="fill:#84ba4d;"/><path d="M59.7131,202.5861c.2011-.2011,.3928-.4085,.5754-.6213,2.4929-2.9052,1.6875-6.4095-.4673-8.5643l-13.3867,13.3867s8.4517,.6258,13.2786-4.2011Z" style="fill:#e6e7e8; mix-blend-mode:multiply;"/></g><g><path d="M33.1559,209.3449c4.8269,4.8269,13.2786,4.2012,13.2786,4.2012,0,0,.6258-8.4517-4.2011-13.2786-.2011-.2011-.4085-.3928-.6214-.5754-5.8103-4.9858-14.0172,3.2211-9.0315,9.0315,.1827,.2128,.3743,.4202,.5754,.6213Z" style="fill:#84ba4d;"/><path d="M33.1559,209.3449c-.2011-.2011-.3928-.4085-.5754-.6213-2.4929-2.9052-1.6875-6.4095,.4673-8.5643l13.3867,13.3867s-8.4517,.6258-13.2786-4.2011Z" style="fill:#e6e7e8; mix-blend-mode:multiply;"/></g><rect x="43.4999" y="185.6156" width="20.2195" height="1.9998" transform="translate(-116.2552 92.5662) rotate(-45)" style="fill:#6b4b2c;"/><g><path d="M72.7599,176.4043c-4.8269,4.8269-13.2786,4.2011-13.2786,4.2011,0,0-.6258-8.4517,4.2011-13.2786,.2011-.2011,.4085-.3928,.6214-.5754,5.8103-4.9857,14.0172,3.2211,9.0315,9.0315-.1827,.2128-.3743,.4202-.5754,.6214Z" style="fill:#84ba4d;"/><path d="M72.7599,176.4043c.2011-.2011,.3928-.4086,.5754-.6214,2.4929-2.9052,1.6875-6.4095-.4673-8.5643l-13.3867,13.3868s8.4517,.6258,13.2786-4.2011Z" style="fill:#e6e7e8; mix-blend-mode:multiply;"/></g><rect x="37.2118" y="179.8006" width="1.9998" height="23.1826" transform="translate(-124.1422 83.0767) rotate(-44.9998)" style="fill:#6b4b2c;"/><g><path d="M27.3937,171.5779c4.8269,4.8269,4.2011,13.2786,4.2011,13.2786,0,0-8.4517,.6257-13.2786-4.2012-.2011-.2011-.3927-.4085-.5754-.6213-4.9857-5.8104,3.2212-14.0173,9.0315-9.0315,.2129,.1826,.4203,.3743,.6214,.5754Z" style="fill:#84ba4d;"/><path d="M27.3937,171.5779c-.2011-.2012-.4086-.3928-.6214-.5754-2.9051-2.4929-6.4094-1.6876-8.5642,.4672l13.3867,13.3867s.6258-8.4517-4.2011-13.2785Z" style="fill:#e6e7e8; mix-blend-mode:multiply;"/></g><rect x="34.2939" y="139.6397" width="1.9998" height="31.5108" transform="translate(-99.5426 70.4691) rotate(-44.9994)" style="fill:#6b4b2c;"/><rect x="20.3855" y="151.8254" width="12.3389" height="2" style="fill:#6b4b2c;"/><g><path d="M20.687,131.7209c4.8269,4.8269,4.2012,13.2786,4.2012,13.2786,0,0-8.4517,.6258-13.2786-4.2011-.2011-.2011-.3928-.4086-.5754-.6214-4.9858-5.8103,3.2211-14.0172,9.0315-9.0315,.2128,.1826,.4202,.3743,.6213,.5754Z" style="fill:#84ba4d;"/><path d="M20.6871,131.7209c-.2012-.2011-.4086-.3928-.6214-.5754-2.9052-2.4929-6.4095-1.6876-8.5643,.4672l13.3867,13.3868s.6258-8.4517-4.201-13.2786Z" style="fill:#e6e7e8; mix-blend-mode:multiply;"/></g><g><path d="M10.6997,146.4066c6.8263,0,12.36,6.4188,12.36,6.4188,0,0-5.5337,6.4187-12.36,6.4187-.2844,0-.5666-.0112-.8462-.0325-7.634-.5831-7.634-12.1894,0-12.7725,.2796-.0213,.5618-.0325,.8462-.0325Z" style="fill:#84ba4d;"/><path d="M10.6997,146.4066c-.2844,0-.5667,.0112-.8463,.0325-3.817,.2915-5.7254,3.3389-5.7254,6.3863H23.0596s-5.5338-6.4188-12.36-6.4188Z" style="fill:#e6e7e8; mix-blend-mode:multiply;"/></g><rect x="36.9184" y="55.7531" width="1.9998" height="24.0872" transform="translate(-36.8334 46.6692) rotate(-44.9998)" style="fill:#6b4b2c;"/><g><path d="M28.398,49.5271c4.8269,4.8269,4.2011,13.2786,4.2011,13.2786,0,0-8.4517,.6258-13.2786-4.2011-.2011-.2011-.3928-.4086-.5754-.6214-4.9857-5.8103,3.2211-14.0172,9.0315-9.0315,.2128,.1827,.4202,.3743,.6214,.5754Z" style="fill:#84ba4d;"/><path d="M28.398,49.5271c-.2011-.2011-.4086-.3928-.6214-.5754-2.9052-2.4929-6.4095-1.6876-8.5643,.4673l13.3868,13.3867s.6258-8.4517-4.2011-13.2786Z" style="fill:#e6e7e8; mix-blend-mode:multiply;"/></g><rect x="40.0956" y="166.6416" width="1.9998" height="15.026" transform="translate(-111.1093 80.0676) rotate(-45)" style="fill:#6b4b2c;"/><g><path d="M34.753,162.7745c2.8117,2.8116,2.4472,7.7347,2.4472,7.7347,0,0-4.9231,.3645-7.7347-2.4471-.1172-.1172-.2288-.238-.3352-.362-2.9042-3.3845,1.8763-8.1649,5.2608-5.2608,.124,.1064,.2448,.2181,.3619,.3352Z" style="fill:#84ba4d;"/><path d="M34.753,162.7745c-.1171-.1172-.238-.2288-.3619-.3352-1.6923-1.4521-3.7335-.983-4.9887,.2722l7.7977,7.7977s.3646-4.9231-2.4471-7.7347Z" style="fill:#e6e7e8; mix-blend-mode:multiply;"/></g><rect x="37.2118" y="93.7615" width="1.9998" height="23.1826" transform="translate(-63.3036 57.8766) rotate(-44.9998)" style="fill:#6b4b2c;"/><g><path d="M27.3937,85.5391c4.8269,4.8268,4.2011,13.2785,4.2011,13.2785,0,0-8.4517,.6258-13.2786-4.2011-.2011-.2011-.3927-.4085-.5754-.6214-4.9857-5.8103,3.2212-14.0172,9.0315-9.0314,.2129,.1826,.4203,.3742,.6214,.5754Z" style="fill:#84ba4d;"/><path d="M27.3937,85.539c-.2011-.2011-.4086-.3928-.6214-.5754-2.9051-2.4929-6.4094-1.6875-8.5642,.4673l13.3867,13.3867s.6258-8.4517-4.2011-13.2786Z" style="fill:#e6e7e8; mix-blend-mode:multiply;"/></g><rect x="40.0956" y="80.6029" width="1.9998" height="15.0257" transform="translate(-50.2714 54.8696) rotate(-45.0013)" style="fill:#6b4b2c;"/><g><path d="M34.753,76.7357c2.8117,2.8116,2.4472,7.7347,2.4472,7.7347,0,0-4.9231,.3645-7.7347-2.4471-.1172-.1172-.2288-.238-.3352-.362-2.9042-3.3845,1.8763-8.1649,5.2608-5.2608,.124,.1064,.2448,.218,.3619,.3352Z" style="fill:#84ba4d;"/><path d="M34.753,76.7357c-.1171-.1172-.238-.2288-.3619-.3352-1.6923-1.4521-3.7335-.983-4.9887,.2722l7.7977,7.7977s.3646-4.9231-2.4471-7.7347Z" style="fill:#e6e7e8; mix-blend-mode:multiply;"/></g><rect x="42.3823" y="162.0751" width="27.8493" height="1.9998" transform="translate(-98.8168 87.5731) rotate(-44.998)" style="fill:#6b4b2c;"/><g><path d="M72.6392,152.0727c-2.8117,2.8116-7.7347,2.4471-7.7347,2.4471,0,0-.3645-4.923,2.4471-7.7347,.1171-.1171,.238-.2288,.3619-.3352,3.3845-2.9041,8.165,1.8763,5.2608,5.2608-.1064,.124-.218,.2448-.3351,.362Z" style="fill:#84ba4d;"/><path d="M72.6392,152.0727c.1171-.1172,.2288-.238,.3351-.362,1.4521-1.6922,.983-3.7334-.2721-4.9886l-7.7977,7.7977s4.923,.3645,7.7347-2.4471Z" style="fill:#e6e7e8; mix-blend-mode:multiply;"/></g><rect x="56.8407" y="147.9124" width="2" height="13.6293" style="fill:#6b4b2c;"/><g><path d="M61.5794,141.8353c0,3.9763-3.7389,7.1997-3.7389,7.1997,0,0-3.7389-3.2234-3.7389-7.1997,0-.1657,.0065-.33,.019-.4929,.3396-4.4468,7.1002-4.4468,7.4399,0,.0124,.1629,.0189,.3272,.0189,.4929Z" style="fill:#84ba4d;"/><path d="M61.5794,141.8353c0-.1657-.0065-.3301-.0189-.4929-.1698-2.2234-1.9449-3.3351-3.72-3.3351v11.0276s3.7389-3.2233,3.7389-7.1996Z" style="fill:#e6e7e8; mix-blend-mode:multiply;"/></g><rect x="42.3823" y="106.9072" width="27.8492" height="1.9997" transform="translate(-59.8086 71.4162) rotate(-44.998)" style="fill:#6b4b2c;"/><rect x="53.6101" y="185.6155" width="14.7295" height="2" style="fill:#6b4b2c;"/><g><path d="M73.7831,190.3545c-3.9762,0-7.1996-3.7389-7.1996-3.7389,0,0,3.2234-3.7389,7.1996-3.7389,.1657,0,.3301,.0065,.493,.019,4.4467,.3396,4.4467,7.1002,0,7.4398-.1629,.0125-.3273,.019-.493,.019Z" style="fill:#84ba4d;"/><path d="M73.7831,190.3545c.1657,0,.3301-.0065,.493-.019,2.2234-.1698,3.335-1.9448,3.335-3.7199h-11.0276s3.2234,3.7389,7.1996,3.7389Z" style="fill:#e6e7e8; mix-blend-mode:multiply;"/></g><rect x="26.0325" y="189.429" width="10.8016" height="1.4667" style="fill:#6b4b2c;"/><g><path d="M22.0407,187.4204c2.9159,0,5.2797,2.7418,5.2797,2.7418,0,0-2.3638,2.7418-5.2797,2.7418-.1215,0-.2421-.0048-.3615-.0139-3.2609-.249-3.2609-5.2068,0-5.4558,.1195-.0092,.24-.0139,.3615-.0139Z" style="fill:#84ba4d;"/><path d="M22.0407,187.4204c-.1215,0-.2421,.0048-.3615,.0139-1.6305,.1245-2.4457,1.4262-2.4457,2.7279h8.0869s-2.3638-2.7418-5.2797-2.7418Z" style="fill:#e6e7e8; mix-blend-mode:multiply;"/></g><rect x="43.4999" y="54.2468" width="20.2195" height="1.9998" transform="translate(-23.3634 54.0892) rotate(-45)" style="fill:#6b4b2c;"/><g><path d="M72.7599,45.0356c-4.8269,4.8269-13.2786,4.2011-13.2786,4.2011,0,0-.6258-8.4517,4.2011-13.2786,.2011-.2011,.4085-.3928,.6214-.5754,5.8103-4.9857,14.0172,3.2211,9.0315,9.0315-.1827,.2128-.3743,.4202-.5754,.6214Z" style="fill:#84ba4d;"/><path d="M72.7599,45.0356c.2011-.2011,.3928-.4086,.5754-.6214,2.4929-2.9052,1.6875-6.4095-.4673-8.5643l-13.3867,13.3868s8.4517,.6258,13.2786-4.2011Z" style="fill:#e6e7e8; mix-blend-mode:multiply;"/></g><rect x="40.0956" y="43.7158" width="1.9998" height="15.026" transform="translate(-24.1876 44.0635) rotate(-45)" style="fill:#6b4b2c;"/><rect x="43.4997" y="75.1496" width="20.2199" height="1.9998" transform="translate(-38.1439 60.2114) rotate(-45)" style="fill:#6b4b2c;"/><g><path d="M72.7599,65.9381c-4.8269,4.8269-13.2786,4.2011-13.2786,4.2011,0,0-.6258-8.4517,4.2011-13.2786,.2011-.2011,.4085-.3927,.6214-.5754,5.8103-4.9857,14.0172,3.2212,9.0315,9.0315-.1827,.2128-.3743,.4203-.5754,.6214Z" style="fill:#84ba4d;"/><path d="M72.7599,65.9381c.2011-.2011,.3928-.4086,.5754-.6214,2.4929-2.9052,1.6875-6.4094-.4673-8.5643l-13.3867,13.3868s8.4517,.6258,13.2786-4.2011Z" style="fill:#e6e7e8; mix-blend-mode:multiply;"/></g><rect x="53.6101" y="75.1497" width="14.7295" height="2" style="fill:#6b4b2c;"/><rect x="59.4954" y="158.2441" width="14.7295" height="2" style="fill:#6b4b2c;"/><g><path d="M73.7831,79.8883c-3.9762,0-7.1996-3.7389-7.1996-3.7389,0,0,3.2234-3.7389,7.1996-3.7389,.1657,0,.3301,.0065,.493,.019,4.4467,.3396,4.4467,7.1002,0,7.4399-.1629,.0124-.3273,.0189-.493,.0189Z" style="fill:#84ba4d;"/><path d="M73.7831,79.8883c.1657,0,.3301-.0065,.493-.0189,2.2234-.1698,3.335-1.9449,3.335-3.72h-11.0276s3.2234,3.7389,7.1996,3.7389Z" style="fill:#e6e7e8; mix-blend-mode:multiply;"/></g><rect x="42.1105" y="136.4101" width="29.7054" height="1.9998" transform="translate(-80.4774 80.5206) rotate(-44.998)" style="fill:#6b4b2c;"/><g><path d="M77.6915,125.3837c-4.8269,4.8269-13.2786,4.2012-13.2786,4.2012,0,0-.6257-8.4517,4.2012-13.2786,.2011-.2011,.4085-.3928,.6213-.5754,5.8104-4.9858,14.0172,3.2211,9.0315,9.0315-.1826,.2128-.3743,.4202-.5754,.6213Z" style="fill:#84ba4d;"/><path d="M77.6915,125.3838c.2011-.2012,.3928-.4086,.5754-.6214,2.4929-2.9052,1.6876-6.4095-.4672-8.5643l-13.3867,13.3867s8.4517,.6258,13.2785-4.201Z" style="fill:#e6e7e8; mix-blend-mode:multiply;"/></g><g><path d="M77.659,162.4535c-3.4131,0-6.1801-3.2094-6.1801-3.2094,0,0,2.7669-3.2094,6.18-3.2094,.1422,0,.2833,.0056,.4231,.0163,3.817,.2916,3.817,6.0947,0,6.3863-.1398,.0107-.2809,.0162-.4231,.0162Z" style="fill:#84ba4d;"/><path d="M77.659,162.4535c.1422,0,.2833-.0056,.4231-.0163,1.9085-.1458,2.8628-1.6694,2.8628-3.1931h-9.4659s2.7669,3.2094,6.18,3.2094Z" style="fill:#e6e7e8; mix-blend-mode:multiply;"/></g><rect x="39.894" y="139.4495" width="1.9998" height="15.671" transform="translate(-92.1683 72.0545) rotate(-44.9997)" style="fill:#6b4b2c;"/><g><path d="M34.4716,135.771c2.8116,2.8116,2.4471,7.7347,2.4471,7.7347,0,0-4.923,.3645-7.7347-2.4472-.1171-.1171-.2287-.2379-.3351-.3619-2.9042-3.3845,1.8763-8.165,5.2608-5.2608,.1239,.1064,.2448,.218,.3619,.3352Z" style="fill:#84ba4d;"/><path d="M34.4716,135.771c-.1171-.1172-.238-.2288-.3619-.3352-1.6923-1.4521-3.7335-.983-4.9887,.2722l7.7977,7.7977s.3645-4.9231-2.4471-7.7347Z" style="fill:#e6e7e8; mix-blend-mode:multiply;"/></g><rect x="35.1845" y="109.2369" width="1.9998" height="29.0663" transform="translate(-76.9197 61.8363) rotate(-44.9993)" style="fill:#6b4b2c;"/><g><path d="M25.9394,108.1011c2.8117,2.8116,2.4472,7.7347,2.4472,7.7347,0,0-4.9231,.3645-7.7347-2.4472-.1172-.1171-.2288-.2379-.3352-.3619-2.9042-3.3845,1.8763-8.165,5.2608-5.2608,.124,.1064,.2448,.218,.3619,.3352Z" style="fill:#84ba4d;"/><path d="M25.9394,108.101c-.1171-.1171-.238-.2287-.3619-.3351-1.6923-1.4521-3.7335-.983-4.9887,.2721l7.7977,7.7977s.3646-4.923-2.4471-7.7347Z" style="fill:#e6e7e8; mix-blend-mode:multiply;"/></g><rect x="17.2039" y="122.7698" width="18.9804" height="2" style="fill:#6b4b2c;"/><rect x="57.992" y="120.1809" width="2" height="15.2002" style="fill:#6b4b2c;"/><g><path d="M62.7308,115.1799c0,3.9763-3.7388,7.1996-3.7388,7.1996,0,0-3.7389-3.2233-3.7389-7.1996,0-.1657,.0065-.33,.0189-.4929,.3397-4.4468,7.1002-4.4468,7.4399,0,.0124,.1629,.0189,.3272,.0189,.4929Z" style="fill:#84ba4d;"/><path d="M62.7308,115.1799c0-.1657-.0065-.3301-.0189-.4929-.1698-2.2234-1.9449-3.3351-3.7199-3.3351v11.0276s3.7388-3.2234,3.7388-7.1996Z" style="fill:#e6e7e8; mix-blend-mode:multiply;"/></g><rect x="36.119" y="94.6644" width="1.1772" height="8.9469" style="fill:#6b4b2c;"/><g><path d="M38.9083,91.7207c0,2.3405-2.2007,4.2377-2.2007,4.2377,0,0-2.2007-1.8973-2.2007-4.2377,0-.0975,.0038-.1942,.0111-.2901,.1999-2.6174,4.1792-2.6174,4.3792,0,.0073,.0959,.0111,.1926,.0111,.2901Z" style="fill:#84ba4d;"/><path d="M38.9083,91.7207c0-.0975-.0038-.1943-.0111-.2901-.0999-1.3087-1.1448-1.9631-2.1896-1.9631v6.4909s2.2007-1.8973,2.2007-4.2377Z" style="fill:#e6e7e8; mix-blend-mode:multiply;"/></g><rect x="44.3646" y="94.2355" width="14.3144" height="1.9998" transform="translate(-52.2501 64.3215) rotate(-44.998)" style="fill:#6b4b2c;"/><g><path d="M62.9333,89.1341c-2.8116,2.8116-7.7347,2.4471-7.7347,2.4471,0,0-.3645-4.923,2.4472-7.7347,.1171-.1171,.2379-.2287,.3619-.3351,3.3845-2.9042,8.165,1.8763,5.2608,5.2608-.1064,.1239-.218,.2448-.3352,.3619Z" style="fill:#84ba4d;"/><path d="M62.9333,89.1341c.1172-.1171,.2288-.238,.3352-.3619,1.4521-1.6923,.983-3.7335-.2722-4.9887l-7.7977,7.7977s4.9231,.3645,7.7347-2.4471Z" style="fill:#e6e7e8; mix-blend-mode:multiply;"/></g><g><path d="M46.7158,27.2159c9.6446-3.6373,8.9741,4.5033-.0353,.4285,9.0094,4.0748,3.3389,9.954-.2984,.3094,3.6373,9.6446-4.5033,8.9741-.4285-.0353-4.0748,9.0094-9.9539,3.3389-.3094-.2984-9.6445,3.6373-8.974-4.5033,.0353-.4285-9.0093-4.0748-3.3389-9.954,.2984-.3094-3.6373-9.6446,4.5033-8.974,.4285,.0353,4.0748-9.0093,9.954-3.3389,.3094,.2984Z" style="fill:#d84774;"/><path d="M47.3026,27.418c20.206,0,13.345,14.4676-.3611,.7615,13.7061,13.7061-.7615,20.5671-.7615,.3611,0,20.206-14.4675,13.345-.7614-.3611-13.7061,13.7061-20.5671-.7615-.3611-.7615-20.206,0-13.345-14.4675,.3611-.7614-13.7061-13.7061,.7614-20.5671,.7614-.3611,0-20.206,14.4676-13.345,.7615,.3611,13.7061-13.7061,20.5671,.7614,.3611,.7614Z" style="fill:#ff7d6c;"/><path d="M46.5302,27.418c6.3041,0,4.1635,4.5137-.1126,.2376,4.2761,4.2761-.2376,6.4166-.2376,.1126,0,6.304-4.5137,4.1635-.2375-.1126-4.2762,4.2761-6.4167-.2376-.1127-.2376-6.304,0-4.1635-4.5137,.1127-.2376-4.2762-4.2761,.2375-6.4166,.2375-.1126,0-6.304,4.5137-4.1635,.2376,.1126,4.2761-4.2761,6.4167,.2376,.1126,.2376Z" style="fill:#f1645b;"/><path d="M49.103,27.418c-.7179,0-1.4272,1.4958-.9402,1.9827-.487-.4869-1.9828,.2224-1.9828,.9403,0-.7179-1.4957-1.4272-1.9827-.9403,.487-.4869-.2224-1.9827-.9403-1.9827,.7179,0,1.4273-1.4957,.9403-1.9827,.487,.487,1.9827-.2224,1.9827-.9403,0,.7179,1.4958,1.4273,1.9828,.9403-.487,.487,.2223,1.9827,.9402,1.9827Z" style="fill:#d84774;"/><circle cx="45.7154" cy="27.0497" r=".2785" style="fill:#ff7d6c;"/><circle cx="44.8193" cy="28.735" r=".2785" style="fill:#ff7d6c;"/><circle cx="46.3852" cy="26.2928" r=".2785" style="fill:#ff7d6c;"/><circle cx="45.6889" cy="28.5243" r=".2785" style="fill:#ff7d6c;"/><circle cx="44.7213" cy="26.432" r=".2785" style="fill:#ff7d6c;"/><circle cx="47.442" cy="28.8028" r=".2785" style="fill:#ff7d6c;"/><path d="M47.8919,26.6248c0,.1539-.1247,.2785-.2785,.2785-.1539,0-.2785-.1246-.2785-.2785,0-.1538,.1246-.2784,.2785-.2784,.1538,0,.2785,.1246,.2785,.2784Z" style="fill:#ff7d6c;"/><circle cx="47.0441" cy="27.2788" r=".2785" style="fill:#ff7d6c;"/><circle cx="46.2459" cy="29.4027" r=".2785" style="fill:#ff7d6c;"/><circle cx="47.7206" cy="28.1173" r=".2785" style="fill:#ff7d6c;"/><circle cx="45.1854" cy="27.7745" r=".2785" style="fill:#ff7d6c;"/><path d="M45.9016,26.1535c0,.077-.0623,.1393-.1392,.1393s-.1393-.0623-.1393-.1393c0-.0769,.0624-.1392,.1393-.1392s.1392,.0623,.1392,.1392Z" style="fill:#ff7d6c;"/><path d="M45.5155,26.5177c0,.0769-.0623,.1393-.1392,.1393-.077,0-.1393-.0624-.1393-.1393s.0623-.1392,.1393-.1392c.0769,0,.1392,.0623,.1392,.1392Z" style="fill:#ff7d6c;"/><path d="M44.8193,27.0497c0,.0769-.0624,.1393-.1393,.1393s-.1392-.0624-.1392-.1393,.0623-.1392,.1392-.1392,.1393,.0623,.1393,.1392Z" style="fill:#ff7d6c;"/><path d="M44.3662,27.418c0,.0769-.0623,.1393-.1392,.1393s-.1393-.0624-.1393-.1393,.0624-.1392,.1393-.1392,.1392,.0623,.1392,.1392Z" style="fill:#ff7d6c;"/><path d="M46.0408,27.9138c0,.0769-.0624,.1392-.1393,.1392s-.1392-.0623-.1392-.1392,.0623-.1393,.1392-.1393,.1393,.0624,.1393,.1393Z" style="fill:#ff7d6c;"/><path d="M46.9048,28.6636c0,.0769-.0623,.1392-.1392,.1392s-.1393-.0623-.1393-.1392,.0624-.1393,.1393-.1393,.1392,.0624,.1392,.1393Z" style="fill:#ff7d6c;"/><path d="M46.5244,26.8641c0,.0769-.0624,.1392-.1393,.1392s-.1392-.0623-.1392-.1392,.0623-.1393,.1392-.1393,.1393,.0624,.1393,.1393Z" style="fill:#ff7d6c;"/><path d="M46.2459,25.4823c0,.0769-.0624,.1392-.1393,.1392s-.1392-.0623-.1392-.1392,.0623-.1392,.1392-.1392,.1393,.0623,.1393,.1392Z" style="fill:#ff7d6c;"/><path d="M47.8169,25.9322c0,.0769-.0624,.1392-.1393,.1392s-.1392-.0623-.1392-.1392,.0623-.1393,.1392-.1393,.1393,.0624,.1393,.1393Z" style="fill:#ff7d6c;"/><path d="M45.6547,25.6822c0,.077-.0623,.1393-.1392,.1393s-.1392-.0623-.1392-.1393c0-.0769,.0623-.1392,.1392-.1392s.1392,.0623,.1392,.1392Z" style="fill:#ff7d6c;"/><path d="M45.3247,27.2247c0,.0769-.0624,.1392-.1393,.1392s-.1392-.0623-.1392-.1392,.0623-.1393,.1392-.1393,.1393,.0624,.1393,.1393Z" style="fill:#ff7d6c;"/><path d="M48.0311,27.3282c0,.0769-.0623,.1393-.1392,.1393-.077,0-.1393-.0624-.1393-.1393s.0623-.1392,.1393-.1392c.0769,0,.1392,.0623,.1392,.1392Z" style="fill:#ff7d6c;"/><path d="M48.4811,27.4675c0,.0769-.0624,.1392-.1393,.1392s-.1392-.0623-.1392-.1392,.0623-.1393,.1392-.1393,.1393,.0624,.1393,.1393Z" style="fill:#ff7d6c;"/><path d="M47.2865,28.1923c0,.0769-.0624,.1392-.1393,.1392s-.1392-.0623-.1392-.1392,.0623-.1393,.1392-.1393,.1393,.0624,.1393,.1393Z" style="fill:#ff7d6c;"/><path d="M46.4402,27.418c0,.0769-.0623,.1393-.1392,.1393s-.1392-.0624-.1392-.1393,.0623-.1392,.1392-.1392,.1392,.0623,.1392,.1392Z" style="fill:#ff7d6c;"/><path d="M46.9421,25.7358c0,.0769-.0623,.1393-.1392,.1393s-.1393-.0624-.1393-.1393,.0624-.1392,.1393-.1392,.1392,.0623,.1392,.1392Z" style="fill:#ff7d6c;"/><path d="M45.5763,29.0135c0,.0769-.0623,.1392-.1393,.1392-.0769,0-.1392-.0623-.1392-.1392s.0623-.1393,.1392-.1393c.077,0,.1393,.0624,.1393,.1393Z" style="fill:#ff7d6c;"/><path d="M44.6193,27.9781c0,.0769-.0623,.1392-.1392,.1392s-.1393-.0623-.1393-.1392,.0624-.1393,.1393-.1393,.1392,.0624,.1392,.1393Z" style="fill:#ff7d6c;"/><path d="M46.8029,27.9138c0,.0769-.0624,.1392-.1393,.1392s-.1392-.0623-.1392-.1392,.0623-.1393,.1392-.1393,.1393,.0624,.1393,.1393Z" style="fill:#ff7d6c;"/><path d="M46.5244,28.3958c0,.0769-.0624,.1392-.1393,.1392s-.1392-.0623-.1392-.1392,.0623-.1392,.1392-.1392,.1393,.0623,.1393,.1392Z" style="fill:#ff7d6c;"/><path d="M45.139,25.9607c0,.0769-.0623,.1393-.1392,.1393s-.1393-.0624-.1393-.1393,.0624-.1392,.1393-.1392,.1392,.0623,.1392,.1392Z" style="fill:#ff7d6c;"/><path d="M47.1472,26.2928c0,.0769-.0623,.1392-.1392,.1392-.077,0-.1393-.0623-.1393-.1392s.0623-.1393,.1393-.1393c.0769,0,.1392,.0624,.1392,.1393Z" style="fill:#ff7d6c;"/></g><g><path d="M17.7397,125.9983c9.6446-3.6373,8.9741,4.5033-.0353,.4285,9.0094,4.0748,3.3389,9.954-.2984,.3094,3.6373,9.6446-4.5033,8.9741-.4285-.0353-4.0748,9.0094-9.9539,3.3389-.3094-.2984-9.6445,3.6373-8.974-4.5033,.0353-.4285-9.0093-4.0748-3.3389-9.954,.2984-.3094-3.6373-9.6446,4.5033-8.974,.4285,.0353,4.0748-9.0093,9.954-3.3389,.3094,.2984Z" style="fill:#d84774;"/><path d="M18.3265,126.2004c20.206,0,13.345,14.4676-.3611,.7615,13.7061,13.7061-.7615,20.5671-.7615,.3611,0,20.206-14.4675,13.345-.7614-.3611-13.7061,13.7061-20.5671-.7615-.3611-.7615-20.206,0-13.345-14.4675,.3611-.7614-13.7061-13.7061,.7614-20.5671,.7614-.3611,0-20.206,14.4676-13.345,.7615,.3611,13.7061-13.7061,20.5671,.7614,.3611,.7614Z" style="fill:#ff7d6c;"/><path d="M17.5541,126.2004c6.3041,0,4.1635,4.5137-.1126,.2376,4.2761,4.2761-.2376,6.4166-.2376,.1126,0,6.304-4.5137,4.1635-.2375-.1126-4.2762,4.2761-6.4167-.2376-.1127-.2376-6.304,0-4.1635-4.5137,.1127-.2376-4.2762-4.2761,.2375-6.4166,.2375-.1126,0-6.304,4.5137-4.1635,.2376,.1126,4.2761-4.2761,6.4167,.2376,.1126,.2376Z" style="fill:#f1645b;"/><path d="M20.1269,126.2004c-.7179,0-1.4272,1.4958-.9402,1.9827-.487-.4869-1.9828,.2224-1.9828,.9403,0-.7179-1.4957-1.4272-1.9827-.9403,.487-.4869-.2224-1.9827-.9403-1.9827,.7179,0,1.4273-1.4957,.9403-1.9827,.487,.487,1.9827-.2224,1.9827-.9403,0,.7179,1.4958,1.4273,1.9828,.9403-.487,.487,.2223,1.9827,.9402,1.9827Z" style="fill:#d84774;"/><circle cx="16.7393" cy="125.8321" r=".2785" style="fill:#ff7d6c;"/><circle cx="15.8432" cy="127.5174" r=".2785" style="fill:#ff7d6c;"/><circle cx="17.409" cy="125.0752" r=".2785" style="fill:#ff7d6c;"/><circle cx="16.7128" cy="127.3067" r=".2785" style="fill:#ff7d6c;"/><circle cx="15.7452" cy="125.2144" r=".2785" style="fill:#ff7d6c;"/><circle cx="18.4659" cy="127.5852" r=".2785" style="fill:#ff7d6c;"/><path d="M18.9158,125.4072c0,.1539-.1247,.2785-.2785,.2785-.1539,0-.2785-.1246-.2785-.2785,0-.1538,.1246-.2784,.2785-.2784,.1538,0,.2785,.1246,.2785,.2784Z" style="fill:#ff7d6c;"/><circle cx="18.068" cy="126.0612" r=".2785" style="fill:#ff7d6c;"/><circle cx="17.2698" cy="128.1851" r=".2785" style="fill:#ff7d6c;"/><circle cx="18.7444" cy="126.8997" r=".2785" style="fill:#ff7d6c;"/><circle cx="16.2093" cy="126.5569" r=".2785" style="fill:#ff7d6c;"/><path d="M16.9254,124.9359c0,.077-.0623,.1393-.1392,.1393s-.1393-.0623-.1393-.1393c0-.0769,.0624-.1392,.1393-.1392s.1392,.0623,.1392,.1392Z" style="fill:#ff7d6c;"/><path d="M16.5394,125.3001c0,.0769-.0623,.1393-.1392,.1393-.077,0-.1393-.0624-.1393-.1393s.0623-.1392,.1393-.1392c.0769,0,.1392,.0623,.1392,.1392Z" style="fill:#ff7d6c;"/><path d="M15.8432,125.8321c0,.0769-.0624,.1393-.1393,.1393s-.1392-.0624-.1392-.1393,.0623-.1392,.1392-.1392,.1393,.0623,.1393,.1392Z" style="fill:#ff7d6c;"/><path d="M15.3901,126.2004c0,.0769-.0623,.1393-.1392,.1393s-.1393-.0624-.1393-.1393,.0624-.1392,.1393-.1392,.1392,.0623,.1392,.1392Z" style="fill:#ff7d6c;"/><path d="M17.0647,126.6962c0,.0769-.0624,.1392-.1393,.1392s-.1392-.0623-.1392-.1392,.0623-.1393,.1392-.1393,.1393,.0624,.1393,.1393Z" style="fill:#ff7d6c;"/><path d="M17.9287,127.446c0,.0769-.0623,.1392-.1392,.1392s-.1393-.0623-.1393-.1392,.0624-.1393,.1393-.1393,.1392,.0624,.1392,.1393Z" style="fill:#ff7d6c;"/><path d="M17.5483,125.6465c0,.0769-.0624,.1392-.1393,.1392s-.1392-.0623-.1392-.1392,.0623-.1393,.1392-.1393,.1393,.0624,.1393,.1393Z" style="fill:#ff7d6c;"/><path d="M17.2698,124.2647c0,.0769-.0624,.1392-.1393,.1392s-.1392-.0623-.1392-.1392,.0623-.1392,.1392-.1392,.1393,.0623,.1393,.1392Z" style="fill:#ff7d6c;"/><path d="M18.8408,124.7146c0,.0769-.0624,.1392-.1393,.1392s-.1392-.0623-.1392-.1392,.0623-.1393,.1392-.1393,.1393,.0624,.1393,.1393Z" style="fill:#ff7d6c;"/><path d="M16.6786,124.4646c0,.077-.0623,.1393-.1392,.1393s-.1392-.0623-.1392-.1393c0-.0769,.0623-.1392,.1392-.1392s.1392,.0623,.1392,.1392Z" style="fill:#ff7d6c;"/><path d="M16.3486,126.0071c0,.0769-.0624,.1392-.1393,.1392s-.1392-.0623-.1392-.1392,.0623-.1393,.1392-.1393,.1393,.0624,.1393,.1393Z" style="fill:#ff7d6c;"/><path d="M19.055,126.1106c0,.0769-.0623,.1393-.1392,.1393-.077,0-.1393-.0624-.1393-.1393s.0623-.1392,.1393-.1392c.0769,0,.1392,.0623,.1392,.1392Z" style="fill:#ff7d6c;"/><path d="M19.5049,126.2499c0,.0769-.0624,.1392-.1393,.1392s-.1392-.0623-.1392-.1392,.0623-.1393,.1392-.1393,.1393,.0624,.1393,.1393Z" style="fill:#ff7d6c;"/><path d="M18.3104,126.9747c0,.0769-.0624,.1392-.1393,.1392s-.1392-.0623-.1392-.1392,.0623-.1393,.1392-.1393,.1393,.0624,.1393,.1393Z" style="fill:#ff7d6c;"/><path d="M17.4641,126.2004c0,.0769-.0623,.1393-.1392,.1393s-.1392-.0624-.1392-.1393,.0623-.1392,.1392-.1392,.1392,.0623,.1392,.1392Z" style="fill:#ff7d6c;"/><path d="M17.966,124.5182c0,.0769-.0623,.1393-.1392,.1393s-.1393-.0624-.1393-.1393,.0624-.1392,.1393-.1392,.1392,.0623,.1392,.1392Z" style="fill:#ff7d6c;"/><path d="M16.6001,127.7959c0,.0769-.0623,.1392-.1393,.1392-.0769,0-.1392-.0623-.1392-.1392s.0623-.1393,.1392-.1393c.077,0,.1393,.0624,.1393,.1393Z" style="fill:#ff7d6c;"/><path d="M15.6432,126.7605c0,.0769-.0623,.1392-.1392,.1392s-.1393-.0623-.1393-.1392,.0624-.1393,.1393-.1393,.1392,.0624,.1392,.1393Z" style="fill:#ff7d6c;"/><path d="M17.8268,126.6962c0,.0769-.0624,.1392-.1393,.1392s-.1392-.0623-.1392-.1392,.0623-.1393,.1392-.1393,.1393,.0624,.1393,.1393Z" style="fill:#ff7d6c;"/><path d="M17.5483,127.1782c0,.0769-.0624,.1392-.1393,.1392s-.1392-.0623-.1392-.1392,.0623-.1392,.1392-.1392,.1393,.0623,.1393,.1392Z" style="fill:#ff7d6c;"/><path d="M16.1629,124.7431c0,.0769-.0623,.1393-.1392,.1393s-.1393-.0624-.1393-.1393,.0624-.1392,.1393-.1392,.1392,.0623,.1392,.1392Z" style="fill:#ff7d6c;"/><path d="M18.1711,125.0752c0,.0769-.0623,.1392-.1392,.1392-.077,0-.1393-.0623-.1393-.1392s.0623-.1393,.1393-.1393c.0769,0,.1392,.0624,.1392,.1393Z" style="fill:#ff7d6c;"/></g><g><path d="M71.53,96.2474c9.6446-3.6373,8.9741,4.5033-.0353,.4285,9.0094,4.0748,3.3389,9.954-.2984,.3094,3.6373,9.6446-4.5033,8.9741-.4285-.0353-4.0748,9.0094-9.9539,3.3389-.3094-.2984-9.6445,3.6373-8.974-4.5033,.0353-.4285-9.0093-4.0748-3.3389-9.954,.2984-.3094-3.6373-9.6446,4.5033-8.974,.4285,.0353,4.0748-9.0093,9.954-3.3389,.3094,.2984Z" style="fill:#d84774;"/><path d="M72.1168,96.4495c20.206,0,13.345,14.4676-.3611,.7615,13.7061,13.7061-.7615,20.5671-.7615,.3611,0,20.206-14.4675,13.345-.7614-.3611-13.7061,13.7061-20.5671-.7615-.3611-.7615-20.206,0-13.345-14.4675,.3611-.7614-13.7061-13.7061,.7614-20.5671,.7614-.3611,0-20.206,14.4676-13.345,.7615,.3611,13.7061-13.7061,20.5671,.7614,.3611,.7614Z" style="fill:#ff7d6c;"/><path d="M71.3444,96.4495c6.3041,0,4.1635,4.5137-.1126,.2376,4.2761,4.2761-.2376,6.4166-.2376,.1126,0,6.304-4.5137,4.1635-.2375-.1126-4.2762,4.2761-6.4167-.2376-.1127-.2376-6.304,0-4.1635-4.5137,.1127-.2376-4.2762-4.2761,.2375-6.4166,.2375-.1126,0-6.304,4.5137-4.1635,.2376,.1126,4.2761-4.2761,6.4167,.2376,.1126,.2376Z" style="fill:#f1645b;"/><path d="M73.9172,96.4495c-.7179,0-1.4272,1.4958-.9402,1.9827-.487-.4869-1.9828,.2224-1.9828,.9403,0-.7179-1.4957-1.4272-1.9827-.9403,.487-.4869-.2224-1.9827-.9403-1.9827,.7179,0,1.4273-1.4957,.9403-1.9827,.487,.487,1.9827-.2224,1.9827-.9403,0,.7179,1.4958,1.4273,1.9828,.9403-.487,.487,.2223,1.9827,.9402,1.9827Z" style="fill:#d84774;"/><circle cx="70.5296" cy="96.0812" r=".2785" style="fill:#ff7d6c;"/><circle cx="69.6335" cy="97.7665" r=".2785" style="fill:#ff7d6c;"/><circle cx="71.1993" cy="95.3243" r=".2785" style="fill:#ff7d6c;"/><circle cx="70.5031" cy="97.5558" r=".2785" style="fill:#ff7d6c;"/><circle cx="69.5355" cy="95.4635" r=".2785" style="fill:#ff7d6c;"/><circle cx="72.2562" cy="97.8343" r=".2785" style="fill:#ff7d6c;"/><path d="M72.7061,95.6563c0,.1539-.1247,.2785-.2785,.2785-.1539,0-.2785-.1246-.2785-.2785,0-.1538,.1246-.2784,.2785-.2784,.1538,0,.2785,.1246,.2785,.2784Z" style="fill:#ff7d6c;"/><circle cx="71.8583" cy="96.3103" r=".2785" style="fill:#ff7d6c;"/><circle cx="71.0601" cy="98.4342" r=".2785" style="fill:#ff7d6c;"/><circle cx="72.5347" cy="97.1488" r=".2785" style="fill:#ff7d6c;"/><circle cx="69.9996" cy="96.806" r=".2785" style="fill:#ff7d6c;"/><path d="M70.7157,95.185c0,.077-.0623,.1393-.1392,.1393s-.1393-.0623-.1393-.1393c0-.0769,.0624-.1392,.1393-.1392s.1392,.0623,.1392,.1392Z" style="fill:#ff7d6c;"/><path d="M70.3297,95.5492c0,.0769-.0623,.1393-.1392,.1393-.077,0-.1393-.0624-.1393-.1393s.0623-.1392,.1393-.1392c.0769,0,.1392,.0623,.1392,.1392Z" style="fill:#ff7d6c;"/><path d="M69.6335,96.0812c0,.0769-.0624,.1393-.1393,.1393s-.1392-.0624-.1392-.1393,.0623-.1392,.1392-.1392,.1393,.0623,.1393,.1392Z" style="fill:#ff7d6c;"/><path d="M69.1804,96.4495c0,.0769-.0623,.1393-.1392,.1393s-.1393-.0624-.1393-.1393,.0624-.1392,.1393-.1392,.1392,.0623,.1392,.1392Z" style="fill:#ff7d6c;"/><path d="M70.855,96.9453c0,.0769-.0624,.1392-.1393,.1392s-.1392-.0623-.1392-.1392,.0623-.1393,.1392-.1393,.1393,.0624,.1393,.1393Z" style="fill:#ff7d6c;"/><path d="M71.719,97.6951c0,.0769-.0623,.1392-.1392,.1392s-.1393-.0623-.1393-.1392,.0624-.1393,.1393-.1393,.1392,.0624,.1392,.1393Z" style="fill:#ff7d6c;"/><path d="M71.3386,95.8956c0,.0769-.0624,.1392-.1393,.1392s-.1392-.0623-.1392-.1392,.0623-.1393,.1392-.1393,.1393,.0624,.1393,.1393Z" style="fill:#ff7d6c;"/><path d="M71.0601,94.5138c0,.0769-.0624,.1392-.1393,.1392s-.1392-.0623-.1392-.1392,.0623-.1392,.1392-.1392,.1393,.0623,.1393,.1392Z" style="fill:#ff7d6c;"/><path d="M72.6311,94.9637c0,.0769-.0624,.1392-.1393,.1392s-.1392-.0623-.1392-.1392,.0623-.1393,.1392-.1393,.1393,.0624,.1393,.1393Z" style="fill:#ff7d6c;"/><path d="M70.4689,94.7137c0,.077-.0623,.1393-.1392,.1393s-.1392-.0623-.1392-.1393c0-.0769,.0623-.1392,.1392-.1392s.1392,.0623,.1392,.1392Z" style="fill:#ff7d6c;"/><path d="M70.1389,96.2562c0,.0769-.0624,.1392-.1393,.1392s-.1392-.0623-.1392-.1392,.0623-.1393,.1392-.1393,.1393,.0624,.1393,.1393Z" style="fill:#ff7d6c;"/><path d="M72.8453,96.3597c0,.0769-.0623,.1393-.1392,.1393-.077,0-.1393-.0624-.1393-.1393s.0623-.1392,.1393-.1392c.0769,0,.1392,.0623,.1392,.1392Z" style="fill:#ff7d6c;"/><path d="M73.2952,96.499c0,.0769-.0624,.1392-.1393,.1392s-.1392-.0623-.1392-.1392,.0623-.1393,.1392-.1393,.1393,.0624,.1393,.1393Z" style="fill:#ff7d6c;"/><path d="M72.1007,97.2238c0,.0769-.0624,.1392-.1393,.1392s-.1392-.0623-.1392-.1392,.0623-.1393,.1392-.1393,.1393,.0624,.1393,.1393Z" style="fill:#ff7d6c;"/><path d="M71.2544,96.4495c0,.0769-.0623,.1393-.1392,.1393s-.1392-.0624-.1392-.1393,.0623-.1392,.1392-.1392,.1392,.0623,.1392,.1392Z" style="fill:#ff7d6c;"/><path d="M71.7563,94.7673c0,.0769-.0623,.1393-.1392,.1393s-.1393-.0624-.1393-.1393,.0624-.1392,.1393-.1392,.1392,.0623,.1392,.1392Z" style="fill:#ff7d6c;"/><path d="M70.3904,98.045c0,.0769-.0623,.1392-.1393,.1392-.0769,0-.1392-.0623-.1392-.1392s.0623-.1393,.1392-.1393c.077,0,.1393,.0624,.1393,.1393Z" style="fill:#ff7d6c;"/><path d="M69.4335,97.0096c0,.0769-.0623,.1392-.1392,.1392s-.1393-.0623-.1393-.1392,.0624-.1393,.1393-.1393,.1392,.0624,.1392,.1393Z" style="fill:#ff7d6c;"/><path d="M71.6171,96.9453c0,.0769-.0624,.1392-.1393,.1392s-.1392-.0623-.1392-.1392,.0623-.1393,.1392-.1393,.1393,.0624,.1393,.1393Z" style="fill:#ff7d6c;"/><path d="M71.3386,97.4273c0,.0769-.0624,.1392-.1393,.1392s-.1392-.0623-.1392-.1392,.0623-.1392,.1392-.1392,.1393,.0623,.1393,.1392Z" style="fill:#ff7d6c;"/><path d="M69.9532,94.9922c0,.0769-.0623,.1393-.1392,.1393s-.1393-.0624-.1393-.1393,.0624-.1392,.1393-.1392,.1392,.0623,.1392,.1392Z" style="fill:#ff7d6c;"/><path d="M71.9614,95.3243c0,.0769-.0623,.1392-.1392,.1392-.077,0-.1393-.0623-.1393-.1392s.0623-.1393,.1393-.1393c.0769,0,.1392,.0624,.1392,.1393Z" style="fill:#ff7d6c;"/></g><path d="M35.6969,39.0088c3.6294,3.6294,1.0107,7.8361,1.0107,7.8361,0,0-4.2067,2.6188-7.8362-1.0106-.1513-.1513-.2954-.3072-.4326-.4673-1.8745-2.1845-1.797-8.5879-1.797-8.5879,0,0,6.4033-.0774,8.5879,1.797,.1599,.1373,.3159,.2814,.4672,.4327Z" style="fill:#ff7d6c;"/><g><path d="M36.385,43.9352c1.326,1.326,.3693,2.8629,.3693,2.8629,0,0-1.5369,.9568-2.8629-.3693-.0552-.0552-.1078-.1122-.158-.1708-.6848-.798-.6565-3.1375-.6565-3.1375,0,0,2.3395-.0283,3.1376,.6565,.0585,.0502,.1155,.1029,.1707,.1581Z" style="fill:#7dad45;"/><path d="M38.2227,44.6577c-.201,1.8644-1.4684,2.1404-1.4684,2.1404,0,0-1.1795-.5398-.9784-2.4042,.0083-.0776,.0188-.1546,.0311-.2305,.168-1.0365,1.5048-2.536,1.5048-2.536,0,0,.9865,1.75,.9296,2.7985-.0042,.0769-.0103,.1541-.0187,.2319Z" style="fill:#84ba4d;"/><path d="M34.5671,48.3133c1.8644-.201,2.1405-1.4684,2.1405-1.4684,0,0-.5398-1.1795-2.4042-.9784-.0777,.0084-.1546,.0188-.2305,.0311-1.0365,.168-2.536,1.5048-2.536,1.5048,0,0,1.75,.9865,2.7985,.9296,.0769-.0042,.1541-.0103,.2318-.0187Z" style="fill:#84ba4d;"/></g></g></g></g></svg>