<?xml version="1.0" encoding="UTF-8"?><svg xmlns="http://www.w3.org/2000/svg" viewBox="0 0 90 270.4615"><g style="isolation:isolate;"><g id="a"><g><rect x="45.6015" y="216.0012" width="2" height="25.1738" style="fill:#6b4b2c;"/><g><path d="M15.9417,244.6463l-6.8472,5.4025H31.5892l-6.8472-5.4025c-2.5802-2.0358-6.2201-2.0358-8.8003,0Z" style="fill:#d7ba8c;"/><path d="M25.7916,245.0358l-3.5672,5.013h22.4947l-3.5673-5.013c-3.7581-5.2813-11.602-5.2813-15.3602,0Z" style="fill:#d7ba8c;"/><path d="M38.9215,245.0358l-3.5672,5.013h22.4947l-3.5673-5.013c-3.7581-5.2813-11.602-5.2813-15.3602,0Z" style="fill:#d7ba8c;"/><path d="M52.6912,245.3233l-4.2071,4.7255h22.4947l-4.2071-4.7255c-3.749-4.211-10.3315-4.211-14.0805,0Z" style="fill:#d7ba8c;"/><path d="M65.1812,245.0358l-3.5672,5.013h22.4947l-3.5673-5.013c-3.7581-5.2813-11.602-5.2813-15.3602,0Z" style="fill:#d7ba8c;"/></g><g><path d="M59.9066,212.7084c-4.8268,4.8269-13.2785,4.2012-13.2785,4.2012,0,0-.6258-8.4517,4.2011-13.2786,.2011-.2011,.4085-.3928,.6214-.5754,5.8103-4.9858,14.0172,3.2211,9.0314,9.0315-.1826,.2128-.3742,.4202-.5754,.6213Z" style="fill:#84ba4d;"/><path d="M59.9067,212.7084c.2011-.2011,.3927-.4085,.5754-.6213,2.4929-2.9052,1.6875-6.4095-.4673-8.5643l-13.3867,13.3867s8.4517,.6258,13.2786-4.2011Z" style="fill:#e6e7e8; mix-blend-mode:multiply;"/></g><g><path d="M33.3496,212.7084c4.8269,4.8269,13.2786,4.2012,13.2786,4.2012,0,0,.6258-8.4517-4.2011-13.2786-.2011-.2011-.4086-.3928-.6214-.5754-5.8103-4.9858-14.0172,3.2211-9.0315,9.0315,.1826,.2128,.3743,.4202,.5754,.6213Z" style="fill:#84ba4d;"/><path d="M33.3496,212.7084c-.2011-.2011-.3928-.4085-.5754-.6213-2.4929-2.9052-1.6876-6.4095,.4672-8.5643l13.3868,13.3867s-8.4517,.6258-13.2786-4.2011Z" style="fill:#e6e7e8; mix-blend-mode:multiply;"/></g><rect x="9.0945" y="250.0488" width="75.0143" height="3.2402" style="fill:#a48250;"/></g></g></g></svg>