<?xml version="1.0" encoding="UTF-8"?><svg xmlns="http://www.w3.org/2000/svg" viewBox="0 0 90 270.4615"><g style="isolation:isolate;"><g id="a"><g><g><path d="M16.0241,244.6463l-6.8472,5.4025H31.6715l-6.8471-5.4025c-2.5803-2.0358-6.2201-2.0358-8.8003,0Z" style="fill:#d7ba8c;"/><path d="M25.874,245.0358l-3.5672,5.013h22.4946l-3.5672-5.013c-3.7582-5.2813-11.602-5.2813-15.3602,0Z" style="fill:#d7ba8c;"/><path d="M39.0039,245.0358l-3.5672,5.013h22.4946l-3.5672-5.013c-3.7582-5.2813-11.602-5.2813-15.3602,0Z" style="fill:#d7ba8c;"/><path d="M52.7736,245.3233l-4.207,4.7255h22.4946l-4.2071-4.7255c-3.749-4.211-10.3315-4.211-14.0805,0Z" style="fill:#d7ba8c;"/><path d="M65.2637,245.0358l-3.5672,5.013h22.4946l-3.5672-5.013c-3.7582-5.2813-11.6021-5.2813-15.3602,0Z" style="fill:#d7ba8c;"/></g><rect x="9.3894" y="250.0488" width="75.0142" height="3.2402" style="fill:#a48250;"/><rect x="45.475" y="47.7727" width="2" height="193.4023" style="fill:#6b4b2c;"/><g><path d="M59.7801,212.7084c-4.8269,4.8269-13.2786,4.2012-13.2786,4.2012,0,0-.6258-8.4517,4.2011-13.2786,.2011-.2011,.4085-.3928,.6214-.5754,5.8103-4.9858,14.0172,3.2211,9.0315,9.0315-.1827,.2128-.3743,.4202-.5754,.6213Z" style="fill:#84ba4d;"/><path d="M59.7801,212.7084c.2011-.2011,.3928-.4085,.5754-.6213,2.4929-2.9052,1.6875-6.4095-.4673-8.5643l-13.3867,13.3867s8.4517,.6258,13.2786-4.2011Z" style="fill:#e6e7e8; mix-blend-mode:multiply;"/></g><g><path d="M33.2229,212.7084c4.8269,4.8269,13.2786,4.2012,13.2786,4.2012,0,0,.6258-8.4517-4.2011-13.2786-.2011-.2011-.4085-.3928-.6214-.5754-5.8103-4.9858-14.0172,3.2211-9.0315,9.0315,.1827,.2128,.3743,.4202,.5754,.6213Z" style="fill:#84ba4d;"/><path d="M33.2229,212.7084c-.2011-.2011-.3928-.4085-.5754-.6213-2.4929-2.9052-1.6875-6.4095,.4673-8.5643l13.3867,13.3867s-8.4517,.6258-13.2786-4.2011Z" style="fill:#e6e7e8; mix-blend-mode:multiply;"/></g><rect x="43.5669" y="185.6156" width="20.2195" height="1.9998" transform="translate(-116.2356 92.6136) rotate(-45)" style="fill:#6b4b2c;"/><g><path d="M72.8269,176.4043c-4.8269,4.8269-13.2786,4.2011-13.2786,4.2011,0,0-.6258-8.4517,4.2011-13.2786,.2011-.2011,.4085-.3928,.6214-.5754,5.8103-4.9857,14.0172,3.2211,9.0315,9.0315-.1827,.2128-.3743,.4202-.5754,.6214Z" style="fill:#84ba4d;"/><path d="M72.8269,176.4043c.2011-.2011,.3928-.4086,.5754-.6214,2.4929-2.9052,1.6875-6.4095-.4673-8.5643l-13.3867,13.3868s8.4517,.6258,13.2786-4.2011Z" style="fill:#e6e7e8; mix-blend-mode:multiply;"/></g><rect x="37.2788" y="179.8006" width="1.9998" height="23.1826" transform="translate(-124.1226 83.124) rotate(-44.9998)" style="fill:#6b4b2c;"/><g><path d="M27.4607,171.5779c4.8269,4.8269,4.2011,13.2786,4.2011,13.2786,0,0-8.4517,.6257-13.2786-4.2012-.2011-.2011-.3927-.4085-.5754-.6213-4.9857-5.8104,3.2212-14.0173,9.0315-9.0315,.2129,.1826,.4203,.3743,.6214,.5754Z" style="fill:#84ba4d;"/><path d="M27.4607,171.5779c-.2011-.2012-.4086-.3928-.6214-.5754-2.9051-2.4929-6.4094-1.6876-8.5642,.4672l13.3867,13.3867s.6258-8.4517-4.2011-13.2785Z" style="fill:#e6e7e8; mix-blend-mode:multiply;"/></g><rect x="34.3609" y="139.6397" width="1.9998" height="31.5108" transform="translate(-99.523 70.5165) rotate(-44.9994)" style="fill:#6b4b2c;"/><rect x="20.4525" y="151.8254" width="12.3389" height="2" style="fill:#6b4b2c;"/><g><path d="M20.754,131.7209c4.8269,4.8269,4.2012,13.2786,4.2012,13.2786,0,0-8.4517,.6258-13.2786-4.2011-.2011-.2011-.3928-.4086-.5754-.6214-4.9858-5.8103,3.2211-14.0172,9.0315-9.0315,.2128,.1826,.4202,.3743,.6213,.5754Z" style="fill:#84ba4d;"/><path d="M20.7541,131.7209c-.2012-.2011-.4086-.3928-.6214-.5754-2.9052-2.4929-6.4095-1.6876-8.5643,.4672l13.3867,13.3868s.6258-8.4517-4.201-13.2786Z" style="fill:#e6e7e8; mix-blend-mode:multiply;"/></g><g><path d="M10.7666,146.4066c6.8263,0,12.36,6.4188,12.36,6.4188,0,0-5.5337,6.4187-12.36,6.4187-.2844,0-.5666-.0112-.8462-.0325-7.634-.5831-7.634-12.1894,0-12.7725,.2796-.0213,.5618-.0325,.8462-.0325Z" style="fill:#84ba4d;"/><path d="M10.7666,146.4066c-.2844,0-.5667,.0112-.8463,.0325-3.817,.2915-5.7254,3.3389-5.7254,6.3863H23.1266s-5.5338-6.4188-12.36-6.4188Z" style="fill:#e6e7e8; mix-blend-mode:multiply;"/></g><rect x="36.9854" y="55.7531" width="1.9998" height="24.0872" transform="translate(-36.8138 46.7166) rotate(-44.9998)" style="fill:#6b4b2c;"/><g><path d="M28.465,49.5271c4.8269,4.8269,4.2011,13.2786,4.2011,13.2786,0,0-8.4517,.6258-13.2786-4.2011-.2011-.2011-.3928-.4086-.5754-.6214-4.9857-5.8103,3.2211-14.0172,9.0315-9.0315,.2128,.1827,.4202,.3743,.6214,.5754Z" style="fill:#84ba4d;"/><path d="M28.465,49.5271c-.2011-.2011-.4086-.3928-.6214-.5754-2.9052-2.4929-6.4095-1.6876-8.5643,.4673l13.3868,13.3867s.6258-8.4517-4.2011-13.2786Z" style="fill:#e6e7e8; mix-blend-mode:multiply;"/></g><rect x="40.1626" y="166.6416" width="1.9998" height="15.026" transform="translate(-111.0897 80.115) rotate(-45)" style="fill:#6b4b2c;"/><g><path d="M34.82,162.7745c2.8117,2.8116,2.4472,7.7347,2.4472,7.7347,0,0-4.9231,.3645-7.7347-2.4471-.1172-.1172-.2288-.238-.3352-.362-2.9042-3.3845,1.8763-8.1649,5.2608-5.2608,.124,.1064,.2448,.2181,.3619,.3352Z" style="fill:#84ba4d;"/><path d="M34.82,162.7745c-.1171-.1172-.238-.2288-.3619-.3352-1.6923-1.4521-3.7335-.983-4.9887,.2722l7.7977,7.7977s.3646-4.9231-2.4471-7.7347Z" style="fill:#e6e7e8; mix-blend-mode:multiply;"/></g><rect x="37.2788" y="93.7615" width="1.9998" height="23.1826" transform="translate(-63.284 57.924) rotate(-44.9998)" style="fill:#6b4b2c;"/><g><path d="M27.4607,85.5391c4.8269,4.8268,4.2011,13.2785,4.2011,13.2785,0,0-8.4517,.6258-13.2786-4.2011-.2011-.2011-.3927-.4085-.5754-.6214-4.9857-5.8103,3.2212-14.0172,9.0315-9.0314,.2129,.1826,.4203,.3742,.6214,.5754Z" style="fill:#84ba4d;"/><path d="M27.4607,85.539c-.2011-.2011-.4086-.3928-.6214-.5754-2.9051-2.4929-6.4094-1.6875-8.5642,.4673l13.3867,13.3867s.6258-8.4517-4.2011-13.2786Z" style="fill:#e6e7e8; mix-blend-mode:multiply;"/></g><rect x="40.1626" y="80.6029" width="1.9998" height="15.0257" transform="translate(-50.2518 54.9169) rotate(-45.0013)" style="fill:#6b4b2c;"/><g><path d="M34.82,76.7357c2.8117,2.8116,2.4472,7.7347,2.4472,7.7347,0,0-4.9231,.3645-7.7347-2.4471-.1172-.1172-.2288-.238-.3352-.362-2.9042-3.3845,1.8763-8.1649,5.2608-5.2608,.124,.1064,.2448,.218,.3619,.3352Z" style="fill:#84ba4d;"/><path d="M34.82,76.7357c-.1171-.1172-.238-.2288-.3619-.3352-1.6923-1.4521-3.7335-.983-4.9887,.2722l7.7977,7.7977s.3646-4.9231-2.4471-7.7347Z" style="fill:#e6e7e8; mix-blend-mode:multiply;"/></g><rect x="42.4493" y="162.0751" width="27.8493" height="1.9998" transform="translate(-98.7972 87.6205) rotate(-44.998)" style="fill:#6b4b2c;"/><g><path d="M72.7062,152.0727c-2.8117,2.8116-7.7347,2.4471-7.7347,2.4471,0,0-.3645-4.923,2.4471-7.7347,.1171-.1171,.238-.2288,.3619-.3352,3.3845-2.9041,8.165,1.8763,5.2608,5.2608-.1064,.124-.218,.2448-.3351,.362Z" style="fill:#84ba4d;"/><path d="M72.7062,152.0727c.1171-.1172,.2288-.238,.3351-.362,1.4521-1.6922,.983-3.7334-.2721-4.9886l-7.7977,7.7977s4.923,.3645,7.7347-2.4471Z" style="fill:#e6e7e8; mix-blend-mode:multiply;"/></g><rect x="56.9076" y="147.9124" width="2" height="13.6293" style="fill:#6b4b2c;"/><g><path d="M61.6464,141.8353c0,3.9763-3.7389,7.1997-3.7389,7.1997,0,0-3.7389-3.2234-3.7389-7.1997,0-.1657,.0065-.33,.019-.4929,.3396-4.4468,7.1002-4.4468,7.4399,0,.0124,.1629,.0189,.3272,.0189,.4929Z" style="fill:#84ba4d;"/><path d="M61.6464,141.8353c0-.1657-.0065-.3301-.0189-.4929-.1698-2.2234-1.9449-3.3351-3.72-3.3351v11.0276s3.7389-3.2233,3.7389-7.1996Z" style="fill:#e6e7e8; mix-blend-mode:multiply;"/></g><rect x="42.4493" y="106.9072" width="27.8492" height="1.9997" transform="translate(-59.789 71.4635) rotate(-44.998)" style="fill:#6b4b2c;"/><rect x="53.6771" y="185.6155" width="14.7295" height="2" style="fill:#6b4b2c;"/><g><path d="M73.85,190.3545c-3.9762,0-7.1996-3.7389-7.1996-3.7389,0,0,3.2234-3.7389,7.1996-3.7389,.1657,0,.3301,.0065,.493,.019,4.4467,.3396,4.4467,7.1002,0,7.4398-.1629,.0125-.3273,.019-.493,.019Z" style="fill:#84ba4d;"/><path d="M73.85,190.3545c.1657,0,.3301-.0065,.493-.019,2.2234-.1698,3.335-1.9448,3.335-3.7199h-11.0276s3.2234,3.7389,7.1996,3.7389Z" style="fill:#e6e7e8; mix-blend-mode:multiply;"/></g><rect x="43.5667" y="75.1496" width="20.2199" height="1.9998" transform="translate(-38.1243 60.2588) rotate(-45)" style="fill:#6b4b2c;"/><g><path d="M72.8269,65.9381c-4.8269,4.8269-13.2786,4.2011-13.2786,4.2011,0,0-.6258-8.4517,4.2011-13.2786,.2011-.2011,.4085-.3927,.6214-.5754,5.8103-4.9857,14.0172,3.2212,9.0315,9.0315-.1827,.2128-.3743,.4203-.5754,.6214Z" style="fill:#84ba4d;"/><path d="M72.8269,65.9381c.2011-.2011,.3928-.4086,.5754-.6214,2.4929-2.9052,1.6875-6.4094-.4673-8.5643l-13.3867,13.3868s8.4517,.6258,13.2786-4.2011Z" style="fill:#e6e7e8; mix-blend-mode:multiply;"/></g><rect x="53.6771" y="75.1497" width="14.7295" height="2" style="fill:#6b4b2c;"/><g><path d="M73.85,79.8883c-3.9762,0-7.1996-3.7389-7.1996-3.7389,0,0,3.2234-3.7389,7.1996-3.7389,.1657,0,.3301,.0065,.493,.019,4.4467,.3396,4.4467,7.1002,0,7.4399-.1629,.0124-.3273,.0189-.493,.0189Z" style="fill:#84ba4d;"/><path d="M73.85,79.8883c.1657,0,.3301-.0065,.493-.0189,2.2234-.1698,3.335-1.9449,3.335-3.72h-11.0276s3.2234,3.7389,7.1996,3.7389Z" style="fill:#e6e7e8; mix-blend-mode:multiply;"/></g><rect x="42.1775" y="136.4101" width="29.7054" height="1.9998" transform="translate(-80.4577 80.568) rotate(-44.998)" style="fill:#6b4b2c;"/><g><path d="M77.7584,125.3837c-4.8269,4.8269-13.2786,4.2012-13.2786,4.2012,0,0-.6257-8.4517,4.2012-13.2786,.2011-.2011,.4085-.3928,.6213-.5754,5.8104-4.9858,14.0172,3.2211,9.0315,9.0315-.1826,.2128-.3743,.4202-.5754,.6213Z" style="fill:#84ba4d;"/><path d="M77.7584,125.3838c.2011-.2012,.3928-.4086,.5754-.6214,2.4929-2.9052,1.6876-6.4095-.4672-8.5643l-13.3867,13.3867s8.4517,.6258,13.2785-4.201Z" style="fill:#e6e7e8; mix-blend-mode:multiply;"/></g><g><path d="M77.7584,95.3312c-4.8269,4.8269-13.2786,4.2012-13.2786,4.2012,0,0-.6257-8.4517,4.2011-13.2786,.2012-.2011,.4086-.3928,.6214-.5754,5.8104-4.9857,14.0172,3.2211,9.0315,9.0315-.1826,.2128-.3743,.4202-.5754,.6213Z" style="fill:#84ba4d;"/><path d="M77.7584,95.3313c.2011-.2012,.3928-.4086,.5754-.6214,2.4929-2.9052,1.6876-6.4095-.4672-8.5643l-13.3868,13.3867s8.4517,.6258,13.2786-4.201Z" style="fill:#e6e7e8; mix-blend-mode:multiply;"/></g><rect x="39.961" y="139.4495" width="1.9998" height="15.671" transform="translate(-92.1487 72.1019) rotate(-44.9997)" style="fill:#6b4b2c;"/><g><path d="M34.5385,135.771c2.8116,2.8116,2.4471,7.7347,2.4471,7.7347,0,0-4.923,.3645-7.7347-2.4472-.1171-.1171-.2287-.2379-.3351-.3619-2.9042-3.3845,1.8763-8.165,5.2608-5.2608,.1239,.1064,.2448,.218,.3619,.3352Z" style="fill:#84ba4d;"/><path d="M34.5385,135.771c-.1171-.1172-.238-.2288-.3619-.3352-1.6923-1.4521-3.7335-.983-4.9887,.2722l7.7977,7.7977s.3645-4.9231-2.4471-7.7347Z" style="fill:#e6e7e8; mix-blend-mode:multiply;"/></g><rect x="35.2515" y="109.2369" width="1.9998" height="29.0663" transform="translate(-76.9001 61.8836) rotate(-44.9993)" style="fill:#6b4b2c;"/><g><path d="M26.0064,108.1011c2.8117,2.8116,2.4472,7.7347,2.4472,7.7347,0,0-4.9231,.3645-7.7347-2.4472-.1172-.1171-.2288-.2379-.3352-.3619-2.9042-3.3845,1.8763-8.165,5.2608-5.2608,.124,.1064,.2448,.218,.3619,.3352Z" style="fill:#84ba4d;"/><path d="M26.0064,108.101c-.1171-.1171-.238-.2287-.3619-.3351-1.6923-1.4521-3.7335-.983-4.9887,.2721l7.7977,7.7977s.3646-4.923-2.4471-7.7347Z" style="fill:#e6e7e8; mix-blend-mode:multiply;"/></g><rect x="17.2709" y="122.7698" width="18.9804" height="2" style="fill:#6b4b2c;"/><rect x="58.059" y="120.1809" width="2" height="15.2002" style="fill:#6b4b2c;"/><g><path d="M62.7978,115.1799c0,3.9763-3.7388,7.1996-3.7388,7.1996,0,0-3.7389-3.2233-3.7389-7.1996,0-.1657,.0065-.33,.0189-.4929,.3397-4.4468,7.1002-4.4468,7.4399,0,.0124,.1629,.0189,.3272,.0189,.4929Z" style="fill:#84ba4d;"/><path d="M62.7978,115.1799c0-.1657-.0065-.3301-.0189-.4929-.1698-2.2234-1.9449-3.3351-3.7199-3.3351v11.0276s3.7388-3.2234,3.7388-7.1996Z" style="fill:#e6e7e8; mix-blend-mode:multiply;"/></g><rect x="44.4316" y="94.2355" width="14.3144" height="1.9998" transform="translate(-52.2305 64.3689) rotate(-44.998)" style="fill:#6b4b2c;"/><g><path d="M63.0003,89.1341c-2.8116,2.8116-7.7347,2.4471-7.7347,2.4471,0,0-.3645-4.923,2.4472-7.7347,.1171-.1171,.2379-.2287,.3619-.3351,3.3845-2.9042,8.165,1.8763,5.2608,5.2608-.1064,.1239-.218,.2448-.3352,.3619Z" style="fill:#84ba4d;"/><path d="M63.0003,89.1341c.1172-.1171,.2288-.238,.3352-.3619,1.4521-1.6923,.983-3.7335-.2722-4.9887l-7.7977,7.7977s4.9231,.3645,7.7347-2.4471Z" style="fill:#e6e7e8; mix-blend-mode:multiply;"/></g><g><path d="M46.7828,47.3561c9.6446-3.6373,8.9741,4.5033-.0353,.4285,9.0094,4.0748,3.3389,9.954-.2984,.3094,3.6373,9.6446-4.5033,8.9741-.4285-.0353-4.0748,9.0094-9.9539,3.3389-.3094-.2984-9.6445,3.6373-8.974-4.5033,.0353-.4285-9.0093-4.0748-3.3389-9.954,.2984-.3094-3.6373-9.6446,4.5033-8.974,.4285,.0353,4.0748-9.0093,9.954-3.3389,.3094,.2984Z" style="fill:#d84774;"/><path d="M47.3696,47.5582c20.206,0,13.345,14.4676-.3611,.7615,13.7061,13.7061-.7615,20.5671-.7615,.3611,0,20.206-14.4675,13.345-.7614-.3611-13.7061,13.7061-20.5671-.7615-.3611-.7615-20.206,0-13.345-14.4675,.3611-.7614-13.7061-13.7061,.7614-20.5671,.7614-.3611,0-20.206,14.4676-13.345,.7615,.3611,13.7061-13.7061,20.5671,.7614,.3611,.7614Z" style="fill:#ff7d6c;"/><path d="M46.5972,47.5582c6.3041,0,4.1635,4.5137-.1126,.2376,4.2761,4.2761-.2376,6.4166-.2376,.1126,0,6.304-4.5137,4.1635-.2375-.1126-4.2762,4.2761-6.4167-.2376-.1127-.2376-6.304,0-4.1635-4.5137,.1127-.2376-4.2762-4.2761,.2375-6.4166,.2375-.1126,0-6.304,4.5137-4.1635,.2376,.1126,4.2761-4.2761,6.4167,.2376,.1126,.2376Z" style="fill:#f1645b;"/><path d="M49.17,47.5582c-.7179,0-1.4272,1.4958-.9402,1.9827-.487-.4869-1.9828,.2224-1.9828,.9403,0-.7179-1.4957-1.4272-1.9827-.9403,.487-.4869-.2224-1.9827-.9403-1.9827,.7179,0,1.4273-1.4957,.9403-1.9827,.487,.487,1.9827-.2224,1.9827-.9403,0,.7179,1.4958,1.4273,1.9828,.9403-.487,.487,.2223,1.9827,.9402,1.9827Z" style="fill:#d84774;"/><circle cx="45.7824" cy="47.1899" r=".2785" style="fill:#ff7d6c;"/><circle cx="44.8863" cy="48.8752" r=".2785" style="fill:#ff7d6c;"/><circle cx="46.4521" cy="46.433" r=".2785" style="fill:#ff7d6c;"/><circle cx="45.7559" cy="48.6645" r=".2785" style="fill:#ff7d6c;"/><circle cx="44.7883" cy="46.5722" r=".2785" style="fill:#ff7d6c;"/><circle cx="47.509" cy="48.943" r=".2785" style="fill:#ff7d6c;"/><path d="M47.9589,46.765c0,.1539-.1247,.2785-.2785,.2785-.1539,0-.2785-.1246-.2785-.2785,0-.1538,.1246-.2784,.2785-.2784,.1538,0,.2785,.1246,.2785,.2784Z" style="fill:#ff7d6c;"/><circle cx="47.1111" cy="47.419" r=".2785" style="fill:#ff7d6c;"/><circle cx="46.3129" cy="49.5429" r=".2785" style="fill:#ff7d6c;"/><circle cx="47.7875" cy="48.2575" r=".2785" style="fill:#ff7d6c;"/><circle cx="45.2524" cy="47.9147" r=".2785" style="fill:#ff7d6c;"/><path d="M45.9685,46.2937c0,.077-.0623,.1393-.1392,.1393s-.1393-.0623-.1393-.1393c0-.0769,.0624-.1392,.1393-.1392s.1392,.0623,.1392,.1392Z" style="fill:#ff7d6c;"/><path d="M45.5825,46.6579c0,.0769-.0623,.1393-.1392,.1393-.077,0-.1393-.0624-.1393-.1393s.0623-.1392,.1393-.1392c.0769,0,.1392,.0623,.1392,.1392Z" style="fill:#ff7d6c;"/><path d="M44.8863,47.1899c0,.0769-.0624,.1393-.1393,.1393s-.1392-.0624-.1392-.1393,.0623-.1392,.1392-.1392,.1393,.0623,.1393,.1392Z" style="fill:#ff7d6c;"/><path d="M44.4332,47.5582c0,.0769-.0623,.1393-.1392,.1393s-.1393-.0624-.1393-.1393,.0624-.1392,.1393-.1392,.1392,.0623,.1392,.1392Z" style="fill:#ff7d6c;"/><path d="M46.1078,48.054c0,.0769-.0624,.1392-.1393,.1392s-.1392-.0623-.1392-.1392,.0623-.1393,.1392-.1393,.1393,.0624,.1393,.1393Z" style="fill:#ff7d6c;"/><path d="M46.9718,48.8038c0,.0769-.0623,.1392-.1392,.1392s-.1393-.0623-.1393-.1392,.0624-.1393,.1393-.1393,.1392,.0624,.1392,.1393Z" style="fill:#ff7d6c;"/><path d="M46.5914,47.0043c0,.0769-.0624,.1392-.1393,.1392s-.1392-.0623-.1392-.1392,.0623-.1393,.1392-.1393,.1393,.0624,.1393,.1393Z" style="fill:#ff7d6c;"/><path d="M46.3129,45.6225c0,.0769-.0624,.1392-.1393,.1392s-.1392-.0623-.1392-.1392,.0623-.1392,.1392-.1392,.1393,.0623,.1393,.1392Z" style="fill:#ff7d6c;"/><path d="M47.8839,46.0724c0,.0769-.0624,.1392-.1393,.1392s-.1392-.0623-.1392-.1392,.0623-.1393,.1392-.1393,.1393,.0624,.1393,.1393Z" style="fill:#ff7d6c;"/><path d="M45.7217,45.8224c0,.077-.0623,.1393-.1392,.1393s-.1392-.0623-.1392-.1393c0-.0769,.0623-.1392,.1392-.1392s.1392,.0623,.1392,.1392Z" style="fill:#ff7d6c;"/><path d="M45.3917,47.3649c0,.0769-.0624,.1392-.1393,.1392s-.1392-.0623-.1392-.1392,.0623-.1393,.1392-.1393,.1393,.0624,.1393,.1393Z" style="fill:#ff7d6c;"/><path d="M48.0981,47.4684c0,.0769-.0623,.1393-.1392,.1393-.077,0-.1393-.0624-.1393-.1393s.0623-.1392,.1393-.1392c.0769,0,.1392,.0623,.1392,.1392Z" style="fill:#ff7d6c;"/><path d="M48.548,47.6077c0,.0769-.0624,.1392-.1393,.1392s-.1392-.0623-.1392-.1392,.0623-.1393,.1392-.1393,.1393,.0624,.1393,.1393Z" style="fill:#ff7d6c;"/><path d="M47.3535,48.3325c0,.0769-.0624,.1392-.1393,.1392s-.1392-.0623-.1392-.1392,.0623-.1393,.1392-.1393,.1393,.0624,.1393,.1393Z" style="fill:#ff7d6c;"/><path d="M46.5072,47.5582c0,.0769-.0623,.1393-.1392,.1393s-.1392-.0624-.1392-.1393,.0623-.1392,.1392-.1392,.1392,.0623,.1392,.1392Z" style="fill:#ff7d6c;"/><path d="M47.0091,45.876c0,.0769-.0623,.1393-.1392,.1393s-.1393-.0624-.1393-.1393,.0624-.1392,.1393-.1392,.1392,.0623,.1392,.1392Z" style="fill:#ff7d6c;"/><path d="M45.6432,49.1537c0,.0769-.0623,.1392-.1393,.1392-.0769,0-.1392-.0623-.1392-.1392s.0623-.1393,.1392-.1393c.077,0,.1393,.0624,.1393,.1393Z" style="fill:#ff7d6c;"/><path d="M44.6863,48.1183c0,.0769-.0623,.1392-.1392,.1392s-.1393-.0623-.1393-.1392,.0624-.1393,.1393-.1393,.1392,.0624,.1392,.1393Z" style="fill:#ff7d6c;"/><path d="M46.8699,48.054c0,.0769-.0624,.1392-.1393,.1392s-.1392-.0623-.1392-.1392,.0623-.1393,.1392-.1393,.1393,.0624,.1393,.1393Z" style="fill:#ff7d6c;"/><path d="M46.5914,48.536c0,.0769-.0624,.1392-.1393,.1392s-.1392-.0623-.1392-.1392,.0623-.1392,.1392-.1392,.1393,.0623,.1393,.1392Z" style="fill:#ff7d6c;"/><path d="M45.206,46.1009c0,.0769-.0623,.1393-.1392,.1393s-.1393-.0624-.1393-.1393,.0624-.1392,.1393-.1392,.1392,.0623,.1392,.1392Z" style="fill:#ff7d6c;"/><path d="M47.2142,46.433c0,.0769-.0623,.1392-.1392,.1392-.077,0-.1393-.0623-.1393-.1392s.0623-.1393,.1393-.1393c.0769,0,.1392,.0624,.1392,.1393Z" style="fill:#ff7d6c;"/></g></g></g></g></svg>