<svg xmlns="http://www.w3.org/2000/svg" viewBox="0 0 90 261.231" xmlns:v="https://vecta.io/nano"><style><![CDATA[.B{fill:#84ba4d}.C{fill:#e6e7e8}.D{fill:#6b4b2c}]]></style><g fill="#d7ba8c"><path d="M15.964 244.646l-6.847 5.403h22.495l-6.847-5.403c-2.58-2.036-6.22-2.036-8.8 0z"/><use href="#B"/><use href="#B" x="13.13"/><path d="M52.713 245.323l-4.207 4.726h22.495l-4.207-4.726a9.43 9.43 0 0 0-14.08 0z"/><use href="#B" x="39.389"/></g><path d="M9.276 250.049H84.29v3.24H9.276z" fill="#a48250"/><path d="M45.589 111.756h2v129.419h-2z" class="D"/><path d="M59.894 212.708c-4.827 4.827-13.279 4.201-13.279 4.201s-.626-8.452 4.201-13.279c.201-.201.409-.393.621-.575 5.81-4.986 14.017 3.221 9.032 9.031a11.11 11.11 0 0 1-.575.621z" class="B"/><path d="M59.894 212.708l.575-.621c2.493-2.905 1.688-6.41-.467-8.564L46.615 216.91s8.452.626 13.279-4.201z" style="mix-blend-mode:multiply" class="C"/><path d="M33.337 212.708c4.827 4.827 13.279 4.201 13.279 4.201s.626-8.452-4.201-13.279c-.201-.201-.408-.393-.621-.575-5.81-4.986-14.017 3.221-9.031 9.031a11.07 11.07 0 0 0 .575.621z" class="B"/><path d="M33.336 212.708l-.575-.621c-2.493-2.905-1.688-6.41.467-8.564l13.387 13.387s-8.452.626-13.279-4.201z" style="mix-blend-mode:multiply" class="C"/><path d="M45.935 193.057l14.296-14.297 1.414 1.414-14.296 14.297z" class="D"/><path d="M72.94 176.404c-4.827 4.827-13.279 4.201-13.279 4.201s-.626-8.452 4.201-13.279c.201-.201.409-.393.621-.575 5.81-4.986 14.017 3.221 9.031 9.031-.183.213-.374.42-.575.621z" class="B"/><path d="M72.94 176.404l.575-.621c2.493-2.905 1.688-6.41-.467-8.564l-13.387 13.387s8.452.626 13.279-4.201z" style="mix-blend-mode:multiply" class="C"/><path d="M51.415 106.361c0 5.133-4.826 6.256-4.826 6.256s-4.826-1.123-4.826-6.256l.025-.636c.219-2.87 4.802-7.343 4.802-7.343s4.583 4.473 4.802 7.343l.024.636z" fill="#ff7d6c"/><path d="M48.418 110.331c0 1.875-1.763 2.285-1.763 2.285s-1.763-.41-1.763-2.285l.009-.233c.08-1.049 1.754-2.683 1.754-2.683s1.674 1.634 1.754 2.683l.009.233z" fill="#7dad45"/><g class="B"><path d="M49.206 112.141c-1.46 1.176-2.552.475-2.552.475s-.452-1.216 1.008-2.392l.185-.141c.852-.614 2.857-.729 2.857-.729s-.54 1.935-1.322 2.636l-.177.151z"/><path d="M44.037 112.141c1.461 1.176 2.552.475 2.552.475s.452-1.216-1.008-2.392l-.185-.141c-.852-.614-2.857-.729-2.857-.729s.54 1.935 1.322 2.636l.177.151z"/></g><path d="M29.488 183.903l1.414-1.414 16.394 16.393-1.414 1.414z" class="D"/><path d="M27.574 171.578c4.827 4.827 4.201 13.279 4.201 13.279s-8.452.626-13.279-4.201a11.11 11.11 0 0 1-.575-.621c-4.986-5.81 3.221-14.017 9.031-9.031a11.11 11.11 0 0 1 .621.575z" class="B"/><use href="#C" style="mix-blend-mode:multiply" class="C"/><g class="D"><path d="M23.627 144.961l1.414-1.414 22.281 22.282-1.414 1.414z"/><path d="M20.566 151.825h12.339v2H20.566z"/></g><path d="M20.868 131.721C25.694 136.548 25.069 145 25.069 145s-8.452.626-13.279-4.201a11.11 11.11 0 0 1-.575-.621c-4.986-5.81 3.221-14.017 9.032-9.031.213.183.42.374.621.575z" class="B"/><use href="#C" x="-6.706" y="-39.857" style="mix-blend-mode:multiply" class="C"/><path d="M10.88 146.407c6.826 0 12.36 6.419 12.36 6.419s-5.534 6.419-12.36 6.419a11.14 11.14 0 0 1-.846-.032c-7.634-.583-7.634-12.189 0-12.773a11.14 11.14 0 0 1 .846-.032z" class="B"/><path d="M10.88 146.407l-.846.032c-3.817.292-5.725 3.339-5.725 6.386H23.24s-5.534-6.419-12.36-6.419z" style="mix-blend-mode:multiply" class="C"/><path d="M35.257 169.549l1.414-1.414 10.625 10.625-1.414 1.414z" class="D"/><use href="#D" class="B"/><use href="#E" style="mix-blend-mode:multiply" class="C"/><path d="M45.935 172.214l19.692-19.692 1.414 1.414-19.692 19.692z" class="D"/><path d="M72.82 152.073c-2.812 2.812-7.735 2.447-7.735 2.447s-.365-4.923 2.447-7.735l.362-.335c3.385-2.904 8.165 1.876 5.261 5.261l-.335.362z" class="B"/><path d="M72.82 152.073l.335-.362c1.452-1.692.983-3.733-.272-4.989l-7.798 7.798s4.923.364 7.735-2.447z" style="mix-blend-mode:multiply" class="C"/><path d="M57.021 147.912h2v13.629h-2z" class="D"/><use href="#F" class="B"/><use href="#G" style="mix-blend-mode:multiply" class="C"/><path d="M53.79 185.615H68.52v2H53.79z" class="D"/><path d="M73.964 190.355c-3.976 0-7.2-3.739-7.2-3.739s3.223-3.739 7.2-3.739l.493.019c4.447.34 4.447 7.1 0 7.44l-.493.019z" class="B"/><path d="M73.964 190.355l.493-.019c2.223-.17 3.335-1.945 3.335-3.72H66.764s3.223 3.739 7.2 3.739z" style="mix-blend-mode:multiply" class="C"/><path d="M45.935 147.205L66.939 126.2l1.414 1.414-21.005 21.005z" class="D"/><path d="M77.872 125.384c-4.827 4.827-13.279 4.201-13.279 4.201s-.626-8.452 4.201-13.279c.201-.201.409-.393.621-.575 5.81-4.986 14.017 3.221 9.031 9.031a11.07 11.07 0 0 1-.575.621z" class="B"/><path d="M77.872 125.384l.575-.621c2.493-2.905 1.688-6.409-.467-8.564l-13.387 13.387s8.452.626 13.279-4.201z" style="mix-blend-mode:multiply" class="C"/><path d="M37.785 119.202c3.237 3.237 8.906 2.818 8.906 2.818s.42-5.668-2.818-8.906l-.417-.386c-3.897-3.344-9.401 2.16-6.057 6.057l.386.417z" class="B"/><path d="M37.785 119.202l-.386-.417c-1.672-1.948-1.132-4.299.313-5.744l8.978 8.978s-5.668.42-8.906-2.817z" style="mix-blend-mode:multiply" class="C"/><path d="M34.827 142.451l1.414-1.414 11.081 11.081-1.414 1.414z" class="D"/><use href="#D" x="-0.282" y="-27.004" class="B"/><path d="M34.652 135.771l-.362-.335c-1.692-1.452-3.733-.983-4.989.272l7.798 7.798s.365-4.923-2.447-7.735z" style="mix-blend-mode:multiply" class="C"/><path d="M25.381 114.201l1.414-1.414 20.554 20.553-1.414 1.414z" class="D"/><path d="M26.12 108.101c2.812 2.812 2.447 7.735 2.447 7.735s-4.923.365-7.735-2.447l-.335-.362c-2.904-3.385 1.876-8.165 5.261-5.261l.362.335z" class="B"/><use href="#E" x="-8.814" y="-54.674" style="mix-blend-mode:multiply" class="C"/><path d="M17.384 122.77h18.981v2H17.384z" class="D"/><path d="M12.643 120.031c3.976 0 7.2 3.739 7.2 3.739s-3.223 3.739-7.2 3.739a6.49 6.49 0 0 1-.493-.019c-4.447-.34-4.447-7.1 0-7.44l.493-.019z" class="B"/><path d="M12.643 120.031l-.493.019c-2.223.17-3.335 1.945-3.335 3.72h11.028s-3.223-3.739-7.2-3.739z" style="mix-blend-mode:multiply" class="C"/><path d="M58.173 120.181h2v15.2h-2z" class="D"/><use href="#F" x="1.151" y="-26.655" class="B"/><use href="#G" x="1.151" y="-26.655" style="mix-blend-mode:multiply" class="C"/><defs ><path id="B" d="M25.814 245.036l-3.567 5.013h22.495l-3.567-5.013c-3.758-5.281-11.602-5.281-15.36 0z"/><path id="C" d="M27.574 171.578l-.621-.575c-2.905-2.493-6.41-1.688-8.564.467l13.387 13.387s.626-8.452-4.201-13.279z"/><path id="D" d="M34.934 162.775c2.812 2.812 2.447 7.735 2.447 7.735s-4.923.364-7.735-2.447l-.335-.362c-2.904-3.385 1.876-8.165 5.261-5.261l.362.335z"/><path id="E" d="M34.934 162.775l-.362-.335c-1.692-1.452-3.733-.983-4.989.272l7.798 7.798s.364-4.923-2.447-7.735z"/><path id="F" d="M61.76 141.835c0 3.976-3.739 7.2-3.739 7.2s-3.739-3.223-3.739-7.2l.019-.493c.34-4.447 7.1-4.447 7.44 0l.019.493z"/><path id="G" d="M61.76 141.835l-.019-.493c-.17-2.223-1.945-3.335-3.72-3.335v11.028s3.739-3.223 3.739-7.2z"/></defs></svg>