<?xml version="1.0" encoding="UTF-8"?><svg xmlns="http://www.w3.org/2000/svg" viewBox="0 0 90 270.4615"><g style="isolation:isolate;"><g id="a"><g><g><path d="M18.3465,244.6463l-6.8472,5.4025h22.4947l-6.8472-5.4025c-2.5802-2.0358-6.2201-2.0358-8.8003,0Z" style="fill:#d7ba8c;"/><path d="M28.1964,245.0358l-3.5672,5.013h22.4947l-3.5673-5.013c-3.7581-5.2813-11.602-5.2813-15.3602,0Z" style="fill:#d7ba8c;"/><path d="M41.3263,245.0358l-3.5672,5.013h22.4946l-3.5672-5.013c-3.7581-5.2813-11.602-5.2813-15.3602,0Z" style="fill:#d7ba8c;"/><path d="M55.096,245.3233l-4.2071,4.7255h22.4946l-4.207-4.7255c-3.749-4.211-10.3315-4.211-14.0805,0Z" style="fill:#d7ba8c;"/><path d="M67.586,245.0358l-3.5672,5.013h22.4946l-3.5672-5.013c-3.7582-5.2813-11.602-5.2813-15.3602,0Z" style="fill:#d7ba8c;"/></g><rect x="47.8637" y="147.9124" width="2" height="93.2626" style="fill:#6b4b2c;"/><g><path d="M62.1686,212.7084c-4.8269,4.8269-13.2786,4.2012-13.2786,4.2012,0,0-.6257-8.4517,4.2012-13.2786,.2011-.2011,.4085-.3928,.6213-.5754,5.8104-4.9858,14.0173,3.2211,9.0315,9.0315-.1826,.2128-.3743,.4202-.5754,.6213Z" style="fill:#84ba4d;"/><path d="M62.1686,212.7084c.2012-.2011,.3928-.4085,.5754-.6213,2.4929-2.9052,1.6876-6.4095-.4672-8.5643l-13.3867,13.3867s8.4517,.6258,13.2785-4.2011Z" style="fill:#e6e7e8; mix-blend-mode:multiply;"/></g><g><path d="M35.6116,212.7084c4.8269,4.8269,13.2786,4.2012,13.2786,4.2012,0,0,.6257-8.4517-4.2012-13.2786-.2011-.2011-.4085-.3928-.6213-.5754-5.8104-4.9858-14.0172,3.2211-9.0315,9.0315,.1826,.2128,.3743,.4202,.5754,.6213Z" style="fill:#84ba4d;"/><path d="M35.6116,212.7084c-.2011-.2011-.3928-.4085-.5754-.6213-2.4929-2.9052-1.6876-6.4095,.4672-8.5643l13.3868,13.3867s-8.4517,.6258-13.2786-4.2011Z" style="fill:#e6e7e8; mix-blend-mode:multiply;"/></g><rect x="45.9556" y="185.6156" width="20.2195" height="1.9998" transform="translate(-115.5359 94.3026) rotate(-45)" style="fill:#6b4b2c;"/><g><path d="M75.2154,176.4043c-4.8269,4.8269-13.2786,4.2011-13.2786,4.2011,0,0-.6257-8.4517,4.2012-13.2786,.2011-.2011,.4085-.3928,.6213-.5754,5.8104-4.9857,14.0173,3.2211,9.0315,9.0315-.1826,.2128-.3743,.4202-.5754,.6214Z" style="fill:#84ba4d;"/><path d="M75.2154,176.4043c.2012-.2011,.3928-.4086,.5754-.6214,2.4929-2.9052,1.6876-6.4095-.4672-8.5643l-13.3867,13.3868s8.4517,.6258,13.2785-4.2011Z" style="fill:#e6e7e8; mix-blend-mode:multiply;"/></g><g><path d="M55.2822,138.4441c0,6.8262-6.4187,12.36-6.4187,12.36,0,0-6.4187-5.5338-6.4187-12.36,0-.2845,.0111-.5666,.0325-.8463,.5831-7.634,12.1893-7.634,12.7724,0,.0214,.2797,.0325,.5618,.0325,.8463Z" style="fill:#84ba4d;"/><path d="M55.2822,138.4441c0-.2845-.0111-.5667-.0325-.8463-.2915-3.817-3.3389-5.7255-6.3862-5.7255v18.9318s6.4187-5.5338,6.4187-12.36Z" style="fill:#e6e7e8; mix-blend-mode:multiply;"/></g><rect x="39.667" y="179.8002" width="1.9998" height="23.1833" transform="translate(-123.4264 84.8177) rotate(-45.0016)" style="fill:#6b4b2c;"/><g><path d="M29.8494,171.5779c4.8269,4.8269,4.2011,13.2786,4.2011,13.2786,0,0-8.4517,.6257-13.2786-4.2012-.2011-.2011-.3928-.4085-.5754-.6213-4.9857-5.8104,3.2211-14.0173,9.0315-9.0315,.2128,.1826,.4202,.3743,.6214,.5754Z" style="fill:#84ba4d;"/><path d="M29.8494,171.5779c-.2011-.2012-.4086-.3928-.6214-.5754-2.9052-2.4929-6.4095-1.6876-8.5643,.4672l13.3868,13.3867s.6258-8.4517-4.2011-13.2785Z" style="fill:#e6e7e8; mix-blend-mode:multiply;"/></g><rect x="11.6055" y="250.0488" width="75.0143" height="3.2402" style="fill:#a48250;"/><rect x="36.7495" y="139.6397" width="1.9998" height="31.5108" transform="translate(-98.8236 72.2058) rotate(-44.9995)" style="fill:#6b4b2c;"/><rect x="22.8413" y="151.8254" width="12.3389" height="2" style="fill:#6b4b2c;"/><g><path d="M23.1427,131.7209c4.8269,4.8269,4.2011,13.2786,4.2011,13.2786,0,0-8.4517,.6258-13.2786-4.2011-.2011-.2011-.3927-.4086-.5754-.6214-4.9857-5.8103,3.2212-14.0172,9.0315-9.0315,.2129,.1826,.4203,.3743,.6214,.5754Z" style="fill:#84ba4d;"/><path d="M23.1427,131.7209c-.2011-.2011-.4086-.3928-.6214-.5754-2.9051-2.4929-6.4094-1.6876-8.5642,.4672l13.3867,13.3868s.6258-8.4517-4.2011-13.2786Z" style="fill:#e6e7e8; mix-blend-mode:multiply;"/></g><g><path d="M13.1553,146.4066c6.8262,0,12.36,6.4188,12.36,6.4188,0,0-5.5338,6.4187-12.36,6.4187-.2845,0-.5667-.0112-.8463-.0325-7.634-.5831-7.634-12.1894,0-12.7725,.2796-.0213,.5618-.0325,.8463-.0325Z" style="fill:#84ba4d;"/><path d="M13.1553,146.4066c-.2845,0-.5667,.0112-.8463,.0325-3.817,.2915-5.7255,3.3389-5.7255,6.3863H25.5152s-5.5337-6.4188-12.3599-6.4188Z" style="fill:#e6e7e8; mix-blend-mode:multiply;"/></g><rect x="42.5513" y="166.6416" width="1.9998" height="15.026" transform="translate(-110.39 81.804) rotate(-45)" style="fill:#6b4b2c;"/><g><path d="M37.2087,162.7745c2.8116,2.8116,2.4471,7.7347,2.4471,7.7347,0,0-4.923,.3645-7.7347-2.4471-.1171-.1172-.2288-.238-.3351-.362-2.9042-3.3845,1.8762-8.1649,5.2607-5.2608,.124,.1064,.2448,.2181,.362,.3352Z" style="fill:#84ba4d;"/><path d="M37.2087,162.7745c-.1171-.1172-.238-.2288-.362-.3352-1.6922-1.4521-3.7334-.983-4.9886,.2722l7.7977,7.7977s.3645-4.9231-2.4471-7.7347Z" style="fill:#e6e7e8; mix-blend-mode:multiply;"/></g><rect x="44.838" y="162.0751" width="27.8492" height="1.9998" transform="translate(-98.0977 89.3095) rotate(-44.998)" style="fill:#6b4b2c;"/><g><path d="M75.0947,152.0727c-2.8116,2.8116-7.7347,2.4471-7.7347,2.4471,0,0-.3645-4.923,2.4471-7.7347,.1172-.1171,.238-.2288,.362-.3352,3.3845-2.9041,8.1649,1.8763,5.2608,5.2608-.1064,.124-.218,.2448-.3352,.362Z" style="fill:#84ba4d;"/><path d="M75.0947,152.0727c.1172-.1172,.2288-.238,.3352-.362,1.4521-1.6922,.983-3.7334-.2722-4.9886l-7.7977,7.7977s4.9231,.3645,7.7347-2.4471Z" style="fill:#e6e7e8; mix-blend-mode:multiply;"/></g><rect x="59.2963" y="147.9124" width="2" height="13.6293" style="fill:#6b4b2c;"/><g><path d="M64.035,141.8353c0,3.9763-3.7389,7.1997-3.7389,7.1997,0,0-3.7389-3.2234-3.7389-7.1997,0-.1657,.0065-.33,.0189-.4929,.3397-4.4468,7.1003-4.4468,7.4399,0,.0125,.1629,.019,.3272,.019,.4929Z" style="fill:#84ba4d;"/><path d="M64.035,141.8353c0-.1657-.0065-.3301-.019-.4929-.1698-2.2234-1.9448-3.3351-3.7199-3.3351v11.0276s3.7389-3.2233,3.7389-7.1996Z" style="fill:#e6e7e8; mix-blend-mode:multiply;"/></g></g></g></g></svg>