<svg xmlns="http://www.w3.org/2000/svg" viewBox="0 0 90 261.231" xmlns:v="https://vecta.io/nano"><g fill="#d7ba8c"><path d="M15.915 244.646l-6.847 5.403h22.495l-6.847-5.403c-2.58-2.036-6.22-2.036-8.8 0z"/><use href="#B"/><use href="#B" x="13.13"/><path d="M52.665 245.323l-4.207 4.726h22.495l-4.207-4.726a9.43 9.43 0 0 0-14.08 0z"/><use href="#B" x="39.39"/></g><path d="M45.576 175.712h2v65.463h-2z" fill="#6b4b2c"/><path d="M59.88 212.708c-4.827 4.827-13.279 4.201-13.279 4.201s-.626-8.452 4.201-13.279a11.11 11.11 0 0 1 .621-.575c5.81-4.986 14.017 3.221 9.032 9.031a11.11 11.11 0 0 1-.575.621z" fill="#84ba4d"/><path d="M59.88 212.708l.575-.621c2.493-2.905 1.688-6.41-.467-8.564L46.602 216.91s8.452.626 13.279-4.201z" style="mix-blend-mode:multiply" fill="#e6e7e8"/><path d="M33.323 212.708c4.827 4.827 13.279 4.201 13.279 4.201s.626-8.452-4.201-13.279a11.11 11.11 0 0 0-.621-.575c-5.81-4.986-14.017 3.221-9.032 9.031a11.11 11.11 0 0 0 .575.621z" fill="#84ba4d"/><path d="M33.323 212.708l-.575-.621c-2.493-2.905-1.688-6.41.467-8.564l13.387 13.387s-8.452.626-13.279-4.201z" style="mix-blend-mode:multiply" fill="#e6e7e8"/><path d="M45.921 193.057l14.297-14.297 1.414 1.414-14.297 14.297z" fill="#6b4b2c"/><path d="M72.927 176.404c-4.827 4.827-13.279 4.201-13.279 4.201s-.626-8.452 4.201-13.279a11.11 11.11 0 0 1 .621-.575c5.81-4.986 14.017 3.221 9.031 9.031-.183.213-.374.42-.575.621z" fill="#84ba4d"/><path d="M72.927 176.404l.575-.621c2.493-2.905 1.688-6.41-.467-8.564l-13.387 13.387s8.452.626 13.279-4.201z" style="mix-blend-mode:multiply" fill="#e6e7e8"/><path d="M52.994 165.154c0 6.826-6.419 12.36-6.419 12.36s-6.419-5.534-6.419-12.36a11.09 11.09 0 0 1 .032-.846c.583-7.634 12.189-7.634 12.772 0a11.09 11.09 0 0 1 .032.846z" fill="#84ba4d"/><path d="M52.994 165.154l-.032-.846c-.291-3.817-3.339-5.725-6.386-5.725v18.932s6.419-5.534 6.419-12.36z" style="mix-blend-mode:multiply" fill="#e6e7e8"/><path d="M29.475 183.903l1.414-1.414 16.394 16.393-1.414 1.414z" fill="#6b4b2c"/><path d="M27.561 171.578c4.827 4.827 4.201 13.279 4.201 13.279s-8.452.626-13.279-4.201a11.11 11.11 0 0 1-.575-.621c-4.986-5.81 3.221-14.017 9.032-9.031.213.183.42.374.621.575z" fill="#84ba4d"/><path d="M27.561 171.578l-.621-.575c-2.905-2.493-6.41-1.688-8.564.467l13.387 13.387s.626-8.452-4.201-13.279z" style="mix-blend-mode:multiply" fill="#e6e7e8"/><path d="M9.121 250.049h75.014v3.24H9.121z" fill="#a48250"/><defs ><path id="B" d="M25.765 245.036l-3.567 5.013h22.495l-3.567-5.013c-3.758-5.281-11.602-5.281-15.36 0z"/></defs></svg>