<?xml version="1.0" encoding="UTF-8"?><svg id="a" xmlns="http://www.w3.org/2000/svg" viewBox="0 0 149.43 82.4066"><g id="b"><g><polygon points="90.8039 41.0177 41.5751 40.9656 55.8442 31.572 105.073 31.6242 90.8039 41.0177" style="fill:#4faa6b;"/><polygon points="90.8039 41.0177 41.5751 40.9656 41.5751 45.6884 90.8039 45.7406 105.073 36.347 105.073 31.6242 90.8039 41.0177" style="fill:#499b60;"/><path d="M85.7612,40.1705l-36.5898-.0388c1.3292-.8751,.6164-1.5863-1.5923-1.5887l6.9019-4.5436c2.2086,.0023,5.0767-.7051,6.4059-1.5802l36.5898,.0388c-1.3292,.8751-.6164,1.5863,1.5923,1.5887l-6.9019,4.5436c-2.2086-.0023-5.0767,.7051-6.4059,1.5802Z" style="fill:#7fd397;"/><ellipse cx="73.3241" cy="36.2949" rx="6.6252" ry="1.9846" transform="translate(-7.0414 20.9612) rotate(-15.5329)" style="fill:#4faa6b;"/><polygon points="53.9584 45.6884 53.9584 40.9656 68.2275 31.572 72.2822 31.6242 59.9624 40.972 59.9624 45.7406 53.9584 45.6884" style="fill:#eac4b0;"/><polygon points="54.5531 45.6884 54.5531 40.9656 68.8222 31.572 71.6875 31.6242 59.3678 40.972 59.3678 45.7406 54.5531 45.6884" style="fill:#edd5c5;"/></g><g><polygon points="88.3416 35.4998 39.1128 35.4477 53.3819 26.0541 102.6107 26.1062 88.3416 35.4998" style="fill:#4faa6b;"/><polygon points="88.3416 35.4998 39.1128 35.4477 39.1128 40.1705 88.3416 40.2226 102.6107 30.8291 102.6107 26.1062 88.3416 35.4998" style="fill:#499b60;"/><path d="M83.2989,34.6526l-36.5898-.0388c1.3292-.8751,.6164-1.5863-1.5923-1.5887l6.9019-4.5436c2.2086,.0023,5.0767-.7051,6.4059-1.5802l36.5898,.0388c-1.3292,.8751-.6164,1.5863,1.5923,1.5887l-6.9019,4.5436c-2.2086-.0023-5.0767,.7051-6.4059,1.5802Z" style="fill:#7fd397;"/><ellipse cx="70.8617" cy="30.7769" rx="6.6252" ry="1.9846" transform="translate(-5.6537 20.1003) rotate(-15.5329)" style="fill:#4faa6b;"/><polygon points="51.4961 40.1705 51.4961 35.4477 65.7652 26.0541 69.8199 26.1062 57.5001 35.454 57.5001 40.2226 51.4961 40.1705" style="fill:#eac4b0;"/><polygon points="52.0907 40.1705 52.0907 35.4477 66.3598 26.0541 69.2252 26.1062 56.9055 35.454 56.9055 40.2226 52.0907 40.1705" style="fill:#edd5c5;"/></g><g><polygon points="90.0838 29.9297 40.855 29.8776 55.1241 20.484 104.3529 20.5362 90.0838 29.9297" style="fill:#4faa6b;"/><polygon points="90.0838 29.9297 40.855 29.8776 40.855 34.6004 90.0838 34.6526 104.3529 25.259 104.3529 20.5362 90.0838 29.9297" style="fill:#499b60;"/><path d="M85.041,29.0825l-36.5898-.0388c1.3292-.8751,.6164-1.5863-1.5923-1.5887l6.9019-4.5436c2.2086,.0023,5.0767-.7051,6.4059-1.5802l36.5898,.0388c-1.3292,.8751-.6164,1.5863,1.5923,1.5887l-6.9019,4.5436c-2.2086-.0023-5.0767,.7051-6.4059,1.5802Z" style="fill:#7fd397;"/><ellipse cx="72.6039" cy="25.2069" rx="6.6252" ry="1.9846" transform="translate(-4.0985 20.3634) rotate(-15.5329)" style="fill:#4faa6b;"/><polygon points="53.2383 34.6004 53.2383 29.8776 67.5074 20.484 71.5621 20.5362 59.2423 29.884 59.2423 34.6526 53.2383 34.6004" style="fill:#eac4b0;"/><polygon points="53.8329 34.6004 53.8329 29.8776 68.102 20.484 70.9674 20.5362 58.6476 29.884 58.6476 34.6526 53.8329 34.6004" style="fill:#edd5c5;"/></g></g><g id="c"><g><polygon points="91.8672 24.149 46.307 24.1008 59.5127 15.4072 105.073 15.4555 91.8672 24.149" style="fill:#4faa6b;"/><polygon points="91.8672 24.149 46.307 24.1008 46.307 28.4717 91.8672 28.5199 105.073 19.8264 105.073 15.4554 91.8672 24.149" style="fill:#499b60;"/><path d="M87.2003,23.3649l-33.8631-.0359c1.2302-.8099,.5704-1.4681-1.4736-1.4703l6.3876-4.205c2.044,.0022,4.6983-.6526,5.9285-1.4625l33.8631,.0359c-1.2302,.8099-.5704,1.4681,1.4736,1.4703l-6.3876,4.205c-2.044-.0022-4.6983,.6526-5.9285,1.4625Z" style="fill:#7fd397;"/><ellipse cx="75.69" cy="19.7781" rx="6.1315" ry="1.8367" transform="translate(-2.532 20.9915) rotate(-15.5329)" style="fill:#4faa6b;"/><polygon points="57.7675 28.4717 57.7675 24.1008 70.9732 15.4072 74.7258 15.4554 63.324 24.1067 63.324 28.5199 57.7675 28.4717" style="fill:#eac4b0;"/><polygon points="58.3178 28.4717 58.3178 24.1008 71.5236 15.4072 74.1754 15.4554 62.7737 24.1067 62.7737 28.5199 58.3178 28.4717" style="fill:#edd5c5;"/></g><g><polygon points="89.5884 19.0423 44.0281 18.994 57.2339 10.3005 102.7942 10.3487 89.5884 19.0423" style="fill:#4faa6b;"/><polygon points="89.5884 19.0423 44.0281 18.994 44.0281 23.3649 89.5884 23.4132 102.7942 14.7196 102.7942 10.3487 89.5884 19.0423" style="fill:#499b60;"/><path d="M84.9215,18.2582l-33.8631-.0359c1.2302-.8099,.5704-1.4681-1.4736-1.4703l6.3876-4.205c2.044,.0022,4.6983-.6526,5.9285-1.4625l33.8631,.0359c-1.2302,.8099-.5704,1.4681,1.4736,1.4703l-6.3876,4.205c-2.044-.0022-4.6983,.6526-5.9285,1.4625Z" style="fill:#7fd397;"/><ellipse cx="73.4111" cy="14.6714" rx="6.1315" ry="1.8367" transform="translate(-1.2477 20.1948) rotate(-15.5329)" style="fill:#4faa6b;"/><polygon points="55.4886 23.3649 55.4886 18.994 68.6944 10.3005 72.4469 10.3487 61.0452 18.9999 61.0452 23.4132 55.4886 23.3649" style="fill:#eac4b0;"/><polygon points="56.039 23.3649 56.039 18.994 69.2447 10.3005 71.8966 10.3487 60.4949 18.9999 60.4949 23.4132 56.039 23.3649" style="fill:#edd5c5;"/></g><g><polygon points="91.2007 13.8873 45.6405 13.8391 58.8463 5.1455 104.4065 5.1937 91.2007 13.8873" style="fill:#4faa6b;"/><polygon points="91.2008 13.8873 45.6405 13.8391 45.6405 18.2099 91.2008 18.2582 104.4065 9.5646 104.4065 5.1937 91.2008 13.8873" style="fill:#499b60;"/><path d="M86.5338,13.1032l-33.8631-.0359c1.2302-.8099,.5704-1.4681-1.4736-1.4703l6.3876-4.205c2.044,.0022,4.6983-.6526,5.9285-1.4625l33.8631,.0359c-1.2302,.8099-.5704,1.4681,1.4736,1.4703l-6.3876,4.205c-2.044-.0022-4.6983,.6526-5.9285,1.4625Z" style="fill:#7fd397;"/><ellipse cx="75.0235" cy="9.5164" rx="6.1315" ry="1.8367" transform="translate(.1917 20.4383) rotate(-15.5329)" style="fill:#4faa6b;"/><polygon points="57.101 18.2099 57.101 13.8391 70.3068 5.1455 74.0593 5.1937 62.6576 13.8449 62.6576 18.2582 57.101 18.2099" style="fill:#eac4b0;"/><polygon points="57.6513 18.2099 57.6513 13.8391 70.8571 5.1455 73.509 5.1937 62.1072 13.8449 62.1072 18.2582 57.6513 18.2099" style="fill:#edd5c5;"/></g></g><g id="d"><g><polygon points="133.4758 57.6318 78.4335 57.5735 94.3876 47.0706 149.43 47.1289 133.4758 57.6318" style="fill:#4faa6b;"/><polygon points="133.4758 57.6318 78.4335 57.5735 78.4335 62.854 133.4758 62.9123 149.43 52.4095 149.43 47.1289 133.4758 57.6318" style="fill:#499b60;"/><path d="M127.8376,56.6845l-40.9108-.0433c1.4862-.9784,.6892-1.7737-1.7803-1.7763l7.717-5.0802c2.4695,.0026,5.6762-.7884,7.1624-1.7668l40.9108,.0433c-1.4862,.9784-.6892,1.7737,1.7803,1.7763l-7.717,5.0802c-2.4695-.0026-5.6762,.7884-7.1624,1.7668Z" style="fill:#7fd397;"/><ellipse cx="113.9317" cy="52.3512" rx="7.4076" ry="2.219" transform="translate(-9.8581 32.422) rotate(-15.5329)" style="fill:#4faa6b;"/><polygon points="92.2791 62.854 92.2791 57.5735 108.2333 47.0706 112.7668 47.1289 98.9922 57.5806 98.9922 62.9123 92.2791 62.854" style="fill:#eac4b0;"/><polygon points="92.944 62.854 92.944 57.5735 108.8982 47.0706 112.1019 47.1289 98.3273 57.5806 98.3273 62.9123 92.944 62.854" style="fill:#edd5c5;"/></g><g><polygon points="130.7227 51.4622 75.6803 51.4039 91.6345 40.901 146.6769 40.9593 130.7227 51.4622" style="fill:#4faa6b;"/><polygon points="130.7227 51.4622 75.6803 51.4039 75.6803 56.6845 130.7227 56.7428 146.6769 46.2399 146.6769 40.9593 130.7227 51.4622" style="fill:#499b60;"/><path d="M125.0845,50.5149l-40.9108-.0433c1.4862-.9784,.6892-1.7737-1.7803-1.7763l7.717-5.0802c2.4695,.0026,5.6762-.7884,7.1624-1.7668l40.9108,.0433c-1.4862,.9784-.6892,1.7737,1.7803,1.7763l-7.717,5.0802c-2.4695-.0026-5.6762,.7884-7.1624,1.7668Z" style="fill:#7fd397;"/><ellipse cx="111.1786" cy="46.1816" rx="7.4076" ry="2.219" transform="translate(-8.3065 31.4595) rotate(-15.5329)" style="fill:#4faa6b;"/><polygon points="89.526 56.6845 89.526 51.4039 105.4802 40.901 110.0137 40.9593 96.2391 51.411 96.2391 56.7428 89.526 56.6845" style="fill:#eac4b0;"/><polygon points="90.1909 56.6845 90.1909 51.4039 106.1451 40.901 109.3488 40.9593 95.5742 51.411 95.5742 56.7428 90.1909 56.6845" style="fill:#edd5c5;"/></g><g><polygon points="132.6706 45.2344 77.6283 45.1761 93.5825 34.6732 148.6248 34.7315 132.6706 45.2344" style="fill:#4faa6b;"/><polygon points="132.6706 45.2344 77.6283 45.1761 77.6283 50.4566 132.6706 50.5149 148.6248 40.012 148.6248 34.7314 132.6706 45.2344" style="fill:#499b60;"/><path d="M127.0324,44.2871l-40.9108-.0433c1.4862-.9784,.6892-1.7737-1.7803-1.7763l7.717-5.0802c2.4695,.0026,5.6762-.7884,7.1624-1.7668l40.9108,.0433c-1.4862,.9784-.6892,1.7737,1.7803,1.7763l-7.717,5.0802c-2.4695-.0026-5.6762,.7884-7.1624,1.7668Z" style="fill:#7fd397;"/><ellipse cx="113.1265" cy="39.9538" rx="7.4076" ry="2.219" transform="translate(-6.5675 31.7536) rotate(-15.5329)" style="fill:#4faa6b;"/><polygon points="91.474 50.4566 91.474 45.1761 107.4281 34.6732 111.9616 34.7314 98.187 45.1832 98.187 50.5149 91.474 50.4566" style="fill:#eac4b0;"/><polygon points="92.1388 50.4566 92.1388 45.1761 108.093 34.6732 111.2968 34.7314 97.5221 45.1832 97.5221 50.5149 92.1388 50.4566" style="fill:#edd5c5;"/></g><g><polygon points="123.5765 37.3718 68.5341 37.3135 84.4883 26.8106 139.5307 26.8689 123.5765 37.3718" style="fill:#4faa6b;"/><polygon points="123.5765 37.3718 68.5341 37.3135 68.5341 42.594 123.5765 42.6523 139.5307 32.1495 139.5307 26.8688 123.5765 37.3718" style="fill:#499b60;"/><path d="M117.9383,36.4245l-40.9108-.0433c1.4862-.9784,.6892-1.7737-1.7803-1.7763l7.717-5.0802c2.4695,.0026,5.6762-.7884,7.1624-1.7668l40.9108,.0433c-1.4862,.9784-.6892,1.7737,1.7803,1.7763l-7.717,5.0802c-2.4695-.0026-5.6762,.7884-7.1624,1.7668Z" style="fill:#7fd397;"/><ellipse cx="104.0324" cy="32.0912" rx="7.4076" ry="2.219" transform="translate(-4.7942 29.0311) rotate(-15.5329)" style="fill:#4faa6b;"/><polygon points="82.3798 42.594 82.3798 37.3135 98.334 26.8106 102.8675 26.8688 89.0928 37.3206 89.0928 42.6523 82.3798 42.594" style="fill:#eac4b0;"/><polygon points="83.0447 42.594 83.0447 37.3135 98.9989 26.8106 102.2026 26.8688 88.428 37.3206 88.428 42.6523 83.0447 42.594" style="fill:#edd5c5;"/></g></g><g id="e"><g><polygon points="123.7067 30.8212 68.6644 30.7629 84.6186 20.26 139.6609 20.3183 123.7067 30.8212" style="fill:#4faa6b;"/><polygon points="123.7068 30.8212 68.6644 30.7629 68.6644 36.0435 123.7068 36.1018 139.6609 25.5989 139.6609 20.3183 123.7068 30.8212" style="fill:#499b60;"/><path d="M118.0685,29.8739l-40.9108-.0433c1.4862-.9784,.6892-1.7737-1.7803-1.7763l7.717-5.0802c2.4695,.0026,5.6762-.7884,7.1624-1.7668l40.9108,.0433c-1.4862,.9784-.6892,1.7737,1.7803,1.7763l-7.717,5.0802c-2.4695-.0026-5.6762,.7884-7.1624,1.7668Z" style="fill:#7fd397;"/><ellipse cx="104.1627" cy="25.5406" rx="7.4076" ry="2.219" transform="translate(-3.0352 28.8268) rotate(-15.5329)" style="fill:#4faa6b;"/><polygon points="82.5101 36.0435 82.5101 30.7629 98.4643 20.26 102.9978 20.3183 89.2231 30.77 89.2231 36.1018 82.5101 36.0435" style="fill:#eac4b0;"/><polygon points="83.175 36.0435 83.175 30.7629 99.1291 20.26 102.3329 20.3183 88.5583 30.77 88.5583 36.1018 83.175 36.0435" style="fill:#edd5c5;"/></g><g><polygon points="128.1156 24.6516 73.0733 24.5933 89.0275 14.0904 144.0698 14.1487 128.1156 24.6516" style="fill:#4faa6b;"/><polygon points="128.1156 24.6516 73.0733 24.5933 73.0733 29.8739 128.1156 29.9322 144.0698 19.4293 144.0698 14.1487 128.1156 24.6516" style="fill:#499b60;"/><path d="M122.4774,23.7044l-40.9108-.0433c1.4862-.9784,.6892-1.7737-1.7803-1.7763l7.717-5.0802c2.4695,.0026,5.6762-.7884,7.1624-1.7668l40.9108,.0433c-1.4862,.9784-.6892,1.7737,1.7803,1.7763l-7.717,5.0802c-2.4695-.0026-5.6762,.7884-7.1624,1.7668Z" style="fill:#7fd397;"/><ellipse cx="108.5716" cy="19.371" rx="7.4076" ry="2.219" transform="translate(-1.222 29.7821) rotate(-15.5329)" style="fill:#4faa6b;"/><polygon points="86.919 29.8739 86.919 24.5933 102.8732 14.0904 107.4067 14.1487 93.632 24.6004 93.632 29.9322 86.919 29.8739" style="fill:#eac4b0;"/><polygon points="87.5838 29.8739 87.5838 24.5933 103.538 14.0904 106.7418 14.1487 92.9671 24.6004 92.9671 29.9322 87.5838 29.8739" style="fill:#edd5c5;"/></g><g><polygon points="122.9016 18.4238 67.8592 18.3655 83.8134 7.8626 138.8558 7.9209 122.9016 18.4238" style="fill:#4faa6b;"/><polygon points="122.9016 18.4238 67.8592 18.3655 67.8592 23.6461 122.9016 23.7044 138.8558 13.2015 138.8558 7.9209 122.9016 18.4238" style="fill:#499b60;"/><path d="M117.2634,17.4765l-40.9108-.0433c1.4862-.9784,.6892-1.7737-1.7803-1.7763l7.717-5.0802c2.4695,.0026,5.6762-.7884,7.1624-1.7668l40.9108,.0433c-1.4862,.9784-.6892,1.7737,1.7803,1.7763l-7.717,5.0802c-2.4695-.0026-5.6762,.7884-7.1624,1.7668Z" style="fill:#7fd397;"/><ellipse cx="103.3575" cy="13.1432" rx="7.4076" ry="2.219" transform="translate(.2553 28.1583) rotate(-15.5329)" style="fill:#4faa6b;"/><polygon points="81.7049 23.6461 81.7049 18.3655 97.6591 7.8626 102.1926 7.9209 88.4179 18.3726 88.4179 23.7044 81.7049 23.6461" style="fill:#eac4b0;"/><polygon points="82.3698 23.6461 82.3698 18.3655 98.324 7.8626 101.5277 7.9209 87.7531 18.3726 87.7531 23.7044 82.3698 23.6461" style="fill:#edd5c5;"/></g><g><polygon points="128.1156 10.5612 73.0733 10.5029 89.0275 0 144.0698 .0583 128.1156 10.5612" style="fill:#4faa6b;"/><polygon points="128.1156 10.5612 73.0733 10.5029 73.0733 15.7835 128.1156 15.8418 144.0698 5.3389 144.0698 .0583 128.1156 10.5612" style="fill:#499b60;"/><path d="M122.4774,9.6139l-40.9108-.0433c1.4862-.9784,.6892-1.7737-1.7803-1.7763l7.717-5.0802c2.4695,.0026,5.6762-.7884,7.1624-1.7668l40.9108,.0433c-1.4862,.9784-.6892,1.7737,1.7803,1.7763l-7.717,5.0802c-2.4695-.0026-5.6762,.7884-7.1624,1.7668Z" style="fill:#7fd397;"/><ellipse cx="108.5716" cy="5.2806" rx="7.4076" ry="2.219" transform="translate(2.5513 29.2675) rotate(-15.5329)" style="fill:#4faa6b;"/><polygon points="86.919 15.7835 86.919 10.5029 102.8732 0 107.4067 .0583 93.632 10.51 93.632 15.8418 86.919 15.7835" style="fill:#eac4b0;"/><polygon points="87.5838 15.7835 87.5838 10.5029 103.538 0 106.7418 .0583 92.9671 10.51 92.9671 15.8418 87.5838 15.7835" style="fill:#edd5c5;"/></g></g><g id="f"><g><polygon points="59.6521 55.7062 4.6097 55.6479 20.5639 45.145 75.6063 45.2033 59.6521 55.7062" style="fill:#4faa6b;"/><polygon points="59.6521 55.7062 4.6097 55.6479 4.6097 60.9285 59.6521 60.9868 75.6063 50.4839 75.6063 45.2033 59.6521 55.7062" style="fill:#499b60;"/><path d="M54.0139,54.7589l-40.9108-.0433c1.4862-.9784,.6892-1.7737-1.7803-1.7763l7.717-5.0802c2.4695,.0026,5.6762-.7884,7.1624-1.7668l40.9108,.0433c-1.4862,.9784-.6892,1.7737,1.7803,1.7763l-7.717,5.0802c-2.4695-.0026-5.6762,.7884-7.1624,1.7668Z" style="fill:#7fd397;"/><ellipse cx="40.108" cy="50.4256" rx="7.4076" ry="2.219" transform="translate(-12.0387 12.5823) rotate(-15.5329)" style="fill:#4faa6b;"/><polygon points="18.4554 60.9285 18.4554 55.6479 34.4096 45.145 38.9431 45.2033 25.1684 55.655 25.1684 60.9868 18.4554 60.9285" style="fill:#eac4b0;"/><polygon points="19.1203 60.9285 19.1203 55.6479 35.0745 45.145 38.2782 45.2033 24.5036 55.655 24.5036 60.9868 19.1203 60.9285" style="fill:#edd5c5;"/></g><g><polygon points="55.0423 43.0937 0 43.0499 15.9542 35.1602 70.9965 35.204 55.0423 43.0937" style="fill:#4faa6b;"/><polygon points="55.0423 43.0937 0 43.0499 0 47.0166 55.0423 47.0604 70.9965 39.1707 70.9965 35.204 55.0423 43.0937" style="fill:#499b60;"/><path d="M49.4041,42.3821l-40.9108-.0325c1.4862-.735,.6892-1.3324-1.7803-1.3343l7.717-3.8162c2.4695,.002,5.6762-.5923,7.1624-1.3272l40.9108,.0325c-1.4862,.735-.6892,1.3324,1.7803,1.3343l-7.717,3.8162c-2.4695-.002-5.6762,.5923-7.1624,1.3272Z" style="fill:#7fd397;"/><ellipse cx="35.4983" cy="39.1269" rx="7.2956" ry="1.6925" transform="translate(-6.9813 7.7179) rotate(-11.305)" style="fill:#4faa6b;"/><polygon points="13.8457 47.0166 13.8457 43.0499 29.7999 35.1602 34.3334 35.204 20.5587 43.0552 20.5587 47.0604 13.8457 47.0166" style="fill:#eac4b0;"/><polygon points="14.5105 47.0166 14.5105 43.0499 30.4647 35.1602 33.6685 35.204 19.8938 43.0552 19.8938 47.0604 14.5105 47.0166" style="fill:#edd5c5;"/></g><g><g><ellipse cx="68.8928" cy="61.1683" rx="11.1703" ry="4.5485" transform="translate(-.0635 .0716) rotate(-.0595)" style="fill:#ffe966;"/><path d="M68.8979,66.0522c-6.6135,.0069-11.9962-2.1784-11.999-4.8714-.0028-2.693,5.3753-4.8895,11.9888-4.8964s11.9958,2.1784,11.9986,4.8714c.0028,2.693-5.3753,4.8895-11.9885,4.8964Zm-.0094-9.0971c-5.7052,.0059-10.3448,1.9008-10.3424,4.224s4.646,4.2084,10.3512,4.2025c5.705-.0059,10.3445-1.9008,10.3421-4.224-.0024-2.3231-4.6458-4.2084-10.3509-4.2025Z" style="fill:#efb93f;"/><path d="M68.8979,66.0522c-6.6135,.0069-11.9962-2.1784-11.999-4.8715v1.7202c.0028,2.693,5.3855,4.8783,11.999,4.8714,6.6132-.0069,11.9913-2.2034,11.9885-4.8964v-1.7202c.0028,2.693-5.3753,4.8895-11.9885,4.8964Z" style="fill:#efb93f;"/><path d="M65.546,62.361c.7756,.2647,1.7101,.4504,3.0143,.449,1.5506-.0016,2.5196-.2897,2.5191-.7346-.0004-.3803-.4237-.6023-2.5916-.9373-2.3444-.3636-3.1552-.7072-3.1558-1.3674-.0006-.6028,1.162-1.0991,3.224-1.1802l-.1421-.8179,1.5509-.0016-.1577,.8182c1.0398,.0276,1.9033,.1344,2.7496,.2986l-.5634,.5388c-.7404-.1715-1.7626-.3139-2.8377-.3128-1.4274,.0015-2.3082,.2536-2.3079,.6195,.0004,.3445,.3528,.5307,2.468,.8443,2.5383,.3777,3.3494,.793,3.35,1.4174,.0008,.7678-1.356,1.2357-3.2413,1.3381l.1595,.825-1.5509,.0016,.1401-.8039c-1.392-.0344-2.6261-.2054-3.4016-.4629l.7747-.5319Z" style="fill:#efb93f;"/></g><g><ellipse cx="69.7163" cy="56.9426" rx="11.1703" ry="4.5485" transform="translate(-.0591 .0725) rotate(-.0595)" style="fill:#ffe966;"/><path d="M69.7214,61.8265c-6.6135,.0069-11.9962-2.1784-11.999-4.8714-.0028-2.693,5.3753-4.8895,11.9888-4.8964s11.9958,2.1784,11.9986,4.8714-5.3753,4.8895-11.9885,4.8964Zm-.0094-9.0971c-5.7052,.0059-10.3448,1.9008-10.3424,4.224s4.646,4.2084,10.3512,4.2025c5.705-.0059,10.3445-1.9008,10.3421-4.224-.0024-2.3231-4.6458-4.2084-10.3509-4.2025Z" style="fill:#efb93f;"/><path d="M69.7215,61.8265c-6.6135,.0069-11.9962-2.1784-11.999-4.8715v1.7202c.0028,2.693,5.3855,4.8783,11.999,4.8714,6.6132-.0069,11.9913-2.2034,11.9885-4.8964v-1.7202c.0028,2.693-5.3753,4.8895-11.9885,4.8964Z" style="fill:#efb93f;"/><path d="M66.3695,58.1353c.7756,.2647,1.7101,.4504,3.0143,.449,1.5506-.0016,2.5196-.2897,2.5191-.7346-.0004-.3803-.4237-.6023-2.5916-.9373-2.3444-.3636-3.1552-.7072-3.1558-1.3674-.0006-.6028,1.162-1.0991,3.224-1.1802l-.1421-.8179,1.5509-.0016-.1577,.8182c1.0398,.0276,1.9033,.1344,2.7496,.2986l-.5634,.5388c-.7404-.1715-1.7626-.3139-2.8377-.3128-1.4274,.0015-2.3082,.2536-2.3079,.6195,.0004,.3445,.3528,.5307,2.468,.8443,2.5383,.3777,3.3494,.793,3.35,1.4174,.0008,.7678-1.356,1.2357-3.2413,1.3381l.1595,.825-1.5509,.0016,.1401-.8039c-1.392-.0344-2.6261-.2054-3.4016-.4629l.7747-.5319Z" style="fill:#efb93f;"/></g><g><ellipse cx="64.7713" cy="55.0132" rx="11.1703" ry="4.5485" transform="translate(-.0571 .0673) rotate(-.0595)" style="fill:#ffe966;"/><path d="M64.7765,59.8971c-6.6135,.0069-11.9962-2.1784-11.999-4.8714-.0028-2.693,5.3753-4.8895,11.9888-4.8964s11.9958,2.1784,11.9986,4.8714-5.3753,4.8895-11.9885,4.8964Zm-.0094-9.0971c-5.7052,.0059-10.3448,1.9008-10.3424,4.224,.0024,2.3231,4.646,4.2084,10.3512,4.2025,5.705-.0059,10.3445-1.9008,10.3421-4.224-.0024-2.3231-4.6458-4.2084-10.3509-4.2025Z" style="fill:#efb93f;"/><path d="M64.7765,59.8971c-6.6135,.0069-11.9962-2.1784-11.999-4.8715v1.7202c.0028,2.693,5.3855,4.8783,11.999,4.8714,6.6132-.0069,11.9913-2.2034,11.9885-4.8964v-1.7202c.0028,2.693-5.3753,4.8895-11.9885,4.8964Z" style="fill:#efb93f;"/><path d="M61.4246,56.206c.7756,.2647,1.7101,.4504,3.0143,.449,1.5506-.0016,2.5196-.2897,2.5191-.7346-.0004-.3803-.4237-.6023-2.5916-.9373-2.3444-.3636-3.1552-.7072-3.1558-1.3674-.0006-.6028,1.162-1.0991,3.224-1.1802l-.1421-.8179,1.5509-.0016-.1577,.8182c1.0398,.0276,1.9033,.1344,2.7496,.2986l-.5634,.5388c-.7404-.1715-1.7626-.3139-2.8377-.3128-1.4274,.0015-2.3082,.2536-2.3079,.6195,.0004,.3445,.3528,.5307,2.468,.8443,2.5383,.3777,3.3494,.793,3.35,1.4174,.0008,.7678-1.356,1.2357-3.2413,1.3381l.1595,.825-1.5509,.0016,.1401-.8039c-1.392-.0344-2.6261-.2054-3.4016-.4629l.7747-.5319Z" style="fill:#efb93f;"/></g><g><ellipse cx="68.5919" cy="51.8553" rx="11.1703" ry="4.5485" transform="translate(-.0538 .0713) rotate(-.0595)" style="fill:#ffe966;"/><path d="M68.5971,56.7392c-6.6135,.0069-11.9962-2.1784-11.999-4.8714s5.3753-4.8895,11.9888-4.8964c6.6132-.0069,11.9958,2.1784,11.9986,4.8714,.0028,2.693-5.3753,4.8895-11.9885,4.8964Zm-.0094-9.0971c-5.7052,.0059-10.3448,1.9008-10.3424,4.224s4.646,4.2084,10.3512,4.2025c5.705-.0059,10.3445-1.9008,10.3421-4.224s-4.6458-4.2084-10.3509-4.2025Z" style="fill:#efb93f;"/><path d="M68.5971,56.7392c-6.6135,.0069-11.9962-2.1784-11.999-4.8715v1.7202c.0028,2.693,5.3855,4.8783,11.999,4.8714,6.6132-.0069,11.9913-2.2034,11.9885-4.8964v-1.7202c.0028,2.693-5.3753,4.8895-11.9885,4.8964Z" style="fill:#efb93f;"/><path d="M65.2452,53.048c.7756,.2647,1.7101,.4504,3.0143,.449,1.5506-.0016,2.5196-.2897,2.5191-.7346-.0004-.3803-.4237-.6023-2.5916-.9373-2.3444-.3636-3.1552-.7072-3.1558-1.3674-.0006-.6028,1.162-1.0991,3.224-1.1802l-.1421-.8179,1.5509-.0016-.1577,.8182c1.0398,.0276,1.9033,.1344,2.7496,.2986l-.5634,.5388c-.7404-.1715-1.7626-.3139-2.8377-.3128-1.4274,.0015-2.3082,.2536-2.3079,.6195,.0004,.3445,.3528,.5307,2.468,.8443,2.5383,.3777,3.3494,.793,3.35,1.4174,.0008,.7678-1.356,1.2357-3.2413,1.3381l.1595,.825-1.5509,.0016,.1401-.8039c-1.392-.0344-2.6261-.2054-3.4016-.4629l.7747-.5319Z" style="fill:#efb93f;"/></g><g><ellipse cx="68.0692" cy="48.1808" rx="11.1703" ry="4.5485" transform="translate(-.05 .0707) rotate(-.0595)" style="fill:#ffe966;"/><path d="M68.0744,53.0647c-6.6135,.0069-11.9962-2.1784-11.999-4.8714-.0028-2.693,5.3753-4.8895,11.9888-4.8964s11.9958,2.1784,11.9986,4.8714-5.3753,4.8895-11.9885,4.8964Zm-.0094-9.0971c-5.7052,.0059-10.3448,1.9008-10.3424,4.224,.0024,2.3231,4.646,4.2084,10.3512,4.2025,5.705-.0059,10.3445-1.9008,10.3421-4.224-.0024-2.3231-4.6458-4.2084-10.3509-4.2025Z" style="fill:#efb93f;"/><path d="M68.0744,53.0647c-6.6135,.0069-11.9962-2.1784-11.999-4.8715v1.7202c.0028,2.693,5.3855,4.8783,11.999,4.8714,6.6132-.0069,11.9913-2.2034,11.9885-4.8964v-1.7202c.0028,2.693-5.3753,4.8895-11.9885,4.8964Z" style="fill:#efb93f;"/><path d="M64.7224,49.3735c.7756,.2647,1.7101,.4504,3.0143,.449,1.5506-.0016,2.5196-.2897,2.5191-.7346-.0004-.3803-.4237-.6023-2.5916-.9373-2.3444-.3636-3.1552-.7072-3.1558-1.3674-.0006-.6028,1.162-1.0991,3.224-1.1802l-.1421-.8179,1.5509-.0016-.1577,.8182c1.0398,.0276,1.9033,.1344,2.7496,.2986l-.5634,.5388c-.7404-.1715-1.7626-.3139-2.8377-.3128-1.4274,.0015-2.3082,.2536-2.3079,.6195,.0004,.3445,.3528,.5307,2.468,.8443,2.5383,.3777,3.3494,.793,3.35,1.4174,.0008,.7678-1.356,1.2357-3.2413,1.3381l.1595,.825-1.5509,.0016,.1401-.8039c-1.392-.0344-2.6261-.2054-3.4016-.4629l.7747-.5319Z" style="fill:#efb93f;"/></g><g><ellipse cx="65.1198" cy="45.3649" rx="11.1703" ry="4.5485" transform="translate(-.0471 .0677) rotate(-.0595)" style="fill:#ffe966;"/><path d="M65.125,50.2489c-6.6135,.0069-11.9962-2.1784-11.999-4.8714-.0028-2.693,5.3753-4.8895,11.9888-4.8964s11.9958,2.1784,11.9986,4.8714c.0028,2.693-5.3753,4.8895-11.9885,4.8964Zm-.0094-9.0971c-5.7052,.0059-10.3448,1.9008-10.3424,4.224,.0024,2.3231,4.646,4.2084,10.3512,4.2025s10.3445-1.9008,10.3421-4.224-4.6458-4.2084-10.3509-4.2025Z" style="fill:#efb93f;"/><path d="M65.125,50.2489c-6.6135,.0069-11.9962-2.1784-11.999-4.8715v1.7202c.0028,2.693,5.3855,4.8783,11.999,4.8714,6.6132-.0069,11.9913-2.2034,11.9885-4.8964v-1.7202c.0028,2.693-5.3753,4.8895-11.9885,4.8964Z" style="fill:#efb93f;"/><path d="M61.7731,46.5577c.7756,.2647,1.7101,.4504,3.0143,.449,1.5506-.0016,2.5196-.2897,2.5191-.7346-.0004-.3803-.4237-.6023-2.5916-.9373-2.3444-.3636-3.1552-.7072-3.1558-1.3674-.0006-.6028,1.162-1.0991,3.224-1.1802l-.1421-.8179,1.5509-.0016-.1577,.8182c1.0398,.0276,1.9033,.1344,2.7496,.2986l-.5634,.5388c-.7404-.1715-1.7626-.3139-2.8377-.3128-1.4274,.0015-2.3082,.2536-2.3079,.6195,.0004,.3445,.3528,.5307,2.468,.8443,2.5383,.3777,3.3494,.793,3.35,1.4174,.0008,.7678-1.356,1.2357-3.2413,1.3381l.1595,.825-1.5509,.0016,.1401-.8039c-1.392-.0344-2.6261-.2054-3.4016-.4629l.7747-.5319Z" style="fill:#efb93f;"/></g><g><ellipse cx="67.7685" cy="43.0936" rx="11.1703" ry="4.5485" transform="translate(-.0447 .0704) rotate(-.0595)" style="fill:#ffe966;"/><path d="M67.7736,47.9775c-6.6135,.0069-11.9962-2.1784-11.999-4.8714-.0028-2.693,5.3753-4.8895,11.9888-4.8964s11.9958,2.1784,11.9986,4.8714c.0028,2.693-5.3753,4.8895-11.9885,4.8964Zm-.0094-9.0971c-5.7052,.0059-10.3448,1.9008-10.3424,4.224s4.646,4.2084,10.3512,4.2025c5.705-.0059,10.3445-1.9008,10.3421-4.224-.0024-2.3231-4.6458-4.2084-10.3509-4.2025Z" style="fill:#efb93f;"/><path d="M67.7736,47.9775c-6.6135,.0069-11.9962-2.1784-11.999-4.8715v1.7202c.0028,2.693,5.3855,4.8783,11.999,4.8714,6.6132-.0069,11.9913-2.2034,11.9885-4.8964v-1.7202c.0028,2.693-5.3753,4.8895-11.9885,4.8964Z" style="fill:#efb93f;"/><path d="M64.4217,44.2863c.7756,.2647,1.7101,.4504,3.0143,.449,1.5506-.0016,2.5196-.2897,2.5191-.7346-.0004-.3803-.4237-.6023-2.5916-.9373-2.3444-.3636-3.1552-.7072-3.1558-1.3674-.0006-.6028,1.162-1.0991,3.224-1.1802l-.1421-.8179,1.5509-.0016-.1577,.8182c1.0398,.0276,1.9033,.1344,2.7496,.2986l-.5634,.5388c-.7404-.1715-1.7626-.3139-2.8377-.3128-1.4274,.0015-2.3082,.2536-2.3079,.6195,.0004,.3445,.3528,.5307,2.468,.8443,2.5383,.3777,3.3494,.793,3.35,1.4174,.0008,.7678-1.356,1.2357-3.2413,1.3381l.1595,.825-1.5509,.0016,.1401-.8039c-1.392-.0344-2.6261-.2054-3.4016-.4629l.7747-.5319Z" style="fill:#efb93f;"/></g><g><ellipse cx="64.2962" cy="39.2285" rx="11.1703" ry="4.5485" transform="translate(-.0407 .0668) rotate(-.0595)" style="fill:#ffe966;"/><path d="M64.3014,44.1124c-6.6135,.0069-11.9962-2.1784-11.999-4.8714-.0028-2.693,5.3753-4.8895,11.9888-4.8964,6.6132-.0069,11.9958,2.1784,11.9986,4.8714s-5.3753,4.8895-11.9885,4.8964Zm-.0094-9.0971c-5.7052,.0059-10.3448,1.9008-10.3424,4.224,.0024,2.3231,4.646,4.2084,10.3512,4.2025,5.705-.0059,10.3445-1.9008,10.3421-4.224-.0024-2.3231-4.6458-4.2084-10.3509-4.2025Z" style="fill:#efb93f;"/><path d="M64.3014,44.1124c-6.6135,.0069-11.9962-2.1784-11.999-4.8715v1.7202c.0028,2.693,5.3855,4.8783,11.999,4.8714,6.6132-.0069,11.9913-2.2034,11.9885-4.8964v-1.7202c.0028,2.693-5.3753,4.8895-11.9885,4.8964Z" style="fill:#efb93f;"/><path d="M60.9495,40.4212c.7756,.2647,1.7101,.4504,3.0143,.449,1.5506-.0016,2.5196-.2897,2.5191-.7346-.0004-.3803-.4237-.6023-2.5916-.9373-2.3444-.3636-3.1552-.7072-3.1558-1.3674-.0006-.6028,1.162-1.0991,3.224-1.1802l-.1421-.8179,1.5509-.0016-.1577,.8182c1.0398,.0276,1.9033,.1344,2.7496,.2986l-.5634,.5388c-.7404-.1715-1.7626-.3139-2.8377-.3128-1.4274,.0015-2.3082,.2536-2.3079,.6195,.0004,.3445,.3528,.5307,2.468,.8443,2.5383,.3777,3.3494,.793,3.35,1.4174,.0008,.7678-1.356,1.2357-3.2413,1.3381l.1595,.825-1.5509,.0016,.1401-.8039c-1.392-.0344-2.6261-.2054-3.4016-.4629l.7747-.5319Z" style="fill:#efb93f;"/></g><g><ellipse cx="62.6491" cy="35.9146" rx="11.1703" ry="4.5485" transform="translate(-.0373 .0651) rotate(-.0595)" style="fill:#ffe966;"/><path d="M62.6543,40.7985c-6.6135,.0069-11.9962-2.1784-11.999-4.8714s5.3753-4.8895,11.9888-4.8964,11.9958,2.1784,11.9986,4.8714c.0028,2.693-5.3753,4.8895-11.9885,4.8964Zm-.0094-9.0971c-5.7052,.0059-10.3448,1.9008-10.3424,4.224s4.646,4.2084,10.3512,4.2025c5.705-.0059,10.3445-1.9008,10.3421-4.224s-4.6458-4.2084-10.3509-4.2025Z" style="fill:#efb93f;"/><path d="M62.6543,40.7986c-6.6135,.0069-11.9962-2.1784-11.999-4.8715v1.7202c.0028,2.693,5.3855,4.8783,11.999,4.8714,6.6132-.0069,11.9913-2.2034,11.9885-4.8964v-1.7202c.0028,2.693-5.3753,4.8895-11.9885,4.8964Z" style="fill:#efb93f;"/><path d="M59.3024,37.1074c.7756,.2647,1.7101,.4504,3.0143,.449,1.5506-.0016,2.5196-.2897,2.5191-.7346-.0004-.3803-.4237-.6023-2.5916-.9373-2.3444-.3636-3.1552-.7072-3.1558-1.3674-.0006-.6028,1.162-1.0991,3.224-1.1802l-.1421-.8179,1.5509-.0016-.1577,.8182c1.0398,.0276,1.9033,.1344,2.7496,.2986l-.5634,.5388c-.7404-.1715-1.7626-.3139-2.8377-.3128-1.4274,.0015-2.3082,.2536-2.3079,.6195,.0004,.3445,.3528,.5307,2.468,.8443,2.5383,.3777,3.3494,.793,3.35,1.4174,.0008,.7678-1.356,1.2357-3.2413,1.3381l.1595,.825-1.5509,.0016,.1401-.8039c-1.392-.0344-2.6261-.2054-3.4016-.4629l.7747-.5319Z" style="fill:#efb93f;"/></g><g><ellipse cx="66.7669" cy="33.4845" rx="11.1703" ry="4.5485" transform="translate(-.0348 .0694) rotate(-.0595)" style="fill:#ffe966;"/><path d="M66.7721,38.3684c-6.6135,.0069-11.9962-2.1784-11.999-4.8714-.0028-2.693,5.3753-4.8895,11.9888-4.8964,6.6132-.0069,11.9958,2.1784,11.9986,4.8714,.0028,2.693-5.3753,4.8895-11.9885,4.8964Zm-.0094-9.0971c-5.7052,.0059-10.3448,1.9008-10.3424,4.224,.0024,2.3231,4.646,4.2084,10.3512,4.2025,5.705-.0059,10.3445-1.9008,10.3421-4.224-.0024-2.3231-4.6458-4.2084-10.3509-4.2025Z" style="fill:#efb93f;"/><path d="M66.7721,38.3684c-6.6135,.0069-11.9962-2.1784-11.999-4.8715v1.7202c.0028,2.693,5.3855,4.8783,11.999,4.8714,6.6132-.0069,11.9913-2.2034,11.9885-4.8964v-1.7202c.0028,2.693-5.3753,4.8895-11.9885,4.8964Z" style="fill:#efb93f;"/><path d="M63.4202,34.6772c.7756,.2647,1.7101,.4504,3.0143,.449,1.5506-.0016,2.5196-.2897,2.5191-.7346-.0004-.3803-.4237-.6023-2.5916-.9373-2.3444-.3636-3.1552-.7072-3.1558-1.3674-.0006-.6028,1.162-1.0991,3.224-1.1802l-.1421-.8179,1.5509-.0016-.1577,.8182c1.0398,.0276,1.9033,.1344,2.7496,.2986l-.5634,.5388c-.7404-.1715-1.7626-.3139-2.8377-.3128-1.4274,.0015-2.3082,.2536-2.3079,.6195,.0004,.3445,.3528,.5307,2.468,.8443,2.5383,.3777,3.3494,.793,3.35,1.4174,.0008,.7678-1.356,1.2357-3.2413,1.3381l.1595,.825-1.5509,.0016,.1401-.8039c-1.392-.0344-2.6261-.2054-3.4016-.4629l.7747-.5319Z" style="fill:#efb93f;"/></g><g><ellipse cx="65.5948" cy="29.227" rx="11.1703" ry="4.5485" transform="translate(-.0303 .0682) rotate(-.0595)" style="fill:#ffe966;"/><path d="M65.6,34.1109c-6.6135,.0069-11.9962-2.1784-11.999-4.8714-.0028-2.693,5.3753-4.8895,11.9888-4.8964s11.9958,2.1784,11.9986,4.8714c.0028,2.693-5.3753,4.8895-11.9885,4.8964Zm-.0094-9.0971c-5.7052,.0059-10.3448,1.9008-10.3424,4.224,.0024,2.3231,4.646,4.2084,10.3512,4.2025,5.705-.0059,10.3445-1.9008,10.3421-4.224s-4.6458-4.2084-10.3509-4.2025Z" style="fill:#efb93f;"/><path d="M65.6,34.1109c-6.6135,.0069-11.9962-2.1784-11.999-4.8715v1.7202c.0028,2.693,5.3855,4.8783,11.999,4.8714,6.6132-.0069,11.9913-2.2034,11.9885-4.8964v-1.7202c.0028,2.693-5.3753,4.8895-11.9885,4.8964Z" style="fill:#efb93f;"/><path d="M62.2481,30.4197c.7756,.2647,1.7101,.4504,3.0143,.449,1.5506-.0016,2.5196-.2897,2.5191-.7346-.0004-.3803-.4237-.6023-2.5916-.9373-2.3444-.3636-3.1552-.7072-3.1558-1.3674-.0006-.6028,1.162-1.0991,3.224-1.1802l-.1421-.8179,1.5509-.0016-.1577,.8182c1.0398,.0276,1.9033,.1344,2.7496,.2986l-.5634,.5388c-.7404-.1715-1.7626-.3139-2.8377-.3128-1.4274,.0015-2.3082,.2536-2.3079,.6195,.0004,.3445,.3528,.5307,2.468,.8443,2.5383,.3777,3.3494,.793,3.35,1.4174,.0008,.7678-1.356,1.2357-3.2413,1.3381l.1595,.825-1.5509,.0016,.1401-.8039c-1.392-.0344-2.6261-.2054-3.4016-.4629l.7747-.5319Z" style="fill:#efb93f;"/></g><g><ellipse cx="63.1242" cy="26.6773" rx="11.1703" ry="4.5485" transform="translate(-.0277 .0656) rotate(-.0595)" style="fill:#ffe966;"/><path d="M63.1294,31.5612c-6.6135,.0069-11.9962-2.1784-11.999-4.8714-.0028-2.693,5.3753-4.8895,11.9888-4.8964s11.9958,2.1784,11.9986,4.8714-5.3753,4.8895-11.9885,4.8964Zm-.0094-9.0971c-5.7052,.0059-10.3448,1.9008-10.3424,4.224s4.646,4.2084,10.3512,4.2025c5.705-.0059,10.3445-1.9008,10.3421-4.224-.0024-2.3231-4.6458-4.2084-10.3509-4.2025Z" style="fill:#efb93f;"/><path d="M63.1294,31.5612c-6.6135,.0069-11.9962-2.1784-11.999-4.8715v1.7202c.0028,2.693,5.3855,4.8783,11.999,4.8714,6.6132-.0069,11.9913-2.2034,11.9885-4.8964v-1.7202c.0028,2.693-5.3753,4.8895-11.9885,4.8964Z" style="fill:#efb93f;"/><path d="M59.7775,27.87c.7756,.2647,1.7101,.4504,3.0143,.449,1.5506-.0016,2.5196-.2897,2.5191-.7346-.0004-.3803-.4237-.6023-2.5916-.9373-2.3444-.3636-3.1552-.7072-3.1558-1.3674-.0006-.6028,1.162-1.0991,3.224-1.1802l-.1421-.8179,1.5509-.0016-.1577,.8182c1.0398,.0276,1.9033,.1344,2.7496,.2986l-.5634,.5388c-.7404-.1715-1.7626-.3139-2.8377-.3128-1.4274,.0015-2.3082,.2536-2.3079,.6195,.0004,.3445,.3528,.5307,2.468,.8443,2.5383,.3777,3.3494,.793,3.35,1.4174,.0008,.7678-1.356,1.2357-3.2413,1.3381l.1595,.825-1.5509,.0016,.1401-.8039c-1.392-.0344-2.6261-.2054-3.4016-.4629l.7747-.5319Z" style="fill:#efb93f;"/></g></g></g></svg>