<?xml version="1.0" encoding="UTF-8"?><svg xmlns="http://www.w3.org/2000/svg" viewBox="0 0 90 270.4615"><g style="isolation:isolate;"><g id="a"><g><g><path d="M15.9637,244.6463l-6.8472,5.4025H31.6112l-6.8472-5.4025c-2.5802-2.0358-6.2201-2.0358-8.8003,0Z" style="fill:#d7ba8c;"/><path d="M25.8137,245.0358l-3.5673,5.013h22.4947l-3.5672-5.013c-3.7582-5.2813-11.6021-5.2813-15.3602,0Z" style="fill:#d7ba8c;"/><path d="M38.9436,245.0358l-3.5673,5.013h22.4947l-3.5672-5.013c-3.7582-5.2813-11.6021-5.2813-15.3602,0Z" style="fill:#d7ba8c;"/><path d="M52.7133,245.3233l-4.2071,4.7255h22.4947l-4.2071-4.7255c-3.749-4.211-10.3315-4.211-14.0805,0Z" style="fill:#d7ba8c;"/><path d="M65.2033,245.0358l-3.5672,5.013h22.4947l-3.5673-5.013c-3.7581-5.2813-11.602-5.2813-15.3602,0Z" style="fill:#d7ba8c;"/></g><rect x="9.2759" y="250.0488" width="75.0143" height="3.2402" style="fill:#a48250;"/><rect x="45.5889" y="111.7561" width="2" height="129.4189" style="fill:#6b4b2c;"/><g><path d="M59.8936,212.7084c-4.8269,4.8269-13.2786,4.2012-13.2786,4.2012,0,0-.6258-8.4517,4.2011-13.2786,.2012-.2011,.4086-.3928,.6214-.5754,5.8103-4.9858,14.0172,3.2211,9.0315,9.0315-.1826,.2128-.3743,.4202-.5754,.6213Z" style="fill:#84ba4d;"/><path d="M59.8936,212.7084c.2011-.2011,.3928-.4085,.5754-.6213,2.4929-2.9052,1.6876-6.4095-.4672-8.5643l-13.3868,13.3867s8.4517,.6258,13.2786-4.2011Z" style="fill:#e6e7e8; mix-blend-mode:multiply;"/></g><g><path d="M33.3365,212.7084c4.8269,4.8269,13.2785,4.2012,13.2785,4.2012,0,0,.6258-8.4517-4.2011-13.2786-.2011-.2011-.4085-.3928-.6214-.5754-5.8103-4.9858-14.0172,3.2211-9.0314,9.0315,.1826,.2128,.3742,.4202,.5754,.6213Z" style="fill:#84ba4d;"/><path d="M33.3364,212.7084c-.2011-.2011-.3927-.4085-.5753-.6213-2.493-2.9052-1.6876-6.4095,.4672-8.5643l13.3867,13.3867s-8.4517,.6258-13.2786-4.2011Z" style="fill:#e6e7e8; mix-blend-mode:multiply;"/></g><rect x="43.6807" y="185.6156" width="20.2188" height="1.9998" transform="translate(-116.2057 92.6998) rotate(-45.002)" style="fill:#6b4b2c;"/><g><path d="M72.9404,176.4043c-4.8269,4.8269-13.2786,4.2011-13.2786,4.2011,0,0-.6258-8.4517,4.2011-13.2786,.2012-.2011,.4086-.3928,.6214-.5754,5.8104-4.9857,14.0172,3.2211,9.0315,9.0315-.1826,.2128-.3743,.4202-.5754,.6214Z" style="fill:#84ba4d;"/><path d="M72.9404,176.4043c.2011-.2011,.3928-.4086,.5754-.6214,2.4929-2.9052,1.6876-6.4095-.4672-8.5643l-13.3868,13.3868s8.4517,.6258,13.2786-4.2011Z" style="fill:#e6e7e8; mix-blend-mode:multiply;"/></g><path d="M51.4148,106.3606c0,5.1328-4.8263,6.2556-4.8263,6.2556,0,0-4.8264-1.1228-4.8264-6.2556,0-.2139,.0084-.4261,.0245-.6363,.2192-2.8701,4.8019-7.3432,4.8019-7.3432,0,0,4.5826,4.4731,4.8019,7.3432,.016,.2102,.0244,.4224,.0244,.6363Z" style="fill:#ff7d6c;"/><g><path d="M48.4179,110.3307c0,1.8753-1.7633,2.2855-1.7633,2.2855,0,0-1.7633-.4102-1.7633-2.2855,0-.0781,.0031-.1556,.009-.2325,.0801-1.0485,1.7543-2.6828,1.7543-2.6828,0,0,1.6743,1.6343,1.7544,2.6828,.0059,.0769,.0089,.1544,.0089,.2325Z" style="fill:#7dad45;"/><path d="M49.2064,112.141c-1.4604,1.1762-2.5518,.4752-2.5518,.4752,0,0-.4523-1.2157,1.0082-2.3919,.0608-.049,.1226-.096,.185-.141,.8517-.6141,2.8573-.7292,2.8573-.7292,0,0-.5399,1.935-1.3215,2.6362-.0573,.0514-.1163,.1017-.1772,.1507Z" style="fill:#84ba4d;"/><path d="M44.0366,112.141c1.4605,1.1762,2.5519,.4752,2.5519,.4752,0,0,.4523-1.2157-1.0082-2.3919-.0609-.049-.1226-.096-.185-.141-.8517-.6141-2.8573-.7292-2.8573-.7292,0,0,.5399,1.935,1.3215,2.6362,.0573,.0514,.1163,.1017,.1771,.1507Z" style="fill:#84ba4d;"/></g><rect x="37.3922" y="179.8002" width="1.9998" height="23.1834" transform="translate(-124.0931 83.2098) rotate(-45.0018)" style="fill:#6b4b2c;"/><g><path d="M27.5742,171.5779c4.8269,4.8269,4.2012,13.2786,4.2012,13.2786,0,0-8.4517,.6257-13.2786-4.2012-.2011-.2011-.3928-.4085-.5754-.6213-4.9858-5.8104,3.2211-14.0173,9.0315-9.0315,.2128,.1826,.4202,.3743,.6213,.5754Z" style="fill:#84ba4d;"/><path d="M27.5742,171.5779c-.2011-.2012-.4085-.3928-.6213-.5754-2.9052-2.4929-6.4095-1.6876-8.5643,.4672l13.3867,13.3867s.6258-8.4517-4.2011-13.2785Z" style="fill:#e6e7e8; mix-blend-mode:multiply;"/></g><rect x="34.4748" y="139.6397" width="1.9998" height="31.5108" transform="translate(-99.4899 70.5974) rotate(-44.9995)" style="fill:#6b4b2c;"/><rect x="20.5655" y="151.8254" width="12.3389" height="2" style="fill:#6b4b2c;"/><g><path d="M20.8676,131.7209c4.8269,4.8269,4.2011,13.2786,4.2011,13.2786,0,0-8.4517,.6258-13.2786-4.2011-.2011-.2011-.3928-.4086-.5754-.6214-4.9857-5.8103,3.2211-14.0172,9.0315-9.0315,.2128,.1826,.4202,.3743,.6214,.5754Z" style="fill:#84ba4d;"/><path d="M20.8676,131.7209c-.2011-.2011-.4086-.3928-.6214-.5754-2.9052-2.4929-6.4095-1.6876-8.5643,.4672l13.3868,13.3868s.6258-8.4517-4.2011-13.2786Z" style="fill:#e6e7e8; mix-blend-mode:multiply;"/></g><g><path d="M10.8801,146.4066c6.8263,0,12.3601,6.4188,12.3601,6.4188,0,0-5.5338,6.4187-12.3601,6.4187-.2844,0-.5666-.0112-.8462-.0325-7.634-.5831-7.634-12.1894,0-12.7725,.2796-.0213,.5618-.0325,.8462-.0325Z" style="fill:#84ba4d;"/><path d="M10.8801,146.4066c-.2844,0-.5666,.0112-.8462,.0325-3.817,.2915-5.7255,3.3389-5.7255,6.3863H23.2401s-5.5337-6.4188-12.36-6.4188Z" style="fill:#e6e7e8; mix-blend-mode:multiply;"/></g><rect x="40.2765" y="166.6416" width="1.9998" height="15.026" transform="translate(-111.0564 80.1957) rotate(-45.0001)" style="fill:#6b4b2c;"/><g><path d="M34.9336,162.7745c2.8116,2.8116,2.4471,7.7347,2.4471,7.7347,0,0-4.9231,.3645-7.7347-2.4471-.1172-.1172-.2288-.238-.3352-.362-2.9041-3.3845,1.8763-8.1649,5.2608-5.2608,.124,.1064,.2448,.2181,.362,.3352Z" style="fill:#84ba4d;"/><path d="M34.9336,162.7745c-.1172-.1172-.238-.2288-.362-.3352-1.6922-1.4521-3.7335-.983-4.9886,.2722l7.7977,7.7977s.3645-4.9231-2.4471-7.7347Z" style="fill:#e6e7e8; mix-blend-mode:multiply;"/></g><rect x="42.5632" y="162.0751" width="27.8493" height="1.9998" transform="translate(-98.7665 87.7065) rotate(-45)" style="fill:#6b4b2c;"/><g><path d="M72.8197,152.0727c-2.8117,2.8116-7.7347,2.4471-7.7347,2.4471,0,0-.3645-4.923,2.4471-7.7347,.1172-.1171,.238-.2288,.362-.3352,3.3845-2.9041,8.1649,1.8763,5.2607,5.2608-.1063,.124-.218,.2448-.3351,.362Z" style="fill:#84ba4d;"/><path d="M72.8197,152.0727c.1171-.1172,.2288-.238,.3352-.362,1.4521-1.6922,.983-3.7334-.2722-4.9886l-7.7977,7.7977s4.9231,.3645,7.7347-2.4471Z" style="fill:#e6e7e8; mix-blend-mode:multiply;"/></g><rect x="57.0206" y="147.9124" width="2" height="13.6293" style="fill:#6b4b2c;"/><g><path d="M61.7599,141.8353c0,3.9763-3.7389,7.1997-3.7389,7.1997,0,0-3.7388-3.2234-3.7388-7.1997,0-.1657,.0065-.33,.0189-.4929,.3397-4.4468,7.1002-4.4468,7.4399,0,.0124,.1629,.0189,.3272,.0189,.4929Z" style="fill:#84ba4d;"/><path d="M61.7599,141.8353c0-.1657-.0065-.3301-.0189-.4929-.1698-2.2234-1.9449-3.3351-3.72-3.3351v11.0276s3.7389-3.2233,3.7389-7.1996Z" style="fill:#e6e7e8; mix-blend-mode:multiply;"/></g><rect x="53.7901" y="185.6155" width="14.7295" height="2" style="fill:#6b4b2c;"/><g><path d="M73.9636,190.3545c-3.9763,0-7.1997-3.7389-7.1997-3.7389,0,0,3.2234-3.7389,7.1997-3.7389,.1656,0,.33,.0065,.4929,.019,4.4468,.3396,4.4468,7.1002,0,7.4398-.1629,.0125-.3273,.019-.4929,.019Z" style="fill:#84ba4d;"/><path d="M73.9636,190.3545c.1656,0,.33-.0065,.4929-.019,2.2234-.1698,3.3351-1.9448,3.3351-3.7199h-11.0276s3.2233,3.7389,7.1996,3.7389Z" style="fill:#e6e7e8; mix-blend-mode:multiply;"/></g><rect x="42.2914" y="136.41" width="29.7054" height="1.9998" transform="translate(-80.4264 80.6534) rotate(-45)" style="fill:#6b4b2c;"/><g><path d="M77.8719,125.3837c-4.8269,4.8269-13.2786,4.2012-13.2786,4.2012,0,0-.6257-8.4517,4.2012-13.2786,.2011-.2011,.4085-.3928,.6214-.5754,5.8103-4.9858,14.0172,3.2211,9.0314,9.0315-.1826,.2128-.3742,.4202-.5754,.6213Z" style="fill:#84ba4d;"/><path d="M77.872,125.3838c.2011-.2012,.3927-.4086,.5753-.6214,2.493-2.9052,1.6876-6.4095-.4672-8.5643l-13.3867,13.3867s8.4517,.6258,13.2786-4.201Z" style="fill:#e6e7e8; mix-blend-mode:multiply;"/></g><g><path d="M37.7846,119.2019c3.2373,3.2372,8.9056,2.8176,8.9056,2.8176,0,0,.4197-5.6684-2.8176-8.9057-.1348-.1349-.274-.2634-.4167-.3859-3.8969-3.3438-9.401,2.1604-6.0572,6.0572,.1225,.1428,.251,.2819,.3859,.4168Z" style="fill:#84ba4d;"/><path d="M37.7846,119.2019c-.1349-.1349-.2634-.2741-.3859-.4168-1.6719-1.9484-1.1318-4.2987,.3134-5.7438l8.9781,8.9781s-5.6683,.4197-8.9056-2.8175Z" style="fill:#e6e7e8; mix-blend-mode:multiply;"/></g><rect x="40.0749" y="139.4495" width="1.9998" height="15.671" transform="translate(-92.1158 72.1832) rotate(-45.0001)" style="fill:#6b4b2c;"/><g><path d="M34.652,135.771c2.8117,2.8116,2.4472,7.7347,2.4472,7.7347,0,0-4.9231,.3645-7.7347-2.4472-.1172-.1171-.2288-.2379-.3352-.3619-2.9042-3.3845,1.8763-8.165,5.2608-5.2608,.124,.1064,.2448,.218,.3619,.3352Z" style="fill:#84ba4d;"/><path d="M34.652,135.771c-.1171-.1172-.238-.2288-.3619-.3352-1.6923-1.4521-3.7335-.983-4.9886,.2722l7.7976,7.7977s.3646-4.9231-2.4471-7.7347Z" style="fill:#e6e7e8; mix-blend-mode:multiply;"/></g><rect x="35.3649" y="109.2366" width="1.9998" height="29.067" transform="translate(-76.8683 61.9664) rotate(-45.0006)" style="fill:#6b4b2c;"/><g><path d="M26.1199,108.1011c2.8117,2.8116,2.4472,7.7347,2.4472,7.7347,0,0-4.9231,.3645-7.7347-2.4472-.1172-.1171-.2288-.2379-.3352-.3619-2.9042-3.3845,1.8763-8.165,5.2608-5.2608,.124,.1064,.2448,.218,.3619,.3352Z" style="fill:#84ba4d;"/><path d="M26.12,108.101c-.1172-.1171-.238-.2287-.362-.3351-1.6922-1.4521-3.7335-.983-4.9886,.2721l7.7977,7.7977s.3645-4.923-2.4471-7.7347Z" style="fill:#e6e7e8; mix-blend-mode:multiply;"/></g><rect x="17.3839" y="122.7698" width="18.9814" height="2" style="fill:#6b4b2c;"/><g><path d="M12.6432,120.031c3.9763,0,7.1997,3.7389,7.1997,3.7389,0,0-3.2234,3.7389-7.1997,3.7389-.1657,0-.33-.0065-.4929-.0189-4.4468-.3397-4.4468-7.1003,0-7.4399,.1629-.0125,.3272-.019,.4929-.019Z" style="fill:#84ba4d;"/><path d="M12.6432,120.031c-.1657,0-.3301,.0065-.4929,.019-2.2234,.1698-3.3351,1.9448-3.3351,3.7199h11.0276s-3.2233-3.7389-7.1996-3.7389Z" style="fill:#e6e7e8; mix-blend-mode:multiply;"/></g><rect x="58.1729" y="120.1809" width="2" height="15.2002" style="fill:#6b4b2c;"/><g><path d="M62.9114,115.1799c0,3.9763-3.7389,7.1996-3.7389,7.1996,0,0-3.7389-3.2233-3.7389-7.1996,0-.1657,.0065-.33,.0189-.4929,.3397-4.4468,7.1003-4.4468,7.4399,0,.0125,.1629,.019,.3272,.019,.4929Z" style="fill:#84ba4d;"/><path d="M62.9114,115.1799c0-.1657-.0065-.3301-.019-.4929-.1698-2.2234-1.9449-3.3351-3.7199-3.3351v11.0276s3.7389-3.2234,3.7389-7.1996Z" style="fill:#e6e7e8; mix-blend-mode:multiply;"/></g></g></g></g></svg>