<svg xmlns="http://www.w3.org/2000/svg" viewBox="0 0 90 261.231" xmlns:v="https://vecta.io/nano"><style><![CDATA[.B{fill:#84ba4d}.C{fill:#e6e7e8}.D{fill:#6b4b2c}]]></style><g fill="#d7ba8c"><path d="M16.044 244.646l-6.847 5.403h22.495l-6.847-5.403c-2.58-2.036-6.22-2.036-8.8 0z"/><use href="#B"/><use href="#B" x="13.13"/><path d="M52.794 245.323l-4.207 4.726h22.495l-4.207-4.726a9.43 9.43 0 0 0-14.08 0z"/><use href="#B" x="39.39"/></g><path d="M45.561 147.912h2v93.263h-2z" class="D"/><path d="M59.866 212.708c-4.827 4.827-13.279 4.201-13.279 4.201s-.626-8.452 4.201-13.279a11.11 11.11 0 0 1 .621-.575c5.81-4.986 14.017 3.221 9.032 9.031a11.11 11.11 0 0 1-.575.621z" class="B"/><path d="M59.866 212.708l.575-.621c2.493-2.905 1.688-6.41-.467-8.564L46.588 216.91s8.452.626 13.279-4.201z" style="mix-blend-mode:multiply" class="C"/><path d="M33.309 212.708c4.827 4.827 13.279 4.201 13.279 4.201s.626-8.452-4.201-13.279a11.11 11.11 0 0 0-.621-.575c-5.81-4.986-14.017 3.221-9.032 9.031a11.11 11.11 0 0 0 .575.621z" class="B"/><path d="M33.309 212.708l-.575-.621c-2.493-2.905-1.688-6.41.467-8.564l13.387 13.387s-8.452.626-13.279-4.201z" style="mix-blend-mode:multiply" class="C"/><path d="M45.907 193.057l14.297-14.297 1.414 1.414-14.297 14.297z" class="D"/><path d="M72.913 176.404c-4.827 4.827-13.279 4.201-13.279 4.201s-.626-8.452 4.201-13.279a11.11 11.11 0 0 1 .621-.575c5.81-4.986 14.017 3.221 9.031 9.031-.183.213-.374.42-.575.621z" class="B"/><path d="M72.913 176.404l.575-.621c2.493-2.905 1.688-6.41-.467-8.564l-13.387 13.387s8.452.626 13.279-4.201z" style="mix-blend-mode:multiply" class="C"/><path d="M52.98 138.444c0 6.826-6.419 12.36-6.419 12.36s-6.419-5.534-6.419-12.36a11.09 11.09 0 0 1 .032-.846c.583-7.634 12.189-7.634 12.772 0a11.09 11.09 0 0 1 .032.846z" class="B"/><path d="M52.98 138.444l-.032-.846c-.291-3.817-3.339-5.726-6.386-5.726v18.932s6.419-5.534 6.419-12.36z" style="mix-blend-mode:multiply" class="C"/><path d="M29.461 183.903l1.414-1.414 16.394 16.393-1.414 1.414z" class="D"/><path d="M27.547 171.578c4.827 4.827 4.201 13.279 4.201 13.279s-8.452.626-13.279-4.201a11.11 11.11 0 0 1-.575-.621c-4.986-5.81 3.221-14.017 9.031-9.031.213.183.42.374.621.575z" class="B"/><path d="M27.547 171.578l-.621-.575c-2.905-2.493-6.41-1.688-8.564.467l13.387 13.387s.626-8.452-4.201-13.279z" style="mix-blend-mode:multiply" class="C"/><path d="M9.303 250.049h75.014v3.24H9.303z" fill="#a48250"/><g class="D"><path d="M23.599 144.961l1.414-1.414 22.281 22.282-1.414 1.414z"/><path d="M20.539 151.825h12.339v2H20.539z"/></g><path d="M20.84 131.721C25.667 136.548 25.042 145 25.042 145s-8.452.626-13.279-4.201a11.15 11.15 0 0 1-.575-.621c-4.986-5.81 3.221-14.017 9.032-9.031.213.183.42.374.621.575z" class="B"/><path d="M20.84 131.721l-.621-.575c-2.905-2.493-6.409-1.688-8.564.467l13.387 13.387s.626-8.452-4.201-13.279z" style="mix-blend-mode:multiply" class="C"/><path d="M10.853 146.407c6.826 0 12.36 6.419 12.36 6.419s-5.534 6.419-12.36 6.419a11.14 11.14 0 0 1-.846-.032c-7.634-.583-7.634-12.189 0-12.773a11.14 11.14 0 0 1 .846-.032z" class="B"/><path d="M10.853 146.407l-.846.032c-3.817.292-5.725 3.339-5.725 6.386h18.932s-5.534-6.419-12.36-6.419z" style="mix-blend-mode:multiply" class="C"/><path d="M35.229 169.549l1.414-1.414 10.625 10.625-1.414 1.414z" class="D"/><path d="M34.906 162.775c2.812 2.812 2.447 7.735 2.447 7.735s-4.923.364-7.735-2.447l-.335-.362c-2.904-3.385 1.876-8.165 5.261-5.261l.362.335z" class="B"/><path d="M34.906 162.775l-.362-.335c-1.692-1.452-3.733-.983-4.989.272l7.798 7.798s.364-4.923-2.447-7.735z" style="mix-blend-mode:multiply" class="C"/><path d="M45.907 172.214L65.6 152.522l1.414 1.414-19.693 19.692z" class="D"/><path d="M72.792 152.073c-2.812 2.812-7.735 2.447-7.735 2.447s-.365-4.923 2.447-7.735l.362-.335c3.385-2.904 8.165 1.876 5.261 5.261l-.335.362z" class="B"/><path d="M72.792 152.073l.335-.362c1.452-1.692.983-3.733-.272-4.989l-7.798 7.798s4.923.364 7.735-2.447z" style="mix-blend-mode:multiply" class="C"/><path d="M56.994 147.912h2v13.629h-2z" class="D"/><path d="M61.733 141.835c0 3.976-3.739 7.2-3.739 7.2s-3.739-3.223-3.739-7.2l.019-.493c.34-4.447 7.1-4.447 7.44 0l.019.493z" class="B"/><path d="M61.733 141.835l-.019-.493c-.17-2.223-1.945-3.335-3.72-3.335v11.028s3.739-3.223 3.739-7.2z" style="mix-blend-mode:multiply" class="C"/><defs ><path id="B" d="M25.894 245.036l-3.567 5.013h22.495l-3.567-5.013c-3.758-5.281-11.602-5.281-15.36 0z"/></defs></svg>