<?xml version="1.0" encoding="UTF-8"?><svg id="a" xmlns="http://www.w3.org/2000/svg" viewBox="0 0 148.1361 81.693"><g id="b"><g><polygon points="90.1569 40.661 40.9282 40.6088 55.1973 31.2153 104.426 31.2674 90.1569 40.661" style="fill:#4faa6b;"/><polygon points="90.1569 40.661 40.9282 40.6088 40.9282 45.3317 90.1569 45.3838 104.426 35.9902 104.426 31.2674 90.1569 40.661" style="fill:#499b60;"/><path d="M85.1142,39.8137l-36.5898-.0388c1.3292-.8751,.6164-1.5863-1.5923-1.5887l6.9019-4.5436c2.2086,.0023,5.0767-.7051,6.4059-1.5802l36.5898,.0388c-1.3292,.8751-.6164,1.5863,1.5923,1.5887l-6.9019,4.5436c-2.2086-.0023-5.0767,.7051-6.4059,1.5802Z" style="fill:#7fd397;"/><ellipse cx="72.6771" cy="35.9381" rx="6.6252" ry="1.9846" transform="translate(-6.9695 20.7749) rotate(-15.5329)" style="fill:#4faa6b;"/><polygon points="53.3115 45.3317 53.3115 40.6088 67.5806 31.2153 71.6352 31.2674 59.3155 40.6152 59.3155 45.3838 53.3115 45.3317" style="fill:#eac4b0;"/><polygon points="53.9061 45.3317 53.9061 40.6088 68.1752 31.2153 71.0406 31.2674 58.7208 40.6152 58.7208 45.3838 53.9061 45.3317" style="fill:#edd5c5;"/></g><g><polygon points="87.6946 35.143 38.4658 35.0909 52.7349 25.6973 101.9637 25.7495 87.6946 35.143" style="fill:#4faa6b;"/><polygon points="87.6946 35.143 38.4658 35.0909 38.4658 39.8137 87.6946 39.8659 101.9637 30.4723 101.9637 25.7494 87.6946 35.143" style="fill:#499b60;"/><path d="M82.6519,34.2958l-36.5898-.0388c1.3292-.8751,.6164-1.5863-1.5923-1.5887l6.9019-4.5436c2.2086,.0023,5.0767-.7051,6.4059-1.5802l36.5898,.0388c-1.3292,.8751-.6164,1.5863,1.5923,1.5887l-6.9019,4.5436c-2.2086-.0023-5.0767,.7051-6.4059,1.5802Z" style="fill:#7fd397;"/><ellipse cx="70.2148" cy="30.4202" rx="6.6252" ry="1.9846" transform="translate(-5.5818 19.914) rotate(-15.5329)" style="fill:#4faa6b;"/><polygon points="50.8491 39.8137 50.8491 35.0909 65.1182 25.6973 69.1729 25.7494 56.8531 35.0972 56.8531 39.8659 50.8491 39.8137" style="fill:#eac4b0;"/><polygon points="51.4438 39.8137 51.4438 35.0909 65.7129 25.6973 68.5783 25.7494 56.2585 35.0972 56.2585 39.8659 51.4438 39.8137" style="fill:#edd5c5;"/></g><g><polygon points="89.4368 29.573 40.208 29.5208 54.4771 20.1273 103.7059 20.1794 89.4368 29.573" style="fill:#4faa6b;"/><polygon points="89.4368 29.573 40.208 29.5208 40.208 34.2437 89.4368 34.2958 103.7059 24.9022 103.7059 20.1794 89.4368 29.573" style="fill:#499b60;"/><path d="M84.3941,28.7257l-36.5898-.0388c1.3292-.8751,.6164-1.5863-1.5923-1.5887l6.9019-4.5436c2.2086,.0023,5.0767-.7051,6.4059-1.5802l36.5898,.0388c-1.3292,.8751-.6164,1.5863,1.5923,1.5887l-6.9019,4.5436c-2.2086-.0023-5.0767,.7051-6.4059,1.5802Z" style="fill:#7fd397;"/><ellipse cx="71.957" cy="24.8501" rx="6.6252" ry="1.9846" transform="translate(-4.0266 20.1771) rotate(-15.5329)" style="fill:#4faa6b;"/><polygon points="52.5913 34.2437 52.5913 29.5208 66.8604 20.1273 70.9151 20.1794 58.5953 29.5272 58.5953 34.2958 52.5913 34.2437" style="fill:#eac4b0;"/><polygon points="53.186 34.2437 53.186 29.5208 67.4551 20.1273 70.3205 20.1794 58.0007 29.5272 58.0007 34.2958 53.186 34.2437" style="fill:#edd5c5;"/></g></g><g id="c"><g><polygon points="132.8288 57.275 77.7865 57.2167 93.7407 46.7138 148.783 46.7721 132.8288 57.275" style="fill:#4faa6b;"/><polygon points="132.8288 57.275 77.7865 57.2167 77.7865 62.4973 132.8288 62.5556 148.783 52.0527 148.783 46.7721 132.8288 57.275" style="fill:#499b60;"/><path d="M127.1906,56.3277l-40.9108-.0433c1.4862-.9784,.6892-1.7737-1.7803-1.7763l7.717-5.0802c2.4695,.0026,5.6762-.7884,7.1624-1.7668l40.9108,.0433c-1.4862,.9784-.6892,1.7737,1.7803,1.7763l-7.717,5.0802c-2.4695-.0026-5.6762,.7884-7.1624,1.7668Z" style="fill:#7fd397;"/><ellipse cx="113.2848" cy="51.9944" rx="7.4076" ry="2.219" transform="translate(-9.7862 32.2358) rotate(-15.5329)" style="fill:#4faa6b;"/><polygon points="91.6322 62.4973 91.6322 57.2167 107.5864 46.7138 112.1199 46.7721 98.3452 57.2238 98.3452 62.5556 91.6322 62.4973" style="fill:#eac4b0;"/><polygon points="92.297 62.4973 92.297 57.2167 108.2512 46.7138 111.455 46.7721 97.6803 57.2238 97.6803 62.5556 92.297 62.4973" style="fill:#edd5c5;"/></g><g><polygon points="130.0757 51.1054 75.0334 51.0471 90.9876 40.5442 146.0299 40.6025 130.0757 51.1054" style="fill:#4faa6b;"/><polygon points="130.0757 51.1054 75.0334 51.0471 75.0334 56.3277 130.0757 56.386 146.0299 45.8831 146.0299 40.6025 130.0757 51.1054" style="fill:#499b60;"/><path d="M124.4375,50.1581l-40.9108-.0433c1.4862-.9784,.6892-1.7737-1.7803-1.7763l7.717-5.0802c2.4695,.0026,5.6762-.7884,7.1624-1.7668l40.9108,.0433c-1.4862,.9784-.6892,1.7737,1.7803,1.7763l-7.717,5.0802c-2.4695-.0026-5.6762,.7884-7.1624,1.7668Z" style="fill:#7fd397;"/><ellipse cx="110.5316" cy="45.8248" rx="7.4076" ry="2.219" transform="translate(-8.2345 31.2732) rotate(-15.5329)" style="fill:#4faa6b;"/><polygon points="88.8791 56.3277 88.8791 51.0471 104.8333 40.5442 109.3667 40.6025 95.5921 51.0542 95.5921 56.386 88.8791 56.3277" style="fill:#eac4b0;"/><polygon points="89.5439 56.3277 89.5439 51.0471 105.4981 40.5442 108.7019 40.6025 94.9272 51.0542 94.9272 56.386 89.5439 56.3277" style="fill:#edd5c5;"/></g><g><polygon points="132.0236 44.8776 76.9813 44.8193 92.9355 34.3164 147.9778 34.3747 132.0236 44.8776" style="fill:#4faa6b;"/><polygon points="132.0237 44.8776 76.9813 44.8193 76.9813 50.0999 132.0237 50.1581 147.9778 39.6553 147.9778 34.3747 132.0237 44.8776" style="fill:#499b60;"/><path d="M126.3854,43.9303l-40.9108-.0433c1.4862-.9784,.6892-1.7737-1.7803-1.7763l7.717-5.0802c2.4695,.0026,5.6762-.7884,7.1624-1.7668l40.9108,.0433c-1.4862,.9784-.6892,1.7737,1.7803,1.7763l-7.717,5.0802c-2.4695-.0026-5.6762,.7884-7.1624,1.7668Z" style="fill:#7fd397;"/><ellipse cx="112.4796" cy="39.597" rx="7.4076" ry="2.219" transform="translate(-6.4956 31.5674) rotate(-15.5329)" style="fill:#4faa6b;"/><polygon points="90.827 50.0999 90.827 44.8193 106.7812 34.3164 111.3147 34.3747 97.54 44.8264 97.54 50.1581 90.827 50.0999" style="fill:#eac4b0;"/><polygon points="91.4919 50.0999 91.4919 44.8193 107.446 34.3164 110.6498 34.3747 96.8752 44.8264 96.8752 50.1581 91.4919 50.0999" style="fill:#edd5c5;"/></g><g><polygon points="122.9295 37.015 67.8872 36.9567 83.8414 26.4538 138.8837 26.5121 122.9295 37.015" style="fill:#4faa6b;"/><polygon points="122.9295 37.015 67.8872 36.9567 67.8872 42.2373 122.9295 42.2955 138.8837 31.7927 138.8837 26.5121 122.9295 37.015" style="fill:#499b60;"/><path d="M117.2913,36.0677l-40.9108-.0433c1.4862-.9784,.6892-1.7737-1.7803-1.7763l7.717-5.0802c2.4695,.0026,5.6762-.7884,7.1624-1.7668l40.9108,.0433c-1.4862,.9784-.6892,1.7737,1.7803,1.7763l-7.717,5.0802c-2.4695-.0026-5.6762,.7884-7.1624,1.7668Z" style="fill:#7fd397;"/><ellipse cx="103.3854" cy="31.7344" rx="7.4076" ry="2.219" transform="translate(-4.7222 28.8448) rotate(-15.5329)" style="fill:#4faa6b;"/><polygon points="81.7329 42.2373 81.7329 36.9567 97.687 26.4538 102.2205 26.5121 88.4459 36.9638 88.4459 42.2955 81.7329 42.2373" style="fill:#eac4b0;"/><polygon points="82.3977 42.2373 82.3977 36.9567 98.3519 26.4538 101.5557 26.5121 87.781 36.9638 87.781 42.2955 82.3977 42.2373" style="fill:#edd5c5;"/></g></g></svg>