<svg xmlns="http://www.w3.org/2000/svg" viewBox="0 0 148.136 81.693" xmlns:v="https://vecta.io/nano"><style><![CDATA[.B{fill:#4faa6b}.C{fill:#499b60}.D{fill:#7fd397}.E{fill:#eac4b0}.F{fill:#edd5c5}]]></style><use href="#B" class="B"/><use href="#C" class="C"/><use href="#D" class="D"/><ellipse cx="113.285" cy="51.994" rx="7.408" ry="2.219" transform="matrix(.963477 -.267792 .267792 .963477 -9.7862 32.2358)" class="B"/><use href="#E" class="E"/><path d="M92.297 62.497v-5.281l15.954-10.503 3.204.058L97.68 57.224v5.332l-5.383-.058z" class="F"/><use href="#B" x="-2.753" y="-6.17" class="B"/><use href="#C" x="-2.753" y="-6.17" class="C"/><use href="#D" x="-2.753" y="-6.17" class="D"/><ellipse cx="110.532" cy="45.825" rx="7.408" ry="2.219" transform="matrix(.963477 -.267792 .267792 .963477 -8.2345 31.2732)" class="B"/><path d="M88.879 56.328v-5.281l15.954-10.503 4.533.058-13.775 10.452v5.332l-6.713-.058z" class="E"/><use href="#F" class="F"/><use href="#B" x="-0.805" y="-12.397" class="B"/><path d="M132.024 44.878l-55.042-.058V50.1l55.042.058 15.954-10.503v-5.281l-15.954 10.503z" class="C"/><use href="#D" x="-0.806" y="-12.398" class="D"/><ellipse cx="112.48" cy="39.597" rx="7.408" ry="2.219" transform="matrix(.963477 -.267792 .267792 .963477 -6.4956 31.5674)" class="B"/><path d="M90.827 50.1v-5.281l15.954-10.503 4.534.058L97.54 44.826v5.332l-6.713-.058z" class="E"/><use href="#F" x="1.948" y="-6.228" class="F"/><use href="#B" x="-9.899" y="-20.26" class="B"/><path d="M122.93 37.015l-55.042-.058v5.281l55.042.058 15.954-10.503v-5.281L122.93 37.015z" class="C"/><path d="M117.291 36.068l-40.911-.043c1.486-.978.689-1.774-1.78-1.776l7.717-5.08c2.469.003 5.676-.788 7.162-1.767l40.911.043c-1.486.978-.689 1.774 1.78 1.776l-7.717 5.08c-2.469-.003-5.676.788-7.162 1.767z" class="D"/><ellipse cx="103.385" cy="31.734" rx="7.408" ry="2.219" transform="matrix(.963477 -.267792 .267792 .963477 -4.7222 28.8448)" class="B"/><use href="#E" x="-9.899" y="-20.26" class="E"/><use href="#F" x="-7.146" y="-14.091" class="F"/><defs ><path id="B" d="M132.829 57.275l-55.042-.058 15.954-10.503 55.042.058-15.954 10.503z"/><path id="C" d="M132.829 57.275l-55.042-.058v5.281l55.042.058 15.954-10.503v-5.281l-15.954 10.503z"/><path id="D" d="M127.191 56.328l-40.911-.043c1.486-.978.689-1.774-1.78-1.776l7.717-5.08c2.469.003 5.676-.788 7.162-1.767l40.911.043c-1.486.978-.689 1.774 1.78 1.776l-7.717 5.08c-2.47-.003-5.676.788-7.162 1.767z"/><path id="E" d="M91.632 62.497v-5.281l15.954-10.503 4.534.058-13.775 10.452v5.332l-6.713-.058z"/><path id="F" d="M89.544 56.328v-5.281l15.954-10.503 3.204.058-13.775 10.452v5.332l-5.383-.058z"/></defs></svg>