<?xml version="1.0" encoding="UTF-8"?><svg xmlns="http://www.w3.org/2000/svg" viewBox="0 0 90 270.4615"><g style="isolation:isolate;"><g id="a"><g><g><path d="M15.9151,244.6463l-6.8472,5.4025H31.5626l-6.8472-5.4025c-2.5802-2.0358-6.22-2.0358-8.8003,0Z" style="fill:#d7ba8c;"/><path d="M25.7651,245.0358l-3.5673,5.013h22.4947l-3.5672-5.013c-3.7582-5.2813-11.6021-5.2813-15.3602,0Z" style="fill:#d7ba8c;"/><path d="M38.895,245.0358l-3.5673,5.013h22.4947l-3.5672-5.013c-3.7582-5.2813-11.6021-5.2813-15.3602,0Z" style="fill:#d7ba8c;"/><path d="M52.6647,245.3233l-4.2071,4.7255h22.4947l-4.2071-4.7255c-3.749-4.211-10.3315-4.211-14.0805,0Z" style="fill:#d7ba8c;"/><path d="M65.1548,245.0358l-3.5673,5.013h22.4947l-3.5672-5.013c-3.7582-5.2813-11.6021-5.2813-15.3602,0Z" style="fill:#d7ba8c;"/></g><rect x="45.5755" y="175.7122" width="2" height="65.4628" style="fill:#6b4b2c;"/><g><path d="M59.8802,212.7084c-4.8269,4.8269-13.2786,4.2012-13.2786,4.2012,0,0-.6257-8.4517,4.2012-13.2786,.2011-.2011,.4085-.3928,.6213-.5754,5.8104-4.9858,14.0172,3.2211,9.0315,9.0315-.1826,.2128-.3743,.4202-.5754,.6213Z" style="fill:#84ba4d;"/><path d="M59.8802,212.7084c.2011-.2011,.3928-.4085,.5754-.6213,2.4929-2.9052,1.6876-6.4095-.4672-8.5643l-13.3868,13.3867s8.4518,.6258,13.2786-4.2011Z" style="fill:#e6e7e8; mix-blend-mode:multiply;"/></g><g><path d="M33.3231,212.7084c4.8269,4.8269,13.2786,4.2012,13.2786,4.2012,0,0,.6257-8.4517-4.2012-13.2786-.2011-.2011-.4085-.3928-.6213-.5754-5.8104-4.9858-14.0173,3.2211-9.0315,9.0315,.1826,.2128,.3743,.4202,.5754,.6213Z" style="fill:#84ba4d;"/><path d="M33.3231,212.7084c-.2012-.2011-.3928-.4085-.5754-.6213-2.4929-2.9052-1.6876-6.4095,.4672-8.5643l13.3867,13.3867s-8.4517,.6258-13.2785-4.2011Z" style="fill:#e6e7e8; mix-blend-mode:multiply;"/></g><rect x="43.6672" y="185.6156" width="20.2188" height="1.9998" transform="translate(-116.2063 92.6842) rotate(-45)" style="fill:#6b4b2c;"/><g><path d="M72.927,176.4043c-4.8269,4.8269-13.2786,4.2011-13.2786,4.2011,0,0-.6257-8.4517,4.2012-13.2786,.2011-.2011,.4085-.3928,.6213-.5754,5.8104-4.9857,14.0173,3.2211,9.0315,9.0315-.1826,.2128-.3743,.4202-.5754,.6214Z" style="fill:#84ba4d;"/><path d="M72.927,176.4043c.2012-.2011,.3928-.4086,.5754-.6214,2.4929-2.9052,1.6876-6.4095-.4672-8.5643l-13.3867,13.3868s8.4517,.6258,13.2785-4.2011Z" style="fill:#e6e7e8; mix-blend-mode:multiply;"/></g><g><path d="M52.9938,165.1535c0,6.8262-6.4187,12.36-6.4187,12.36,0,0-6.4187-5.5338-6.4187-12.36,0-.2845,.0111-.5666,.0325-.8463,.583-7.634,12.1893-7.634,12.7724,0,.0214,.2797,.0325,.5618,.0325,.8463Z" style="fill:#84ba4d;"/><path d="M52.9938,165.1535c0-.2845-.0111-.5667-.0325-.8463-.2915-3.817-3.3389-5.7254-6.3862-5.7254v18.9317s6.4187-5.5338,6.4187-12.36Z" style="fill:#e6e7e8; mix-blend-mode:multiply;"/></g><rect x="37.3788" y="179.8002" width="1.9998" height="23.1833" transform="translate(-124.0966 83.1997) rotate(-45.0016)" style="fill:#6b4b2c;"/><g><path d="M27.5609,171.5779c4.8268,4.8269,4.2011,13.2786,4.2011,13.2786,0,0-8.4517,.6257-13.2786-4.2012-.2011-.2011-.3928-.4085-.5754-.6213-4.9857-5.8104,3.2211-14.0173,9.0315-9.0315,.2128,.1826,.4202,.3743,.6214,.5754Z" style="fill:#84ba4d;"/><path d="M27.5609,171.5779c-.2011-.2012-.4086-.3928-.6214-.5754-2.9052-2.4929-6.4095-1.6876-8.5643,.4672l13.3867,13.3867s.6258-8.4517-4.201-13.2785Z" style="fill:#e6e7e8; mix-blend-mode:multiply;"/></g><rect x="9.1211" y="250.0488" width="75.0142" height="3.2402" style="fill:#a48250;"/></g></g></g></svg>